<svg width="512" height="512" viewBox="0 0 512 512" fill="none" xmlns="http://www.w3.org/2000/svg">
<g clip-path="url(#clip0)">
<path d="M240.547 30.9054V92.7162H271.452V30.9054L256 15.4526L240.547 30.9054Z" fill="#134F62"/>
<path d="M263.726 0H248.273C244.006 0 240.547 3.45935 240.547 7.72636V30.9054H271.452V7.72636C271.452 3.45935 267.993 0 263.726 0Z" fill="#4AB8B8"/>
<path d="M379.622 123.622L256 512C341.343 512 410.527 442.816 410.527 357.473V154.527L379.622 123.622Z" fill="#134F62"/>
<path d="M379.622 357.473V123.622L101.473 154.527V357.473C101.473 442.816 170.657 512 256 512C324.274 512 379.622 442.816 379.622 357.473Z" fill="#CBC9C2"/>
<path d="M317.811 61.811L379.621 185.433C379.621 168.364 393.458 154.527 410.527 154.527C410.527 103.321 369.017 61.811 317.811 61.811Z" fill="#134F62"/>
<path d="M317.811 61.811H263.726L256 69.5374L248.273 61.811H194.189C142.983 61.811 101.473 103.321 101.473 154.527C118.542 154.527 132.378 168.364 132.378 185.433V357.473C132.378 425.747 187.726 481.095 256 481.095C324.274 481.095 379.622 425.747 379.622 357.473V154.527C379.622 103.321 351.948 61.811 317.811 61.811Z" fill="#4AB8B8"/>
<path d="M248.273 61.811V278.149C248.273 282.416 251.733 285.875 256 285.875C260.267 285.875 263.726 282.416 263.726 278.149V61.811H248.273Z" fill="#134F62"/>
<path d="M256 123.622C243.199 123.622 232.821 134 232.821 146.801V193.159C232.821 205.96 243.199 216.338 256 216.338C268.801 216.338 279.179 205.96 279.179 193.159V146.801C279.179 134 268.801 123.622 256 123.622Z" fill="#CBC9C2"/>
</g>
<defs>
<clipPath id="clip0">
<rect width="512" height="512" fill="white"/>
</clipPath>
</defs>
</svg>
