<svg width="512" height="512" viewBox="0 0 512 512" fill="none" xmlns="http://www.w3.org/2000/svg">
<path d="M283.887 413.103L197.208 444.008L193.921 455.494C189.255 471.843 171.525 485.215 154.527 485.215V492.942H334.294L283.887 413.103Z" fill="#4AB8B8"/>
<path d="M318.079 455.495L305.964 413.103L256 382.197L206.036 413.103L197.208 444.008H283.887L287.173 455.495C291.84 471.844 309.569 485.215 326.567 485.215L342.02 492.942L357.473 485.215C340.475 485.215 322.745 471.844 318.079 455.495Z" fill="#134F62"/>
<path d="M450.189 413.103H481.094C498.092 413.103 512 399.195 512 382.197V320.387L450.189 258.576V413.103Z" fill="#ADACA7"/>
<path d="M0 382.197C0 399.195 13.9074 413.103 30.9054 413.103H450.189C467.187 413.103 481.095 399.195 481.095 382.197V196.765L0 320.386V382.197Z" fill="#CBC9C2"/>
<path d="M481.094 11.332H450.189L481.094 320.386H512V42.2375C512 25.2395 498.092 11.332 481.094 11.332Z" fill="#404242"/>
<path d="M481.095 42.2375C481.095 25.2395 467.187 11.332 450.189 11.332H30.9054C13.9074 11.332 0 25.2395 0 42.2375V320.386H481.095V289.481L256 165.846L481.095 42.2375Z" fill="#565959"/>
<path d="M481.095 42.2321L450.195 42.2104C450.195 42.2156 256 165.846 256 165.846C256 165.846 450.191 289.479 450.189 289.481L481.094 289.46C481.095 289.46 481.091 42.2362 481.095 42.2321V42.2321Z" fill="#134F62"/>
<path d="M450.189 42.2321L30.9959 42.2095C30.9702 42.2218 30.9485 289.476 30.9053 289.481C30.9053 289.481 450.168 289.46 450.179 289.46C450.184 289.46 450.146 42.2363 450.189 42.2321V42.2321Z" fill="#4AB8B8"/>
<path d="M256 382.197C264.534 382.197 271.453 375.279 271.453 366.745C271.453 358.21 264.534 351.292 256 351.292C247.466 351.292 240.547 358.21 240.547 366.745C240.547 375.279 247.466 382.197 256 382.197Z" fill="white"/>
<path d="M415.678 500.668H96.3221C92.0551 500.668 88.5957 497.21 88.5957 492.942C88.5957 488.674 92.0551 485.215 96.3221 485.215H415.678C419.945 485.215 423.405 488.674 423.405 492.942C423.405 497.21 419.945 500.668 415.678 500.668Z" fill="#134F62"/>
</svg>
