<svg width="54" height="54" viewBox="0 0 54 54" fill="none" xmlns="http://www.w3.org/2000/svg">
<g clip-path="url(#clip0)">
<path d="M43.0148 3.49438H11.1086C9.79021 3.49438 8.72144 4.56315 8.72144 5.88155V50.4168C8.72144 51.7352 9.79021 52.804 11.1086 52.804H43.0148C44.3332 52.804 45.402 51.7352 45.402 50.4168V28.1492V5.88155C45.402 4.56315 44.3332 3.49438 43.0148 3.49438Z" fill="#124E61"/>
<path d="M45.4004 5.8801V50.4182C45.4007 51.0448 45.1544 51.6463 44.7147 52.0927C44.2751 52.5391 43.6775 52.7946 43.051 52.804C43.063 52.7345 43.0679 52.6641 43.0655 52.5937V8.05552C43.0659 7.74212 43.0044 7.43172 42.8846 7.1421C42.7649 6.85248 42.5892 6.58933 42.3676 6.36772C42.146 6.14611 41.8828 5.97039 41.5932 5.85063C41.3036 5.73088 40.9932 5.66943 40.6798 5.66981H8.7373C8.78801 5.07602 9.05985 4.52291 9.499 4.12003C9.93814 3.71715 10.5126 3.49386 11.1085 3.49439H43.0147C43.3281 3.494 43.6385 3.55545 43.9281 3.67521C44.2178 3.79497 44.4809 3.97068 44.7025 4.19229C44.9241 4.4139 45.0998 4.67705 45.2196 4.96668C45.3394 5.2563 45.4008 5.5667 45.4004 5.8801Z" fill="#1F7C99"/>
<path d="M22.0351 40.454L24.7261 41.6454V44.2697C24.7249 44.8463 24.4954 45.399 24.0876 45.8067C23.6799 46.2144 23.1273 46.444 22.5506 46.4451H15.7423C15.2492 46.4438 14.7767 46.2473 14.4281 45.8986C14.0794 45.55 13.8829 45.0775 13.8816 44.5844V36.8457L17.1817 38.3047" fill="#E1E6E9"/>
<path d="M22.5499 46.8078H15.7431C15.1536 46.807 14.5886 46.5725 14.1718 46.1557C13.755 45.7389 13.5205 45.1739 13.5198 44.5845V36.8458C13.5198 36.7856 13.5348 36.7264 13.5635 36.6734C13.5921 36.6205 13.6335 36.5755 13.6838 36.5426C13.7342 36.5096 13.792 36.4897 13.8519 36.4847C13.9119 36.4796 13.9722 36.4896 14.0274 36.5137L17.3275 37.9726C17.4105 38.0143 17.4744 38.0862 17.5059 38.1735C17.5375 38.2608 17.5344 38.3569 17.4972 38.442C17.46 38.5271 17.3916 38.5946 17.306 38.6308C17.2205 38.6669 17.1244 38.6688 17.0374 38.6362L14.2464 37.4034V44.5823C14.2467 44.9795 14.4047 45.3604 14.6856 45.6412C14.9665 45.9221 15.3473 46.0801 15.7445 46.0804H22.5521C23.0329 46.0804 23.494 45.8894 23.834 45.5495C24.174 45.2095 24.365 44.7484 24.365 44.2676V41.8819L21.8893 40.7855C21.8426 40.7687 21.7998 40.7425 21.7636 40.7084C21.7273 40.6744 21.6985 40.6333 21.6789 40.5877C21.6592 40.5421 21.6491 40.4929 21.6493 40.4432C21.6494 40.3935 21.6598 40.3444 21.6797 40.2989C21.6996 40.2533 21.7287 40.2124 21.7651 40.1786C21.8015 40.1448 21.8444 40.1188 21.8913 40.1023C21.9382 40.0858 21.9879 40.079 22.0375 40.0826C22.087 40.0861 22.1353 40.0997 22.1794 40.1227L24.8711 41.3148C24.9356 41.343 24.9906 41.3893 25.0292 41.4482C25.0678 41.507 25.0885 41.5758 25.0887 41.6462V44.2705C25.0886 44.6038 25.0228 44.9338 24.8952 45.2417C24.7676 45.5496 24.5805 45.8293 24.3448 46.0649C24.109 46.3005 23.8292 46.4874 23.5213 46.6148C23.2133 46.7423 22.8832 46.8079 22.5499 46.8078Z" fill="#323C6B"/>
<path d="M21.0792 32.4275C18.3898 30.9665 16.3266 28.5735 15.2775 25.6982C14.2284 22.823 14.2656 19.6635 15.3822 16.8138C16.4988 13.9641 18.6178 11.6204 21.341 10.2232C24.0641 8.82605 27.2038 8.47165 30.1699 9.22665C33.136 9.98165 35.7242 11.7941 37.4479 14.3232C39.1716 16.8523 39.9122 19.9239 39.5304 22.9606C39.1486 25.9974 37.6708 28.7901 35.3747 30.8139C33.0785 32.8376 30.1223 33.9529 27.0617 33.9503C25.8315 33.9429 24.6085 33.7622 23.4287 33.4137" fill="#EEEFEE"/>
<path d="M27.0616 34.3129C25.7965 34.305 24.5389 34.1192 23.3256 33.761C23.2334 33.7336 23.1559 33.6707 23.11 33.5861C23.0642 33.5015 23.0539 33.4022 23.0813 33.31C23.1087 33.2178 23.1716 33.1402 23.2562 33.0944C23.3408 33.0486 23.4401 33.0382 23.5323 33.0656C24.6784 33.4044 25.8665 33.5801 27.0616 33.5877C30.0415 33.5921 32.9204 32.5077 35.1568 30.5384C37.3933 28.569 38.8333 25.8505 39.2059 22.8939C39.5786 19.9374 38.8582 16.9466 37.1804 14.4838C35.5026 12.0211 32.9828 10.2562 30.095 9.52105C27.2072 8.78585 24.1503 9.131 21.4991 10.4916C18.8479 11.8522 16.7851 14.1345 15.6986 16.9093C14.6122 19.6841 14.5769 22.7603 15.5994 25.5593C16.6219 28.3583 18.6317 30.6874 21.251 32.1084C21.2929 32.1311 21.3299 32.1617 21.36 32.1986C21.3901 32.2356 21.4125 32.278 21.4262 32.3237C21.4398 32.3693 21.4443 32.4171 21.4395 32.4645C21.4346 32.5119 21.4205 32.5578 21.3978 32.5997C21.3752 32.6416 21.3446 32.6787 21.3077 32.7087C21.2707 32.7388 21.2282 32.7613 21.1826 32.7749C21.137 32.7885 21.0891 32.793 21.0418 32.7882C20.9944 32.7833 20.9485 32.7692 20.9066 32.7466C18.1393 31.2436 16.0164 28.7816 14.9367 25.8234C13.8571 22.8652 13.8952 19.6145 15.0438 16.6824C16.1925 13.7503 18.3725 11.3388 21.1742 9.90105C23.9759 8.46334 27.2063 8.09849 30.2581 8.8751C33.3099 9.65171 35.9729 11.5163 37.7466 14.1183C39.5203 16.7204 40.2824 19.8807 39.8898 23.0051C39.4972 26.1296 37.9768 29.0031 35.6145 31.0854C33.2522 33.1677 30.2106 34.3155 27.0616 34.3129Z" fill="#323C6B"/>
<path d="M27.0617 23.7228C28.3549 23.7228 29.4032 22.6744 29.4032 21.3813C29.4032 20.0881 28.3549 19.0398 27.0617 19.0398C25.7685 19.0398 24.7202 20.0881 24.7202 21.3813C24.7202 22.6744 25.7685 23.7228 27.0617 23.7228Z" fill="#707583"/>
<path d="M27.0617 24.0883C26.5269 24.0883 26.0041 23.9297 25.5594 23.6326C25.1148 23.3354 24.7682 22.9131 24.5635 22.419C24.3588 21.9249 24.3053 21.3812 24.4096 20.8567C24.514 20.3322 24.7715 19.8503 25.1497 19.4722C25.5278 19.094 26.0097 18.8365 26.5342 18.7321C27.0587 18.6278 27.6024 18.6813 28.0965 18.886C28.5906 19.0907 29.0129 19.4373 29.3101 19.8819C29.6072 20.3266 29.7658 20.8494 29.7658 21.3842C29.765 22.1012 29.4799 22.7885 28.9729 23.2954C28.466 23.8024 27.7786 24.0875 27.0617 24.0883ZM27.0617 19.4053C26.6703 19.4053 26.2877 19.5214 25.9623 19.7388C25.6369 19.9563 25.3832 20.2653 25.2334 20.6269C25.0837 20.9885 25.0445 21.3864 25.1208 21.7703C25.1972 22.1542 25.3857 22.5068 25.6624 22.7835C25.9392 23.0603 26.2918 23.2488 26.6757 23.3251C27.0595 23.4015 27.4574 23.3623 27.819 23.2125C28.1806 23.0627 28.4897 22.8091 28.7071 22.4837C28.9246 22.1582 29.0406 21.7756 29.0406 21.3842C29.0408 20.8591 28.8325 20.3553 28.4614 19.9837C28.0903 19.6121 27.5869 19.403 27.0617 19.4024V19.4053Z" fill="#323C6B"/>
<path d="M24.7259 26.9048L16.4332 39.457C16.193 39.8204 16.0362 40.2325 15.9742 40.6637C15.9121 41.0949 15.9464 41.5345 16.0744 41.9508C16.2025 42.3672 16.4211 42.7501 16.7148 43.0719C17.0084 43.3938 17.3696 43.6466 17.7726 43.8122C18.1754 43.9779 18.6099 44.0525 19.0449 44.0303C19.48 44.0082 19.9047 43.8901 20.2887 43.6843C20.6726 43.4785 21.0062 43.1903 21.2655 42.8403C21.5248 42.4903 21.7034 42.0872 21.7884 41.6599L24.7259 26.9048Z" fill="#FCD462"/>
<path d="M18.895 44.3965C18.2965 44.3965 17.7091 44.2344 17.1953 43.9273C16.6815 43.6203 16.2605 43.1798 15.977 42.6526C15.6935 42.1255 15.5581 41.5314 15.5852 40.9334C15.6123 40.3355 15.8008 39.7561 16.1308 39.2567L24.4235 26.7052C24.47 26.6354 24.5392 26.5838 24.6194 26.5593C24.6995 26.5348 24.7858 26.5388 24.8633 26.5707C24.9409 26.6026 25.005 26.6604 25.0447 26.7342C25.0844 26.8081 25.0973 26.8934 25.0812 26.9757L22.1437 41.7301C21.9937 42.4815 21.5883 43.1577 20.9962 43.6439C20.4041 44.1301 19.6619 44.3963 18.8958 44.3972L18.895 44.3965ZM24.0095 28.6472L16.7356 39.6562C16.5249 39.975 16.3874 40.3365 16.3331 40.7148C16.2787 41.093 16.3087 41.4786 16.421 41.8438C16.5334 42.209 16.7252 42.5449 16.9827 42.8272C17.2402 43.1095 17.557 43.3313 17.9104 43.4766C18.2638 43.6219 18.645 43.6872 19.0267 43.6677C19.4083 43.6483 19.7808 43.5445 20.1176 43.364C20.4544 43.1834 20.747 42.9305 20.9744 42.6235C21.2019 42.3164 21.3585 41.9628 21.433 41.588L24.0095 28.6472Z" fill="#323C6B"/>
<path d="M18.8291 41.9253C19.3794 41.9253 19.8254 41.4792 19.8254 40.929C19.8254 40.3787 19.3794 39.9326 18.8291 39.9326C18.2788 39.9326 17.8328 40.3787 17.8328 40.929C17.8328 41.4792 18.2788 41.9253 18.8291 41.9253Z" fill="#323C6B"/>
<path d="M28.3909 41.1567H40.6124V46.4459H28.3909V41.1567Z" fill="#E1E6E9"/>
<path d="M40.6131 46.8078H28.3909C28.2947 46.8078 28.2025 46.7696 28.1345 46.7016C28.0665 46.6336 28.0283 46.5414 28.0283 46.4452V41.1568C28.0283 41.0606 28.0665 40.9684 28.1345 40.9004C28.2025 40.8324 28.2947 40.7942 28.3909 40.7942H40.6131C40.7093 40.7942 40.8015 40.8324 40.8695 40.9004C40.9375 40.9684 40.9757 41.0606 40.9757 41.1568V46.4452C40.9757 46.5414 40.9375 46.6336 40.8695 46.7016C40.8015 46.7696 40.7093 46.8078 40.6131 46.8078ZM28.7542 46.0826H40.2505V41.5193H28.7535L28.7542 46.0826Z" fill="#323C6B"/>
<path d="M13.0948 7.18022H12.2493C12.1531 7.18022 12.0609 7.14202 11.9929 7.07402C11.9249 7.00603 11.8867 6.91381 11.8867 6.81765C11.8867 6.72149 11.9249 6.62927 11.9929 6.56127C12.0609 6.49328 12.1531 6.45508 12.2493 6.45508H13.0948C13.191 6.45508 13.2832 6.49328 13.3512 6.56127C13.4192 6.62927 13.4574 6.72149 13.4574 6.81765C13.4574 6.91381 13.4192 7.00603 13.3512 7.07402C13.2832 7.14202 13.191 7.18022 13.0948 7.18022Z" fill="#323C6B"/>
<path d="M13.0948 49.8431H12.2493C12.1531 49.8431 12.0609 49.8049 11.9929 49.7369C11.9249 49.6689 11.8867 49.5766 11.8867 49.4805C11.8867 49.3843 11.9249 49.2921 11.9929 49.2241C12.0609 49.1561 12.1531 49.1179 12.2493 49.1179H13.0948C13.191 49.1179 13.2832 49.1561 13.3512 49.2241C13.4192 49.2921 13.4574 49.3843 13.4574 49.4805C13.4574 49.5766 13.4192 49.6689 13.3512 49.7369C13.2832 49.8049 13.191 49.8431 13.0948 49.8431Z" fill="#323C6B"/>
<path d="M41.8741 7.18022H41.0286C40.9324 7.18022 40.8402 7.14202 40.7722 7.07402C40.7042 7.00603 40.666 6.91381 40.666 6.81765C40.666 6.72149 40.7042 6.62927 40.7722 6.56127C40.8402 6.49328 40.9324 6.45508 41.0286 6.45508H41.8741C41.9703 6.45508 42.0625 6.49328 42.1305 6.56127C42.1985 6.62927 42.2367 6.72149 42.2367 6.81765C42.2367 6.91381 42.1985 7.00603 42.1305 7.07402C42.0625 7.14202 41.9703 7.18022 41.8741 7.18022Z" fill="#323C6B"/>
<path d="M41.8741 49.8431H41.0286C40.9324 49.8431 40.8402 49.8049 40.7722 49.7369C40.7042 49.6689 40.666 49.5766 40.666 49.4805C40.666 49.3843 40.7042 49.2921 40.7722 49.2241C40.8402 49.1561 40.9324 49.1179 41.0286 49.1179H41.8741C41.9703 49.1179 42.0625 49.1561 42.1305 49.2241C42.1985 49.2921 42.2367 49.3843 42.2367 49.4805C42.2367 49.5766 42.1985 49.6689 42.1305 49.7369C42.0625 49.8049 41.9703 49.8431 41.8741 49.8431Z" fill="#323C6B"/>
<path d="M6.54592 9.5854C6.44976 9.5854 6.35754 9.5472 6.28954 9.4792C6.22155 9.41121 6.18335 9.31899 6.18335 9.22283V8.75149C6.18335 8.65533 6.22155 8.56311 6.28954 8.49511C6.35754 8.42711 6.44976 8.38892 6.54592 8.38892C6.64208 8.38892 6.7343 8.42711 6.8023 8.49511C6.87029 8.56311 6.90849 8.65533 6.90849 8.75149V9.22283C6.90849 9.31899 6.87029 9.41121 6.8023 9.4792C6.7343 9.5472 6.64208 9.5854 6.54592 9.5854Z" fill="#323C6B"/>
<path d="M6.54592 7.18018C6.44976 7.18018 6.35754 7.14198 6.28954 7.07399C6.22155 7.00599 6.18335 6.91377 6.18335 6.81761V5.88145C6.18488 4.57569 6.70428 3.32385 7.62759 2.40054C8.5509 1.47723 9.80274 0.957834 11.1085 0.956299C11.2047 0.956299 11.2969 0.994498 11.3649 1.06249C11.4329 1.13049 11.4711 1.22271 11.4711 1.31887C11.4711 1.41503 11.4329 1.50725 11.3649 1.57525C11.2969 1.64324 11.2047 1.68144 11.1085 1.68144C9.99506 1.68297 8.92766 2.12597 8.14034 2.91329C7.35302 3.70061 6.91002 4.76801 6.90849 5.88145V6.81761C6.90849 6.91377 6.87029 7.00599 6.8023 7.07399C6.7343 7.14198 6.64208 7.18018 6.54592 7.18018Z" fill="#323C6B"/>
<path d="M47.5774 34.1676C47.4813 34.1676 47.389 34.1294 47.321 34.0614C47.253 33.9934 47.2148 33.9012 47.2148 33.805V33.3518C47.2148 33.2557 47.253 33.1634 47.321 33.0955C47.389 33.0275 47.4813 32.9893 47.5774 32.9893C47.6736 32.9893 47.7658 33.0275 47.8338 33.0955C47.9018 33.1634 47.94 33.2557 47.94 33.3518V33.805C47.94 33.9012 47.9018 33.9934 47.8338 34.0614C47.7658 34.1294 47.6736 34.1676 47.5774 34.1676Z" fill="#323C6B"/>
<path d="M47.5774 44.2835C47.4813 44.2835 47.389 44.2453 47.321 44.1773C47.253 44.1094 47.2148 44.0171 47.2148 43.921V35.8538C47.2148 35.7576 47.253 35.6654 47.321 35.5974C47.389 35.5294 47.4813 35.4912 47.5774 35.4912C47.6736 35.4912 47.7658 35.5294 47.8338 35.5974C47.9018 35.6654 47.94 35.7576 47.94 35.8538V43.921C47.94 44.0171 47.9018 44.1094 47.8338 44.1773C47.7658 44.2453 47.6736 44.2835 47.5774 44.2835Z" fill="#323C6B"/>
<path d="M43.0146 53.1663H11.1084C10.3796 53.1648 9.68106 52.8746 9.16571 52.3592C8.65037 51.8439 8.36018 51.1454 8.35864 50.4166V5.88133C8.36018 5.15252 8.65037 4.45401 9.16571 3.93866C9.68106 3.42332 10.3796 3.13312 11.1084 3.13159H43.0146C43.7434 3.13312 44.4419 3.42332 44.9572 3.93866C45.4726 4.45401 45.7628 5.15252 45.7643 5.88133V50.4166C45.7628 51.1454 45.4726 51.8439 44.9572 52.3592C44.4419 52.8746 43.7434 53.1648 43.0146 53.1663ZM11.1084 3.85673C10.5719 3.85826 10.0578 4.07206 9.67846 4.45141C9.29911 4.83077 9.08531 5.34484 9.08378 5.88133V50.4166C9.08531 50.9531 9.29911 51.4671 9.67846 51.8465C10.0578 52.2258 10.5719 52.4396 11.1084 52.4412H43.0146C43.5511 52.4396 44.0651 52.2258 44.4445 51.8465C44.8238 51.4671 45.0376 50.9531 45.0392 50.4166V5.88133C45.0376 5.34484 44.8238 4.83077 44.4445 4.45141C44.0651 4.07206 43.5511 3.85826 43.0146 3.85673H11.1084Z" fill="#323C6B"/>
<path d="M22.1445 50.4349H21.6913C21.6294 50.4349 21.5681 50.4227 21.5109 50.399C21.4538 50.3753 21.4018 50.3406 21.358 50.2968C21.3143 50.253 21.2795 50.2011 21.2558 50.1439C21.2322 50.0867 21.22 50.0254 21.22 49.9635C21.22 49.9016 21.2322 49.8403 21.2558 49.7832C21.2795 49.726 21.3143 49.674 21.358 49.6302C21.4018 49.5865 21.4538 49.5518 21.5109 49.5281C21.5681 49.5044 21.6294 49.4922 21.6913 49.4922H22.1445C22.2064 49.4922 22.2677 49.5044 22.3249 49.5281C22.3821 49.5518 22.4341 49.5865 22.4778 49.6302C22.5216 49.674 22.5563 49.726 22.58 49.7832C22.6037 49.8403 22.6159 49.9016 22.6159 49.9635C22.6159 50.0254 22.6037 50.0867 22.58 50.1439C22.5563 50.2011 22.5216 50.253 22.4778 50.2968C22.4341 50.3406 22.3821 50.3753 22.3249 50.399C22.2677 50.4227 22.2064 50.4349 22.1445 50.4349Z" fill="white"/>
<path d="M31.6395 50.4349H24.1916C24.1297 50.4349 24.0684 50.4227 24.0112 50.399C23.954 50.3753 23.902 50.3406 23.8583 50.2968C23.8145 50.253 23.7798 50.2011 23.7561 50.1439C23.7324 50.0867 23.7202 50.0254 23.7202 49.9635C23.7202 49.9016 23.7324 49.8403 23.7561 49.7832C23.7798 49.726 23.8145 49.674 23.8583 49.6302C23.902 49.5865 23.954 49.5518 24.0112 49.5281C24.0684 49.5044 24.1297 49.4922 24.1916 49.4922H31.6395C31.7014 49.4922 31.7627 49.5044 31.8198 49.5281C31.877 49.5518 31.929 49.5865 31.9728 49.6302C32.0165 49.674 32.0512 49.726 32.0749 49.7832C32.0986 49.8403 32.1108 49.9016 32.1108 49.9635C32.1108 50.0254 32.0986 50.0867 32.0749 50.1439C32.0512 50.2011 32.0165 50.253 31.9728 50.2968C31.929 50.3406 31.877 50.3753 31.8198 50.399C31.7627 50.4227 31.7014 50.4349 31.6395 50.4349Z" fill="white"/>
</g>
<defs>
<clipPath id="clip0">
<rect width="53.6604" height="53.6604" fill="white" transform="translate(0.231445 0.231201)"/>
</clipPath>
</defs>
</svg>
