<svg width="513" height="513" viewBox="0 0 513 513" fill="none" xmlns="http://www.w3.org/2000/svg">
<g clip-path="url(#clip0)">
<path d="M29.3299 330.806L49.5588 325.674V253.425C49.5588 236.294 51.9928 219.722 58.0998 198.936L22.2869 188.637C15.2379 212.696 12.2979 232.723 12.2979 253.426V339.699C17.0519 335.574 22.8109 332.46 29.3299 330.806Z" fill="#134F62"/>
<path d="M481.41 330.806L461.181 325.674V253.425C461.181 236.294 458.747 219.722 452.64 198.936L488.453 188.637C495.502 212.696 498.442 232.723 498.442 253.426V339.699C493.687 335.574 487.928 332.46 481.41 330.806Z" fill="#134F62"/>
<path d="M67.3868 487.689L99.0898 481.255L65.0978 313.77L33.3948 320.204C10.8378 324.782 -3.73717 346.779 0.840825 369.336L18.2538 455.135C22.8328 477.693 44.8298 492.267 67.3868 487.689Z" fill="#4AB8B8"/>
<path d="M65.0982 313.77L33.3952 320.204C31.2252 320.644 29.1302 321.25 27.1172 321.998L60.9062 488.485C63.0512 488.389 65.2162 488.13 67.3862 487.689L99.0892 481.255L65.0982 313.77Z" fill="#CBC9C2"/>
<path d="M136.773 489.497L110.302 494.869C104.189 496.11 98.2282 492.16 96.9872 486.047L61.0502 308.977C59.8092 302.864 63.7592 296.903 69.8722 295.662L96.3432 290.29C102.456 289.049 108.417 292.999 109.658 299.112L145.595 476.182C146.836 482.295 142.886 488.257 136.773 489.497Z" fill="#134F62"/>
<path d="M444.615 487.689L412.912 481.255L446.904 313.77L478.607 320.204C501.164 324.782 515.739 346.779 511.161 369.336L493.748 455.135C489.169 477.693 467.172 492.267 444.615 487.689Z" fill="#CBC9C2"/>
<path d="M478.606 320.204L465.109 317.465C473.69 321.761 478.687 331.41 476.681 341.264L450.668 469.051C448.96 477.442 442.662 483.664 434.98 485.734L444.614 487.689C467.171 492.267 489.168 477.692 493.746 455.135L511.159 369.336C515.738 346.779 501.163 324.782 478.606 320.204Z" fill="#4AB8B8"/>
<path d="M375.229 489.497L401.7 494.869C407.813 496.11 413.774 492.16 415.015 486.047L450.952 308.977C452.193 302.864 448.243 296.903 442.13 295.662L415.659 290.29C409.546 289.049 403.585 292.999 402.344 299.112L366.407 476.182C365.166 482.295 369.116 488.257 375.229 489.497Z" fill="#134F62"/>
<path d="M446.031 206.795C440.29 208.444 434.226 205.391 432.19 199.776C409.844 138.14 350.388 95.9428 284.07 95.9428H227.93C161.631 95.9428 102.181 138.124 79.8248 199.737C77.7878 205.352 71.7228 208.404 65.9818 206.753L11.8438 191.184C5.59679 189.387 2.07079 182.725 4.18779 176.579C19.2708 132.805 47.4448 93.6568 84.4258 65.3978C125.942 33.6728 175.565 16.9038 227.929 16.9038H284.069C336.445 16.9038 386.076 33.6788 427.596 65.4158C464.582 93.6868 492.755 132.849 507.83 176.638C509.946 182.784 506.418 189.446 500.17 191.241L446.031 206.795Z" fill="#4AB8B8"/>
<path d="M289.76 57.1099H222.238C140.291 57.1099 63.7758 120.899 38.5488 198.862L65.9828 206.752C71.7228 208.403 77.7878 205.351 79.8258 199.736C102.182 138.123 161.633 95.9419 227.931 95.9419H284.071C350.389 95.9419 409.845 138.139 432.191 199.775C434.227 205.39 440.291 208.444 446.032 206.794L475.601 198.299C450.083 120.566 371.533 57.1099 289.76 57.1099Z" fill="#134F62"/>
</g>
<defs>
<clipPath id="clip0">
<rect width="512.002" height="512.002" fill="white"/>
</clipPath>
</defs>
</svg>
