<svg width="512" height="512" viewBox="0 0 512 512" fill="none" xmlns="http://www.w3.org/2000/svg">
<g clip-path="url(#clip0)">
<path d="M473.47 218.36H451.36V265.457H473.47V218.36Z" fill="#4E7693"/>
<path d="M52.763 293.381H7.59961V338.544H52.763V293.381Z" fill="#159BFF"/>
<path d="M97.9265 293.381H52.7632V338.544H97.9265V293.381Z" fill="#4AD4FF"/>
<path d="M143.091 293.381H97.9272V338.544H143.091V293.381Z" fill="#159BFF"/>
<path d="M188.254 293.381H143.091V338.544H188.254V293.381Z" fill="#4AD4FF"/>
<path d="M233.418 293.381H188.255V338.544H233.418V293.381Z" fill="#159BFF"/>
<path d="M278.582 293.381H233.418V338.544H278.582V293.381Z" fill="#4AD4FF"/>
<path d="M323.745 293.381H278.582V338.544H323.745V293.381Z" fill="#159BFF"/>
<path d="M52.763 248.217H7.59961V293.381H52.763V248.217Z" fill="#006DF0"/>
<path d="M97.9265 248.217H52.7632V293.381H97.9265V248.217Z" fill="#159BFF"/>
<path d="M143.091 248.217H97.9272V293.381H143.091V248.217Z" fill="#006DF0"/>
<path d="M188.254 248.217H143.091V293.381H188.254V248.217Z" fill="#159BFF"/>
<path d="M233.418 248.217H188.255V293.381H233.418V248.217Z" fill="#006DF0"/>
<path d="M278.582 248.217H233.418V293.381H278.582V248.217Z" fill="#159BFF"/>
<path d="M323.745 248.217H278.582V293.381H323.745V248.217Z" fill="#006DF0"/>
<path d="M368.909 248.217H323.746V293.381H368.909V248.217Z" fill="#159BFF"/>
<path d="M368.909 293.381H323.746V338.544H368.909V293.381Z" fill="#4AD4FF"/>
<path d="M52.763 338.518H7.59961V383.681H52.763V338.518Z" fill="#006DF0"/>
<path d="M97.9265 338.518H52.7632V383.681H97.9265V338.518Z" fill="#159BFF"/>
<path d="M143.091 338.518H97.9272V383.681H143.091V338.518Z" fill="#006DF0"/>
<path d="M188.254 338.518H143.091V383.681H188.254V338.518Z" fill="#159BFF"/>
<path d="M233.418 338.518H188.255V383.681H233.418V338.518Z" fill="#006DF0"/>
<path d="M278.582 338.518H233.418V383.681H278.582V338.518Z" fill="#159BFF"/>
<path d="M323.745 338.518H278.582V383.681H323.745V338.518Z" fill="#006DF0"/>
<path d="M368.909 293.381V338.518H323.746V383.681H414.073V293.381H368.909Z" fill="#E3E3E3"/>
<path d="M52.763 383.655H7.59961V428.818H52.763V383.655Z" fill="#159BFF"/>
<path d="M97.9265 383.655H52.7632V428.818H97.9265V383.655Z" fill="#4AD4FF"/>
<path d="M459.236 293.381H414.073V338.544H459.236V293.381Z" fill="#4AD4FF"/>
<path d="M504.401 293.381H459.237V338.544H504.401V293.381Z" fill="#006DF0"/>
<path d="M459.236 338.518H414.073V383.681H459.236V338.518Z" fill="#006DF0"/>
<path d="M504.401 338.518H459.237V383.681H504.401V338.518Z" fill="#159BFF"/>
<path d="M459.236 383.655H414.073V428.818H459.236V383.655Z" fill="#159BFF"/>
<path d="M504.401 383.655H459.237V428.818H504.401V383.655Z" fill="#006DF0"/>
<path d="M278.583 383.655H97.9272V428.819H278.583V383.655Z" fill="#E3E3E3"/>
<path d="M323.745 383.655H278.582V428.818H323.745V383.655Z" fill="#4AD4FF"/>
<path d="M368.909 383.655H323.746V428.818H368.909V383.655Z" fill="#159BFF"/>
<path d="M414.073 383.655H368.91V428.818H414.073V383.655Z" fill="#4AD4FF"/>
<path d="M504.406 248.217H368.912V293.379H504.406V248.217Z" fill="#AAAAAA"/>
<path d="M482.539 248.217L437.368 293.378H418.268L463.429 248.217H482.539Z" fill="#C8C8C8"/>
<path d="M453.823 248.217L408.662 293.378H389.552L434.713 248.217H453.823Z" fill="#C8C8C8"/>
<path d="M75.3447 83.1821H46.2559V123.17H75.3447V83.1821Z" fill="#E3E3E3"/>
<path d="M504.401 240.617H481.069V218.361C481.069 214.163 477.666 210.762 473.47 210.762H470.014V208.982C470.014 197.008 460.273 187.267 448.299 187.267H73.2238C70.3664 187.267 68.0409 184.941 68.0409 182.084C68.0409 179.227 70.3653 176.902 73.2238 176.902H378.709C389.947 176.902 399.091 167.759 399.091 156.52V155.207C399.091 143.968 389.948 134.825 378.709 134.825H73.2238C70.7544 134.825 68.6894 133.085 68.1726 130.769H75.3445C79.5415 130.769 82.9441 127.368 82.9441 123.17V83.182C82.9441 78.9841 79.5415 75.5825 75.3445 75.5825H46.2557C42.0587 75.5825 38.6562 78.9841 38.6562 83.182V123.17C38.6562 127.368 42.0587 130.769 46.2557 130.769H52.8986C53.4894 141.482 62.3656 150.024 73.2228 150.024H378.709C381.566 150.024 383.892 152.35 383.892 155.207V156.52C383.892 159.378 381.567 161.703 378.709 161.703H73.2238C61.9856 161.703 52.8419 170.846 52.8419 182.084C52.8419 193.323 61.9846 202.466 73.2238 202.466H448.3C451.893 202.466 454.816 205.389 454.816 208.982V210.762H451.36C447.163 210.762 443.761 214.163 443.761 218.361V240.617H425.646C421.449 240.617 418.047 244.019 418.047 248.217C418.047 252.415 421.449 255.816 425.646 255.816H496.802V285.781H376.509V255.816H391.015C395.212 255.816 398.614 252.415 398.614 248.217C398.614 244.019 395.212 240.617 391.015 240.617H7.59951C3.40255 240.617 0 244.019 0 248.217V298.468C0 302.666 3.40255 306.067 7.59951 306.067C10.9149 306.067 13.7267 303.941 14.7653 300.98H45.1644V330.919H14.8778C13.9405 327.785 11.0385 325.499 7.59951 325.499C3.40255 325.499 0 328.9 0 333.098V428.819C0 433.017 3.40255 436.418 7.59951 436.418H212.68C216.877 436.418 220.279 433.017 220.279 428.819C220.279 424.621 216.877 421.219 212.68 421.219H105.527V391.255H142.562C142.737 391.267 142.912 391.281 143.092 391.281C143.271 391.281 143.445 391.267 143.622 391.255H187.726C187.901 391.267 188.077 391.281 188.256 391.281C188.435 391.281 188.61 391.267 188.786 391.255H232.89C233.066 391.267 233.241 391.281 233.42 391.281C233.6 391.281 233.774 391.267 233.95 391.255H270.985V421.219H247.313C243.116 421.219 239.714 424.621 239.714 428.819C239.714 433.017 243.116 436.418 247.313 436.418H504.404C508.601 436.418 512.003 433.017 512.003 428.819V248.217C512 244.019 508.597 240.617 504.401 240.617ZM53.8552 90.7815H67.745V115.57H53.8552V90.7815ZM458.96 225.961H465.871V240.617H458.96V225.961ZM376.509 391.255H406.473V421.219H376.509V391.255ZM361.31 421.219H331.346V391.255H361.31V421.219ZM421.672 391.255H451.637V421.219H421.672V391.255ZM421.672 376.056V346.118H451.637V376.056H421.672ZM421.672 300.98H451.637V330.919H421.672V300.98ZM466.837 346.118H496.802V376.056H466.837V346.118ZM496.801 330.919H466.836V300.98H496.801V330.919ZM406.473 300.98V376.056H331.345V346.118H368.379C368.555 346.13 368.73 346.144 368.909 346.144C373.106 346.144 376.509 342.743 376.509 338.545V300.98H406.473V300.98ZM105.527 255.816H135.492V285.781H105.527V255.816V255.816ZM90.3277 285.781H60.3624V255.816H90.3267V285.781H90.3277ZM270.982 285.781H241.018V255.816H270.982V285.781ZM286.181 255.816H316.147V285.781H286.181V255.816ZM225.819 285.781H195.854V255.816H225.819V285.781ZM180.655 285.781H150.691V255.816H180.655V285.781ZM135.491 300.98V330.919H105.526V300.98H135.491ZM150.69 300.98H180.654V330.919H150.69V300.98ZM180.655 346.118V376.056H150.691V346.118H180.655ZM195.854 346.118H225.819V376.056H195.854V346.118ZM195.854 330.919V300.98H225.819V330.919H195.854ZM241.018 300.98H270.982V330.919H241.018V300.98V300.98ZM286.181 300.98H316.147V330.919H286.181V300.98ZM361.31 330.919H331.346V300.98H361.31V330.919ZM316.147 346.118V376.056H286.181V346.118H316.147ZM361.31 285.781H331.346V255.816H361.31V285.781ZM15.199 285.781V255.816H45.1634V285.781H15.199ZM60.3624 300.98H90.3267V330.919H60.3624V300.98ZM90.3277 346.118V376.056H60.3624V346.118H90.3277ZM45.1634 376.056H15.199V346.118H45.1634V376.056ZM15.199 391.255H45.1634V421.219H15.199V391.255ZM90.3277 421.219H60.3624V391.255H90.3267V421.219H90.3277ZM105.527 346.118H135.492V376.056H105.527V346.118V346.118ZM241.018 376.056V346.118H270.982V376.056H241.018ZM286.181 391.255H316.147V421.219H286.181V391.255ZM466.837 421.219V391.255H496.802V421.219H466.837Z" fill="#134F62"/>
</g>
<defs>
<clipPath id="clip0">
<rect width="512" height="512" fill="white"/>
</clipPath>
</defs>
</svg>
