<svg width="63" height="63" viewBox="0 0 63 63" fill="none" xmlns="http://www.w3.org/2000/svg">
<path d="M55.4949 48.0905V12.761C55.4949 12.3495 55.4138 11.9421 55.2564 11.5619C55.0989 11.1818 54.8681 10.8364 54.5772 10.5454C54.2862 10.2545 53.9408 10.0237 53.5606 9.86619C53.1805 9.70873 52.7731 9.62769 52.3616 9.62769H10.51C10.0985 9.62769 9.69108 9.70873 9.31094 9.86619C8.93079 10.0237 8.58538 10.2545 8.29443 10.5454C8.00347 10.8364 7.77268 11.1818 7.61522 11.5619C7.45775 11.9421 7.37671 12.3495 7.37671 12.761V48.0905H55.4949Z" fill="#E1E6E9"/>
<path d="M53.5286 14.8013V44.9284H55.4932V12.7608C55.4933 12.35 55.4125 11.9431 55.2553 11.5635C55.0981 11.184 54.8677 10.8391 54.5772 10.5486C54.2867 10.2581 53.9418 10.0276 53.5622 9.87047C53.1827 9.7133 52.7758 9.63246 52.365 9.63257H10.5092C9.83937 9.63136 9.18689 9.84542 8.64795 10.2432C8.10902 10.6409 7.71215 11.2013 7.51587 11.8417C7.84558 11.7223 8.19388 11.6623 8.54456 11.6647H50.3919C50.8039 11.6645 51.2118 11.7456 51.5924 11.9032C51.973 12.0608 52.3188 12.2918 52.6101 12.5831C52.9014 12.8744 53.1325 13.2202 53.29 13.6008C53.4476 13.9814 53.5287 14.3894 53.5286 14.8013Z" fill="#D5D6DB"/>
<path d="M11.6982 13.9521H51.1737V41.8886H11.6982V13.9521Z" fill="#124E61"/>
<path d="M4.8464 15.4962C4.73458 15.4962 4.62735 15.4518 4.54829 15.3727C4.46922 15.2937 4.4248 15.1864 4.4248 15.0746V14.5063C4.4248 14.3945 4.46922 14.2873 4.54829 14.2082C4.62735 14.1291 4.73458 14.0847 4.8464 14.0847C4.95821 14.0847 5.06545 14.1291 5.14451 14.2082C5.22357 14.2873 5.26799 14.3945 5.26799 14.5063V15.0746C5.26799 15.1864 5.22357 15.2937 5.14451 15.3727C5.06545 15.4518 4.95821 15.4962 4.8464 15.4962Z" fill="#323C6B"/>
<path d="M4.84635 13.1859C4.73454 13.1859 4.62731 13.1415 4.54824 13.0624C4.46918 12.9834 4.42476 12.8761 4.42476 12.7643V12.6092C4.42352 12.5904 4.42352 12.5715 4.42476 12.5527C4.4862 11.0758 5.07919 9.67094 6.09452 8.59673C7.10985 7.52252 8.47913 6.85136 9.95016 6.70686C10.062 6.69657 10.1733 6.73113 10.2596 6.80292C10.346 6.87471 10.4003 6.97785 10.4105 7.08967C10.4208 7.20148 10.3863 7.3128 10.3145 7.39914C10.2427 7.48548 10.1396 7.53976 10.0277 7.55005C8.7301 7.67812 7.5258 8.28197 6.64693 9.24522C5.76807 10.2085 5.27685 11.4629 5.26795 12.7668C5.26728 12.8782 5.22257 12.9848 5.14357 13.0633C5.06458 13.1418 4.95773 13.1859 4.84635 13.1859Z" fill="#323C6B"/>
<path d="M58.0246 21.3893C57.9128 21.3893 57.8056 21.3449 57.7265 21.2658C57.6474 21.1868 57.603 21.0795 57.603 20.9677V20.5107C57.603 20.3989 57.6474 20.2917 57.7265 20.2126C57.8056 20.1335 57.9128 20.0891 58.0246 20.0891C58.1364 20.0891 58.2437 20.1335 58.3227 20.2126C58.4018 20.2917 58.4462 20.3989 58.4462 20.5107V20.9677C58.4462 21.0795 58.4018 21.1868 58.3227 21.2658C58.2437 21.3449 58.1364 21.3893 58.0246 21.3893Z" fill="#323C6B"/>
<path d="M58.0246 30.278C57.9128 30.278 57.8056 30.2336 57.7265 30.1545C57.6474 30.0755 57.603 29.9682 57.603 29.8564V22.6193C57.603 22.5075 57.6474 22.4003 57.7265 22.3212C57.8056 22.2422 57.9128 22.1978 58.0246 22.1978C58.1364 22.1978 58.2437 22.2422 58.3227 22.3212C58.4018 22.4003 58.4462 22.5075 58.4462 22.6193V29.8564C58.4462 29.9682 58.4018 30.0755 58.3227 30.1545C58.2437 30.2336 58.1364 30.278 58.0246 30.278Z" fill="#323C6B"/>
<path d="M55.4951 48.5121H7.37692C7.2651 48.5121 7.15787 48.4676 7.0788 48.3886C6.99974 48.3095 6.95532 48.2023 6.95532 48.0905V12.7609C6.95644 11.8185 7.33133 10.9149 7.99775 10.2485C8.66418 9.58206 9.56773 9.20717 10.5102 9.20605H52.3618C53.3043 9.20717 54.2078 9.58206 54.8742 10.2485C55.5407 10.9149 55.9155 11.8185 55.9167 12.7609V48.0905C55.9167 48.2023 55.8722 48.3095 55.7932 48.3886C55.7141 48.4676 55.6069 48.5121 55.4951 48.5121ZM7.79851 47.6689H55.0735V12.7609C55.0726 12.042 54.7866 11.3528 54.2783 10.8445C53.7699 10.3361 53.0807 10.0501 52.3618 10.0492H10.5102C9.79129 10.0501 9.10208 10.3361 8.59373 10.8445C8.08538 11.3528 7.7994 12.042 7.79851 12.7609V47.6689Z" fill="#323C6B"/>
<path d="M60.1055 44.9631C60.1053 47.1593 59.2328 49.2655 57.6798 50.8184C56.1269 52.3713 54.0208 53.2439 51.8246 53.2441H11.0497C8.85452 53.2407 6.75018 52.3672 5.19792 50.815C3.64567 49.2627 2.77214 47.1584 2.7688 44.9631H25.2608L26.7651 47.7001H36.1093L37.6051 44.9631H60.1055Z" fill="#BBBBCD"/>
<path d="M60.1055 44.9622C60.1067 46.1763 59.8397 47.3756 59.3238 48.4746C58.8078 49.5736 58.0555 50.5451 57.1206 51.3198L57.1122 51.3282C55.6309 52.5699 53.7583 53.2478 51.8254 53.2423H11.0489C9.112 53.2478 7.23584 52.5667 5.75366 51.3198H50.9797C52.5208 51.3443 54.0229 50.8349 55.2312 49.878C56.4395 48.9212 57.2795 47.5758 57.6088 46.0701C57.6803 45.7051 57.717 45.3341 57.7184 44.9622H60.1055Z" fill="#9297AB"/>
<path d="M11.6291 49.3406C11.5182 49.3378 11.4125 49.2925 11.3341 49.214C11.2556 49.1355 11.2103 49.0299 11.2075 48.919C11.2054 48.8636 11.217 48.8086 11.2412 48.7588C11.2593 48.7062 11.2914 48.6595 11.334 48.6239C11.3917 48.5643 11.4661 48.5236 11.5473 48.5071C11.6286 48.4905 11.7129 48.4989 11.7893 48.5311C11.8419 48.5491 11.8886 48.5812 11.9242 48.6239C11.9669 48.6594 11.9987 48.7061 12.0161 48.7588C12.0404 48.8086 12.0519 48.8636 12.0499 48.919C12.0506 48.9742 12.0399 49.029 12.0182 49.0798C11.9966 49.1306 11.9646 49.1764 11.9242 49.2141C11.8886 49.2568 11.8419 49.2889 11.7893 49.3068C11.7392 49.3301 11.6844 49.3417 11.6291 49.3406Z" fill="#323C6B"/>
<path d="M14.7987 49.3406C14.7434 49.3414 14.6885 49.3305 14.6377 49.3087C14.5868 49.287 14.5412 49.2547 14.5036 49.2141C14.461 49.1784 14.4289 49.1318 14.4108 49.0792C14.3871 49.0292 14.3755 48.9743 14.3771 48.919C14.3774 48.85 14.3947 48.7821 14.4275 48.7213C14.4602 48.6605 14.5074 48.6086 14.5648 48.5703C14.6223 48.532 14.6883 48.5084 14.757 48.5016C14.8257 48.4947 14.895 48.5049 14.9589 48.5311C15.0094 48.5492 15.0555 48.5779 15.0938 48.6155C15.1337 48.6553 15.1653 48.7027 15.1868 48.7547C15.2084 48.8068 15.2195 48.8626 15.2194 48.919C15.2206 48.9743 15.2091 49.0291 15.1857 49.0792C15.1653 49.1303 15.1339 49.1764 15.0938 49.2141C15.0582 49.2568 15.0115 49.2889 14.9589 49.3069C14.9088 49.3302 14.854 49.3417 14.7987 49.3406Z" fill="#323C6B"/>
<path d="M17.97 49.3406C17.9146 49.3427 17.8596 49.3311 17.8097 49.3069C17.7545 49.2893 17.705 49.2573 17.6664 49.2141C17.6286 49.176 17.5998 49.1299 17.5821 49.0792C17.5598 49.0287 17.5483 48.9742 17.5483 48.919C17.5483 48.8638 17.5598 48.8093 17.5821 48.7588C17.6017 48.7065 17.6302 48.658 17.6664 48.6155C17.7077 48.5776 17.7566 48.5489 17.8097 48.5311C17.9124 48.489 18.0275 48.489 18.1302 48.5311C18.1808 48.549 18.2269 48.5778 18.2651 48.6155C18.3035 48.6579 18.3349 48.7063 18.3578 48.7588C18.3801 48.8093 18.3916 48.8638 18.3916 48.919C18.3916 48.9742 18.3801 49.0287 18.3578 49.0792C18.3368 49.1302 18.3051 49.1762 18.2651 49.2141C18.2296 49.257 18.1829 49.2891 18.1302 49.3069C18.0801 49.3303 18.0252 49.3418 17.97 49.3406Z" fill="#323C6B"/>
<path d="M45.8794 49.3405C45.824 49.3412 45.7692 49.3304 45.7184 49.3086C45.6675 49.2868 45.6218 49.2546 45.5842 49.214C45.5053 49.1358 45.4599 49.0299 45.4578 48.9189C45.4614 48.8056 45.5064 48.6977 45.5842 48.6153C45.644 48.559 45.7187 48.5211 45.7995 48.5062C45.8802 48.4912 45.9636 48.4998 46.0396 48.531C46.0898 48.549 46.1356 48.5778 46.1736 48.6153C46.2137 48.655 46.2456 48.7023 46.2673 48.7544C46.289 48.8065 46.3001 48.8624 46.3001 48.9189C46.3009 48.9742 46.2901 49.029 46.2683 49.0799C46.2465 49.1307 46.2142 49.1764 46.1736 49.214C46.1383 49.2566 46.0919 49.2887 46.0396 49.3067C45.9897 49.331 45.9347 49.3425 45.8794 49.3405Z" fill="#323C6B"/>
<path d="M49.0498 49.3408C48.9945 49.3415 48.9396 49.3307 48.8888 49.3089C48.8379 49.2871 48.7922 49.2549 48.7546 49.2143C48.712 49.1786 48.6799 49.132 48.6619 49.0794C48.6386 49.0293 48.627 48.9745 48.6282 48.9192C48.6261 48.8638 48.6377 48.8088 48.6619 48.759C48.6818 48.7049 48.7134 48.6559 48.7546 48.6156C48.8146 48.5596 48.8893 48.5219 48.97 48.5069C49.0507 48.492 49.1339 48.5005 49.21 48.5313C49.2605 48.5493 49.3065 48.5781 49.3449 48.6156C49.3861 48.6557 49.4176 48.7048 49.4368 48.759C49.461 48.8088 49.4726 48.8638 49.4705 48.9192C49.4717 48.9745 49.4601 49.0293 49.4368 49.0794C49.4194 49.1321 49.3875 49.1788 49.3449 49.2143C49.3093 49.257 49.2626 49.2891 49.21 49.307C49.1602 49.3313 49.1051 49.3429 49.0498 49.3408Z" fill="#323C6B"/>
<path d="M52.2192 49.3406C52.1642 49.3425 52.1094 49.331 52.0599 49.3069C52.0071 49.2891 51.9604 49.257 51.925 49.2141C51.8823 49.1784 51.8503 49.1318 51.8322 49.0792C51.8093 49.029 51.7977 48.9742 51.7985 48.919C51.7969 48.8637 51.8085 48.8088 51.8322 48.7588C51.8503 48.7062 51.8823 48.6596 51.925 48.6239C51.9829 48.5646 52.0572 48.5241 52.1384 48.5076C52.2196 48.4911 52.3038 48.4993 52.3803 48.5311C52.4329 48.5491 52.4796 48.5812 52.5152 48.6239C52.5555 48.6616 52.5875 48.7074 52.6091 48.7582C52.6308 48.809 52.6416 48.8638 52.6408 48.919C52.6419 48.9742 52.6306 49.0289 52.6079 49.0792C52.5625 49.1807 52.4811 49.2618 52.3794 49.3069C52.3293 49.3302 52.2745 49.3417 52.2192 49.3406Z" fill="#323C6B"/>
<path d="M48.5632 13.9414H51.1796V41.9706H48.5632V13.9414Z" fill="#1F7C99"/>
<path d="M51.1737 42.3146H11.6982C11.5864 42.3146 11.4792 42.2702 11.4001 42.1911C11.321 42.1121 11.2766 42.0048 11.2766 41.893V13.9524C11.2766 13.8405 11.321 13.7333 11.4001 13.6542C11.4792 13.5752 11.5864 13.5308 11.6982 13.5308H51.1737C51.2855 13.5308 51.3927 13.5752 51.4718 13.6542C51.5509 13.7333 51.5953 13.8405 51.5953 13.9524V41.893C51.5953 42.0048 51.5509 42.1121 51.4718 42.1911C51.3927 42.2702 51.2855 42.3146 51.1737 42.3146ZM12.1198 41.4714H50.7521V14.3739H12.1198V41.4714Z" fill="#323C6B"/>
<path d="M51.8246 53.6663H11.0497C8.74267 53.663 6.53109 52.745 4.89978 51.1137C3.26846 49.4824 2.35051 47.2708 2.34717 44.9638C2.34717 44.852 2.39159 44.7448 2.47065 44.6657C2.54971 44.5866 2.65695 44.5422 2.76876 44.5422H25.2608C25.3363 44.5422 25.4103 44.5625 25.4753 44.6009C25.5403 44.6393 25.5937 44.6945 25.6301 44.7606L27.0146 47.2792H35.8588L37.2349 44.7598C37.2711 44.6935 37.3246 44.6382 37.3895 44.5996C37.4545 44.561 37.5286 44.5406 37.6042 44.5405H60.1055C60.2173 44.5405 60.3245 44.5849 60.4036 44.664C60.4827 44.7431 60.5271 44.8503 60.5271 44.9621C60.5249 47.2696 59.6073 49.482 57.9758 51.1139C56.3443 52.7457 54.1321 53.6637 51.8246 53.6663ZM3.20132 45.3854C3.31283 47.3929 4.188 49.2817 5.64743 50.6646C7.10685 52.0475 9.03998 52.8198 11.0505 52.8231H51.8246C53.8353 52.8208 55.7689 52.0488 57.2284 50.6657C58.6879 49.2825 59.5626 47.3932 59.6729 45.3854H37.8546L36.4785 47.9032C36.4423 47.9694 36.3889 48.0248 36.3239 48.0633C36.2589 48.1019 36.1848 48.1223 36.1092 48.1224H26.765C26.6896 48.1224 26.6155 48.1021 26.5505 48.0637C26.4855 48.0253 26.4321 47.9701 26.3957 47.904L25.0112 45.3854H3.20132Z" fill="#323C6B"/>
<path d="M33.1868 51.1679H32.4558C32.3838 51.1679 32.3125 51.1537 32.2461 51.1262C32.1796 51.0986 32.1191 51.0583 32.0682 51.0074C32.0173 50.9565 31.977 50.8961 31.9494 50.8296C31.9219 50.7631 31.9077 50.6918 31.9077 50.6198C31.9077 50.5479 31.9219 50.4766 31.9494 50.4101C31.977 50.3436 32.0173 50.2832 32.0682 50.2323C32.1191 50.1814 32.1796 50.141 32.2461 50.1135C32.3125 50.086 32.3838 50.0718 32.4558 50.0718H33.1868C33.2588 50.0718 33.3301 50.086 33.3966 50.1135C33.4631 50.141 33.5235 50.1814 33.5744 50.2323C33.6253 50.2832 33.6657 50.3436 33.6932 50.4101C33.7207 50.4766 33.7349 50.5479 33.7349 50.6198C33.7349 50.6918 33.7207 50.7631 33.6932 50.8296C33.6657 50.8961 33.6253 50.9565 33.5744 51.0074C33.5235 51.0583 33.4631 51.0986 33.3966 51.1262C33.3301 51.1537 33.2588 51.1679 33.1868 51.1679Z" fill="white"/>
<path d="M30.0383 51.1679H22.3552C22.2832 51.1679 22.212 51.1537 22.1455 51.1262C22.079 51.0986 22.0185 51.0583 21.9677 51.0074C21.9168 50.9565 21.8764 50.8961 21.8488 50.8296C21.8213 50.7631 21.8071 50.6918 21.8071 50.6198C21.8071 50.5479 21.8213 50.4766 21.8488 50.4101C21.8764 50.3436 21.9168 50.2832 21.9677 50.2323C22.0185 50.1814 22.079 50.141 22.1455 50.1135C22.212 50.086 22.2832 50.0718 22.3552 50.0718H30.0383C30.1103 50.0718 30.1816 50.086 30.2481 50.1135C30.3145 50.141 30.375 50.1814 30.4259 50.2323C30.4768 50.2832 30.5171 50.3436 30.5447 50.4101C30.5722 50.4766 30.5864 50.5479 30.5864 50.6198C30.5864 50.6918 30.5722 50.7631 30.5447 50.8296C30.5171 50.8961 30.4768 50.9565 30.4259 51.0074C30.375 51.0583 30.3145 51.0986 30.2481 51.1262C30.1816 51.1537 30.1103 51.1679 30.0383 51.1679Z" fill="white"/>
</svg>
