<svg width="63" height="63" viewBox="0 0 63 63" fill="none" xmlns="http://www.w3.org/2000/svg">
<g clip-path="url(#clip0)">
<path d="M37.0037 3.20825H51.3387V8.1215H37.0037V3.20825Z" fill="#9297AB"/>
<path d="M51.3385 8.54306H37.0044C36.8925 8.54306 36.7853 8.49864 36.7062 8.41958C36.6272 8.34051 36.5828 8.23328 36.5828 8.12147V3.20821C36.5828 3.0964 36.6272 2.98917 36.7062 2.9101C36.7853 2.83104 36.8925 2.78662 37.0044 2.78662H51.3385C51.4504 2.78662 51.5576 2.83104 51.6367 2.9101C51.7157 2.98917 51.7601 3.0964 51.7601 3.20821V8.12147C51.7601 8.23328 51.7157 8.34051 51.6367 8.41958C51.5576 8.49864 51.4504 8.54306 51.3385 8.54306ZM37.426 7.69987H50.917V3.62981H37.426V7.69987Z" fill="#323C6B"/>
<path d="M23.9468 3.20825H27.7993V8.1215H23.9468V3.20825Z" fill="#FCD462"/>
<path d="M27.7984 8.54306H23.9467C23.8349 8.54306 23.7277 8.49864 23.6486 8.41958C23.5696 8.34051 23.5251 8.23328 23.5251 8.12147V3.20821C23.5251 3.0964 23.5696 2.98917 23.6486 2.9101C23.7277 2.83104 23.8349 2.78662 23.9467 2.78662H27.7984C27.9102 2.78662 28.0175 2.83104 28.0965 2.9101C28.1756 2.98917 28.22 3.0964 28.22 3.20821V8.12147C28.22 8.23328 28.1756 8.34051 28.0965 8.41958C28.0175 8.49864 27.9102 8.54306 27.7984 8.54306ZM24.3683 7.69987H27.3768V3.62981H24.3683V7.69987Z" fill="#323C6B"/>
<path d="M12.6499 3.20825H20.2251V8.1215H12.6499V3.20825Z" fill="#FCD462"/>
<path d="M20.2242 8.54306H12.6499C12.5381 8.54306 12.4308 8.49864 12.3518 8.41958C12.2727 8.34051 12.2283 8.23328 12.2283 8.12147V3.20821C12.2283 3.0964 12.2727 2.98917 12.3518 2.9101C12.4308 2.83104 12.5381 2.78662 12.6499 2.78662H20.2242C20.336 2.78662 20.4433 2.83104 20.5223 2.9101C20.6014 2.98917 20.6458 3.0964 20.6458 3.20821V8.12147C20.6458 8.23328 20.6014 8.34051 20.5223 8.41958C20.4433 8.49864 20.336 8.54306 20.2242 8.54306ZM13.0715 7.69987H19.8026V3.62981H13.0715V7.69987Z" fill="#323C6B"/>
<path d="M60.2198 9.45562V56.9979C60.218 57.9379 59.8438 58.8389 59.1791 59.5036C58.5144 60.1683 57.6134 60.5425 56.6734 60.5443H7.27862C6.33859 60.5425 5.43758 60.1683 4.77288 59.5036C4.10818 58.8389 3.73396 57.9379 3.73218 56.9979V9.45562C3.73396 8.5156 4.10818 7.61458 4.77288 6.94988C5.43758 6.28518 6.33859 5.91096 7.27862 5.90918H12.6497V8.1217H20.2249V5.90918H23.9476V8.1217H27.7984V5.90918H37.0035V8.1217H51.3377V5.90918H56.6717C57.612 5.91052 58.5134 6.28453 59.1785 6.94928C59.8436 7.61403 60.218 8.51531 60.2198 9.45562Z" fill="#124E61"/>
<path d="M60.2223 9.45617V56.995C60.2208 57.936 59.8463 58.838 59.1809 59.5034C58.5155 60.1688 57.6135 60.5433 56.6725 60.5449H7.27862C6.46227 60.5434 5.6713 60.261 5.03866 59.7451C4.40602 59.2291 3.97028 58.5111 3.80469 57.7118C4.11096 57.8037 4.42929 57.8492 4.74906 57.8467H54.1429C55.0839 57.8451 55.9859 57.4706 56.6513 56.8052C57.3167 56.1398 57.6912 55.2378 57.6928 54.2968V6.75797C57.693 6.51705 57.6676 6.27679 57.6169 6.04126C58.3653 6.24636 59.0257 6.69163 59.4964 7.30861C59.9672 7.92559 60.2222 8.68012 60.2223 9.45617Z" fill="#1F7C99"/>
<path d="M48.4608 18.9514H34.3079C33.3551 18.9514 32.5828 19.7238 32.5828 20.6766V34.8295C32.5828 35.7822 33.3551 36.5546 34.3079 36.5546H48.4608C49.4136 36.5546 50.186 35.7822 50.186 34.8295V20.6766C50.186 19.7238 49.4136 18.9514 48.4608 18.9514Z" fill="#FCD462"/>
<path d="M48.4608 36.9772H34.3079C33.7387 36.9765 33.1931 36.7501 32.7906 36.3477C32.3882 35.9452 32.1618 35.3996 32.1611 34.8304V20.6775C32.1618 20.1084 32.3882 19.5627 32.7906 19.1603C33.1931 18.7578 33.7387 18.5314 34.3079 18.5308H48.4608C49.0299 18.5314 49.5756 18.7578 49.978 19.1603C50.3805 19.5627 50.6068 20.1084 50.6075 20.6775V34.8296C50.6071 35.3989 50.3808 35.9447 49.9783 36.3474C49.5758 36.75 49.0301 36.9765 48.4608 36.9772ZM34.3079 19.3731C33.9623 19.3736 33.631 19.511 33.3866 19.7554C33.1422 19.9998 33.0048 20.3311 33.0043 20.6767V34.8296C33.0045 35.1753 33.1419 35.5068 33.3863 35.7514C33.6307 35.9959 33.9621 36.1335 34.3079 36.134H48.4608C48.8064 36.1335 49.1377 35.9961 49.382 35.7517C49.6264 35.5073 49.7639 35.176 49.7643 34.8304V20.6775C49.7639 20.3319 49.6264 20.0006 49.382 19.7562C49.1377 19.5119 48.8064 19.3744 48.4608 19.3739L34.3079 19.3731Z" fill="#323C6B"/>
<path d="M37.2346 21.7981H45.5349L47.3402 23.6034V31.9037L45.5349 33.7098H37.2346L35.4285 31.9037V23.6034L37.2346 21.7981Z" fill="#EEEFEE"/>
<path d="M45.5359 34.1315H37.2347C37.1793 34.1316 37.1244 34.1208 37.0732 34.0996C37.022 34.0785 36.9755 34.0475 36.9362 34.0084L35.1343 32.2023C35.0952 32.163 35.0642 32.1165 35.0431 32.0653C35.022 32.0141 35.0111 31.9592 35.0112 31.9038V23.6034C35.0111 23.548 35.022 23.4932 35.0431 23.4419C35.0642 23.3907 35.0952 23.3442 35.1343 23.3049L36.9404 21.4988C36.9797 21.4597 37.0262 21.4287 37.0774 21.4076C37.1287 21.3865 37.1835 21.3756 37.2389 21.3757H45.5401C45.5955 21.3756 45.6504 21.3865 45.7016 21.4076C45.7528 21.4287 45.7994 21.4597 45.8386 21.4988L47.6439 23.3049C47.683 23.3442 47.714 23.3907 47.7351 23.4419C47.7562 23.4932 47.7671 23.548 47.767 23.6034V31.9038C47.7671 31.9592 47.7562 32.0141 47.7351 32.0653C47.714 32.1165 47.683 32.163 47.6439 32.2023L45.8386 34.0084C45.7989 34.048 45.7516 34.0793 45.6997 34.1005C45.6477 34.1216 45.592 34.1321 45.5359 34.1315ZM37.4093 33.2883H45.3614L46.9196 31.7292V23.778L45.3614 22.2189H37.4109L35.8519 23.778V31.7292L37.4093 33.2883Z" fill="#323C6B"/>
<path d="M35.4287 19.3731C35.3169 19.3731 35.2096 19.3287 35.1306 19.2496C35.0515 19.1706 35.0071 19.0633 35.0071 18.9515V16.8689C35.0071 16.757 35.0515 16.6498 35.1306 16.5707C35.2096 16.4917 35.3169 16.4473 35.4287 16.4473C35.5405 16.4473 35.6477 16.4917 35.7268 16.5707C35.8059 16.6498 35.8503 16.757 35.8503 16.8689V18.9524C35.85 19.064 35.8055 19.1711 35.7265 19.2499C35.6475 19.3288 35.5403 19.3731 35.4287 19.3731Z" fill="#323C6B"/>
<path d="M39.3991 19.3731C39.2873 19.3731 39.1801 19.3287 39.101 19.2496C39.022 19.1706 38.9775 19.0633 38.9775 18.9515V16.8689C38.9775 16.757 39.022 16.6498 39.101 16.5707C39.1801 16.4917 39.2873 16.4473 39.3991 16.4473C39.511 16.4473 39.6182 16.4917 39.6973 16.5707C39.7763 16.6498 39.8207 16.757 39.8207 16.8689V18.9524C39.8205 19.064 39.776 19.1711 39.697 19.2499C39.6179 19.3288 39.5108 19.3731 39.3991 19.3731Z" fill="#323C6B"/>
<path d="M43.3696 19.3731C43.2578 19.3731 43.1505 19.3287 43.0715 19.2496C42.9924 19.1706 42.948 19.0633 42.948 18.9515V16.8689C42.948 16.757 42.9924 16.6498 43.0715 16.5707C43.1505 16.4917 43.2578 16.4473 43.3696 16.4473C43.4814 16.4473 43.5886 16.4917 43.6677 16.5707C43.7468 16.6498 43.7912 16.757 43.7912 16.8689V18.9524C43.791 19.064 43.7464 19.1711 43.6674 19.2499C43.5884 19.3288 43.4813 19.3731 43.3696 19.3731Z" fill="#323C6B"/>
<path d="M47.3403 19.3731C47.2285 19.3731 47.1212 19.3287 47.0422 19.2496C46.9631 19.1706 46.9187 19.0633 46.9187 18.9515V16.8689C46.9187 16.757 46.9631 16.6498 47.0422 16.5707C47.1212 16.4917 47.2285 16.4473 47.3403 16.4473C47.4521 16.4473 47.5593 16.4917 47.6384 16.5707C47.7175 16.6498 47.7619 16.757 47.7619 16.8689V18.9524C47.7617 19.064 47.7172 19.1711 47.6381 19.2499C47.5591 19.3288 47.452 19.3731 47.3403 19.3731Z" fill="#323C6B"/>
<path d="M35.4287 39.0607C35.3169 39.0607 35.2096 39.0163 35.1306 38.9373C35.0515 38.8582 35.0071 38.751 35.0071 38.6391V36.5556C35.0071 36.4438 35.0515 36.3366 35.1306 36.2575C35.2096 36.1785 35.3169 36.134 35.4287 36.134C35.5405 36.134 35.6477 36.1785 35.7268 36.2575C35.8059 36.3366 35.8503 36.4438 35.8503 36.5556V38.6391C35.8503 38.751 35.8059 38.8582 35.7268 38.9373C35.6477 39.0163 35.5405 39.0607 35.4287 39.0607Z" fill="#323C6B"/>
<path d="M39.3991 39.0607C39.2873 39.0607 39.1801 39.0163 39.101 38.9373C39.022 38.8582 38.9775 38.751 38.9775 38.6391V36.5556C38.9775 36.4438 39.022 36.3366 39.101 36.2575C39.1801 36.1785 39.2873 36.134 39.3991 36.134C39.511 36.134 39.6182 36.1785 39.6973 36.2575C39.7763 36.3366 39.8207 36.4438 39.8207 36.5556V38.6391C39.8207 38.751 39.7763 38.8582 39.6973 38.9373C39.6182 39.0163 39.511 39.0607 39.3991 39.0607Z" fill="#323C6B"/>
<path d="M43.3696 39.0607C43.2578 39.0607 43.1505 39.0163 43.0715 38.9373C42.9924 38.8582 42.948 38.751 42.948 38.6391V36.5556C42.948 36.4438 42.9924 36.3366 43.0715 36.2575C43.1505 36.1785 43.2578 36.134 43.3696 36.134C43.4814 36.134 43.5886 36.1785 43.6677 36.2575C43.7468 36.3366 43.7912 36.4438 43.7912 36.5556V38.6391C43.7912 38.751 43.7468 38.8582 43.6677 38.9373C43.5886 39.0163 43.4814 39.0607 43.3696 39.0607Z" fill="#323C6B"/>
<path d="M47.3403 39.0607C47.2285 39.0607 47.1212 39.0163 47.0422 38.9373C46.9631 38.8582 46.9187 38.751 46.9187 38.6391V36.5556C46.9187 36.4438 46.9631 36.3366 47.0422 36.2575C47.1212 36.1785 47.2285 36.134 47.3403 36.134C47.4521 36.134 47.5593 36.1785 47.6384 36.2575C47.7175 36.3366 47.7619 36.4438 47.7619 36.5556V38.6391C47.7619 38.751 47.7175 38.8582 47.6384 38.9373C47.5593 39.0163 47.4521 39.0607 47.3403 39.0607Z" fill="#323C6B"/>
<path d="M52.2695 22.2189H50.186C50.0742 22.2189 49.967 22.1745 49.8879 22.0954C49.8088 22.0164 49.7644 21.9091 49.7644 21.7973C49.7644 21.6855 49.8088 21.5783 49.8879 21.4992C49.967 21.4202 50.0742 21.3757 50.186 21.3757H52.2695C52.3813 21.3757 52.4886 21.4202 52.5676 21.4992C52.6467 21.5783 52.6911 21.6855 52.6911 21.7973C52.6911 21.9091 52.6467 22.0164 52.5676 22.0954C52.4886 22.1745 52.3813 22.2189 52.2695 22.2189Z" fill="#323C6B"/>
<path d="M52.2695 26.1894H50.186C50.0742 26.1894 49.967 26.145 49.8879 26.0659C49.8088 25.9868 49.7644 25.8796 49.7644 25.7678C49.7644 25.656 49.8088 25.5487 49.8879 25.4697C49.967 25.3906 50.0742 25.3462 50.186 25.3462H52.2695C52.3813 25.3462 52.4886 25.3906 52.5676 25.4697C52.6467 25.5487 52.6911 25.656 52.6911 25.7678C52.6911 25.8796 52.6467 25.9868 52.5676 26.0659C52.4886 26.145 52.3813 26.1894 52.2695 26.1894Z" fill="#323C6B"/>
<path d="M52.2695 30.1608H50.186C50.0742 30.1608 49.967 30.1164 49.8879 30.0373C49.8088 29.9583 49.7644 29.851 49.7644 29.7392C49.7644 29.6274 49.8088 29.5202 49.8879 29.4411C49.967 29.362 50.0742 29.3176 50.186 29.3176H52.2695C52.3813 29.3176 52.4886 29.362 52.5676 29.4411C52.6467 29.5202 52.6911 29.6274 52.6911 29.7392C52.6911 29.851 52.6467 29.9583 52.5676 30.0373C52.4886 30.1164 52.3813 30.1608 52.2695 30.1608Z" fill="#323C6B"/>
<path d="M52.2695 34.1315H50.186C50.0742 34.1315 49.967 34.0871 49.8879 34.008C49.8088 33.929 49.7644 33.8217 49.7644 33.7099C49.7644 33.5981 49.8088 33.4909 49.8879 33.4118C49.967 33.3327 50.0742 33.2883 50.186 33.2883H52.2695C52.3813 33.2883 52.4886 33.3327 52.5676 33.4118C52.6467 33.4909 52.6911 33.5981 52.6911 33.7099C52.6911 33.8217 52.6467 33.929 52.5676 34.008C52.4886 34.0871 52.3813 34.1315 52.2695 34.1315Z" fill="#323C6B"/>
<path d="M32.5828 22.2189H30.4968C30.385 22.2189 30.2777 22.1745 30.1987 22.0954C30.1196 22.0164 30.0752 21.9091 30.0752 21.7973C30.0752 21.6855 30.1196 21.5783 30.1987 21.4992C30.2777 21.4202 30.385 21.3757 30.4968 21.3757H32.5803C32.6921 21.3757 32.7994 21.4202 32.8784 21.4992C32.9575 21.5783 33.0019 21.6855 33.0019 21.7973C33.0019 21.9091 32.9575 22.0164 32.8784 22.0954C32.7994 22.1745 32.6921 22.2189 32.5803 22.2189H32.5828Z" fill="#323C6B"/>
<path d="M32.5828 26.1894H30.4968C30.385 26.1894 30.2777 26.145 30.1987 26.0659C30.1196 25.9868 30.0752 25.8796 30.0752 25.7678C30.0752 25.656 30.1196 25.5487 30.1987 25.4697C30.2777 25.3906 30.385 25.3462 30.4968 25.3462H32.5803C32.6921 25.3462 32.7994 25.3906 32.8784 25.4697C32.9575 25.5487 33.0019 25.656 33.0019 25.7678C33.0019 25.8796 32.9575 25.9868 32.8784 26.0659C32.7994 26.145 32.6921 26.1894 32.5803 26.1894H32.5828Z" fill="#323C6B"/>
<path d="M32.5828 30.1608H30.4968C30.385 30.1608 30.2777 30.1164 30.1987 30.0373C30.1196 29.9583 30.0752 29.851 30.0752 29.7392C30.0752 29.6274 30.1196 29.5202 30.1987 29.4411C30.2777 29.362 30.385 29.3176 30.4968 29.3176H32.5803C32.6921 29.3176 32.7994 29.362 32.8784 29.4411C32.9575 29.5202 33.0019 29.6274 33.0019 29.7392C33.0019 29.851 32.9575 29.9583 32.8784 30.0373C32.7994 30.1164 32.6921 30.1608 32.5803 30.1608H32.5828Z" fill="#323C6B"/>
<path d="M32.5828 34.1315H30.4968C30.385 34.1315 30.2777 34.0871 30.1987 34.008C30.1196 33.929 30.0752 33.8217 30.0752 33.7099C30.0752 33.5981 30.1196 33.4909 30.1987 33.4118C30.2777 33.3327 30.385 33.2883 30.4968 33.2883H32.5803C32.6921 33.2883 32.7994 33.3327 32.8784 33.4118C32.9575 33.4909 33.0019 33.5981 33.0019 33.7099C33.0019 33.8217 32.9575 33.929 32.8784 34.008C32.7994 34.0871 32.6921 34.1315 32.5803 34.1315H32.5828Z" fill="#323C6B"/>
<path d="M17.0437 52.9792C19.4722 52.9792 21.4409 51.0105 21.4409 48.582C21.4409 46.1535 19.4722 44.1848 17.0437 44.1848C14.6152 44.1848 12.6465 46.1535 12.6465 48.582C12.6465 51.0105 14.6152 52.9792 17.0437 52.9792Z" fill="#E1E6E9"/>
<path d="M17.0437 53.4008C16.0906 53.4008 15.1589 53.1182 14.3665 52.5887C13.574 52.0592 12.9564 51.3066 12.5917 50.4261C12.2269 49.5456 12.1315 48.5767 12.3174 47.6419C12.5034 46.7071 12.9623 45.8485 13.6363 45.1746C14.3102 44.5007 15.1688 44.0417 16.1036 43.8558C17.0383 43.6698 18.0072 43.7653 18.8877 44.13C19.7683 44.4947 20.5209 45.1124 21.0504 45.9048C21.5799 46.6973 21.8625 47.6289 21.8625 48.582C21.8611 49.8596 21.353 51.0845 20.4496 51.9879C19.5462 52.8914 18.3213 53.3995 17.0437 53.4008ZM17.0437 44.6064C16.2574 44.6064 15.4887 44.8395 14.8349 45.2764C14.1811 45.7132 13.6716 46.3341 13.3707 47.0606C13.0698 47.787 12.991 48.5864 13.1444 49.3576C13.2978 50.1288 13.6765 50.8372 14.2325 51.3932C14.7885 51.9492 15.4969 52.3278 16.2681 52.4812C17.0393 52.6346 17.8386 52.5559 18.5651 52.255C19.2915 51.9541 19.9124 51.4445 20.3493 50.7907C20.7861 50.137 21.0193 49.3683 21.0193 48.582C21.0182 47.5279 20.599 46.5174 19.8536 45.772C19.1083 45.0267 18.0977 44.6075 17.0437 44.6064Z" fill="#323C6B"/>
<path d="M54.2004 46.1501H27.7985C27.6867 46.1501 27.5795 46.1057 27.5004 46.0266C27.4214 45.9475 27.377 45.8403 27.377 45.7285C27.377 45.6167 27.4214 45.5094 27.5004 45.4304C27.5795 45.3513 27.6867 45.3069 27.7985 45.3069H54.2004C54.3122 45.3069 54.4195 45.3513 54.4985 45.4304C54.5776 45.5094 54.622 45.6167 54.622 45.7285C54.622 45.8403 54.5776 45.9475 54.4985 46.0266C54.4195 46.1057 54.3122 46.1501 54.2004 46.1501Z" fill="#21B3A9"/>
<path d="M54.2004 52.3239H27.7985C27.6867 52.3239 27.5795 52.2795 27.5004 52.2004C27.4214 52.1214 27.377 52.0141 27.377 51.9023C27.377 51.7905 27.4214 51.6833 27.5004 51.6042C27.5795 51.5251 27.6867 51.4807 27.7985 51.4807H54.2004C54.3122 51.4807 54.4195 51.5251 54.4985 51.6042C54.5776 51.6833 54.622 51.7905 54.622 51.9023C54.622 52.0141 54.5776 52.1214 54.4985 52.2004C54.4195 52.2795 54.3122 52.3239 54.2004 52.3239Z" fill="#21B3A9"/>
<path d="M25.6999 17.2905H22.9216C22.8098 17.2905 22.7025 17.246 22.6235 17.167C22.5444 17.0879 22.5 16.9807 22.5 16.8689C22.5 16.757 22.5444 16.6498 22.6235 16.5707C22.7025 16.4917 22.8098 16.4473 22.9216 16.4473H25.6999C25.8117 16.4473 25.9189 16.4917 25.998 16.5707C26.0771 16.6498 26.1215 16.757 26.1215 16.8689C26.1215 16.9807 26.0771 17.0879 25.998 17.167C25.9189 17.246 25.8117 17.2905 25.6999 17.2905Z" fill="#21B3A9"/>
<path d="M25.6999 22.933H22.9216C22.8098 22.933 22.7025 22.8886 22.6235 22.8096C22.5444 22.7305 22.5 22.6233 22.5 22.5114C22.5 22.3996 22.5444 22.2924 22.6235 22.2133C22.7025 22.1343 22.8098 22.0898 22.9216 22.0898H25.6999C25.8117 22.0898 25.9189 22.1343 25.998 22.2133C26.0771 22.2924 26.1215 22.3996 26.1215 22.5114C26.1215 22.6233 26.0771 22.7305 25.998 22.8096C25.9189 22.8886 25.8117 22.933 25.6999 22.933Z" fill="#21B3A9"/>
<path d="M25.6999 28.5756H22.9216C22.8098 28.5756 22.7025 28.5312 22.6235 28.4521C22.5444 28.3731 22.5 28.2658 22.5 28.154C22.5 28.0422 22.5444 27.935 22.6235 27.8559C22.7025 27.7768 22.8098 27.7324 22.9216 27.7324H25.6999C25.8117 27.7324 25.9189 27.7768 25.998 27.8559C26.0771 27.935 26.1215 28.0422 26.1215 28.154C26.1215 28.2658 26.0771 28.3731 25.998 28.4521C25.9189 28.5312 25.8117 28.5756 25.6999 28.5756Z" fill="#21B3A9"/>
<path d="M25.6999 34.2199H22.9216C22.8098 34.2199 22.7025 34.1755 22.6235 34.0964C22.5444 34.0174 22.5 33.9101 22.5 33.7983C22.5 33.6865 22.5444 33.5793 22.6235 33.5002C22.7025 33.4211 22.8098 33.3767 22.9216 33.3767H25.6999C25.8117 33.3767 25.9189 33.4211 25.998 33.5002C26.0771 33.5793 26.1215 33.6865 26.1215 33.7983C26.1215 33.9101 26.0771 34.0174 25.998 34.0964C25.9189 34.1755 25.8117 34.2199 25.6999 34.2199Z" fill="#21B3A9"/>
<path d="M8.99544 11.1925H8.2214C8.10958 11.1925 8.00235 11.1481 7.92329 11.0691C7.84422 10.99 7.7998 10.8828 7.7998 10.771C7.7998 10.6591 7.84422 10.5519 7.92329 10.4728C8.00235 10.3938 8.10958 10.3494 8.2214 10.3494H8.99544C9.10725 10.3494 9.21449 10.3938 9.29355 10.4728C9.37262 10.5519 9.41703 10.6591 9.41703 10.771C9.41703 10.8828 9.37262 10.99 9.29355 11.0691C9.21449 11.1481 9.10725 11.1925 8.99544 11.1925Z" fill="#323C6B"/>
<path d="M8.99544 56.1047H8.2214C8.10958 56.1047 8.00235 56.0602 7.92329 55.9812C7.84422 55.9021 7.7998 55.7949 7.7998 55.6831C7.7998 55.5713 7.84422 55.464 7.92329 55.385C8.00235 55.3059 8.10958 55.2615 8.2214 55.2615H8.99544C9.10725 55.2615 9.21449 55.3059 9.29355 55.385C9.37262 55.464 9.41703 55.5713 9.41703 55.6831C9.41703 55.7949 9.37262 55.9021 9.29355 55.9812C9.21449 56.0602 9.10725 56.1047 8.99544 56.1047Z" fill="#323C6B"/>
<path d="M55.7297 11.1925H54.9582C54.8464 11.1925 54.7392 11.1481 54.6601 11.0691C54.581 10.99 54.5366 10.8828 54.5366 10.771C54.5366 10.6591 54.581 10.5519 54.6601 10.4728C54.7392 10.3938 54.8464 10.3494 54.9582 10.3494H55.7297C55.8416 10.3494 55.9488 10.3938 56.0279 10.4728C56.1069 10.5519 56.1513 10.6591 56.1513 10.771C56.1513 10.8828 56.1069 10.99 56.0279 11.0691C55.9488 11.1481 55.8416 11.1925 55.7297 11.1925Z" fill="#323C6B"/>
<path d="M55.7297 56.1047H54.9582C54.8464 56.1047 54.7392 56.0602 54.6601 55.9812C54.581 55.9021 54.5366 55.7949 54.5366 55.6831C54.5366 55.5713 54.581 55.464 54.6601 55.385C54.7392 55.3059 54.8464 55.2615 54.9582 55.2615H55.7297C55.8416 55.2615 55.9488 55.3059 56.0279 55.385C56.1069 55.464 56.1513 55.5713 56.1513 55.6831C56.1513 55.7949 56.1069 55.9021 56.0279 55.9812C55.9488 56.0602 55.8416 56.1047 55.7297 56.1047Z" fill="#323C6B"/>
<path d="M62.7495 48.2489C62.6377 48.2489 62.5304 48.2045 62.4514 48.1254C62.3723 48.0464 62.3279 47.9391 62.3279 47.8273V39.6762C62.3279 39.5644 62.3723 39.4572 62.4514 39.3781C62.5304 39.2991 62.6377 39.2546 62.7495 39.2546C62.8613 39.2546 62.9685 39.2991 63.0476 39.3781C63.1266 39.4572 63.1711 39.5644 63.1711 39.6762V47.8273C63.1711 47.9391 63.1266 48.0464 63.0476 48.1254C62.9685 48.2045 62.8613 48.2489 62.7495 48.2489Z" fill="#323C6B"/>
<path d="M1.20187 12.6807C1.09005 12.6807 0.98282 12.6363 0.903755 12.5573C0.824691 12.4782 0.780273 12.371 0.780273 12.2591V11.851C0.780273 11.7392 0.824691 11.632 0.903755 11.5529C0.98282 11.4739 1.09005 11.4294 1.20187 11.4294C1.31368 11.4294 1.42091 11.4739 1.49998 11.5529C1.57904 11.632 1.62346 11.7392 1.62346 11.851V12.2591C1.62346 12.371 1.57904 12.4782 1.49998 12.5573C1.42091 12.6363 1.31368 12.6807 1.20187 12.6807Z" fill="#323C6B"/>
<path d="M1.20187 10.3224C1.09005 10.3224 0.982819 10.278 0.903755 10.1989C0.824691 10.1199 0.780273 10.0126 0.780273 9.90081V9.45561C0.782282 7.73295 1.46749 6.08143 2.68559 4.86333C3.9037 3.64523 5.55522 2.96002 7.27787 2.95801C7.38969 2.95801 7.49692 3.00243 7.57598 3.08149C7.65505 3.16055 7.69947 3.26779 7.69947 3.3796C7.69947 3.49141 7.65505 3.59865 7.57598 3.67771C7.49692 3.75678 7.38969 3.80119 7.27787 3.80119C5.77863 3.80298 4.34132 4.3994 3.28127 5.4596C2.22123 6.51981 1.62502 7.95721 1.62346 9.45645V9.90165C1.62324 10.0133 1.57872 10.1203 1.49968 10.1992C1.42064 10.2781 1.31353 10.3224 1.20187 10.3224Z" fill="#323C6B"/>
<path d="M62.7495 38.0186C62.6377 38.0186 62.5304 37.9741 62.4514 37.8951C62.3723 37.816 62.3279 37.7088 62.3279 37.597V37.0759C62.3279 36.9641 62.3723 36.8568 62.4514 36.7778C62.5304 36.6987 62.6377 36.6543 62.7495 36.6543C62.8613 36.6543 62.9685 36.6987 63.0476 36.7778C63.1266 36.8568 63.1711 36.9641 63.1711 37.0759V37.597C63.1711 37.7088 63.1266 37.816 63.0476 37.8951C62.9685 37.9741 62.8613 38.0186 62.7495 38.0186Z" fill="#323C6B"/>
<path d="M56.6734 60.9667H7.27785C6.22573 60.9654 5.21709 60.5468 4.47321 59.8027C3.72932 59.0587 3.31093 58.05 3.30981 56.9978V9.45559C3.31115 8.40361 3.72964 7.3951 4.4735 6.65124C5.21737 5.90738 6.22587 5.48889 7.27785 5.48755H12.649C12.7608 5.48755 12.868 5.53197 12.9471 5.61103C13.0261 5.69009 13.0705 5.79733 13.0705 5.90914V7.70007H19.8017V5.90914C19.8017 5.79733 19.8461 5.69009 19.9252 5.61103C20.0043 5.53197 20.1115 5.48755 20.2233 5.48755H23.946C24.0578 5.48755 24.165 5.53197 24.2441 5.61103C24.3232 5.69009 24.3676 5.79733 24.3676 5.90914V7.70007H27.3769V5.90914C27.3769 5.79733 27.4213 5.69009 27.5004 5.61103C27.5795 5.53197 27.6867 5.48755 27.7985 5.48755H37.0036C37.1154 5.48755 37.2226 5.53197 37.3017 5.61103C37.3807 5.69009 37.4252 5.79733 37.4252 5.90914V7.70007H50.9162V5.90914C50.9162 5.79733 50.9606 5.69009 51.0396 5.61103C51.1187 5.53197 51.2259 5.48755 51.3378 5.48755H56.6718C57.7237 5.48889 58.7322 5.90738 59.4761 6.65124C60.22 7.3951 60.6385 8.40361 60.6398 9.45559V56.9978C60.6387 58.0497 60.2205 59.0581 59.477 59.8021C58.7335 60.5461 57.7253 60.9649 56.6734 60.9667ZM7.27785 6.33074C6.44936 6.33163 5.65507 6.66114 5.06924 7.24697C4.48341 7.8328 4.15389 8.6271 4.153 9.45559V56.9978C4.15367 57.8265 4.48308 58.621 5.06894 59.207C5.65479 59.793 6.44922 60.1226 7.27785 60.1235H56.6734C57.5021 60.1226 58.2965 59.793 58.8824 59.207C59.4682 58.621 59.7976 57.8265 59.7983 56.9978V9.45559C59.7974 8.6271 59.4679 7.8328 58.8821 7.24697C58.2962 6.66114 57.5019 6.33163 56.6734 6.33074H51.7602V8.12166C51.7602 8.23348 51.7158 8.34071 51.6367 8.41978C51.5576 8.49884 51.4504 8.54326 51.3386 8.54326H37.0044C36.8926 8.54326 36.7854 8.49884 36.7063 8.41978C36.6272 8.34071 36.5828 8.23348 36.5828 8.12166V6.33074H28.2201V8.12166C28.2201 8.23348 28.1757 8.34071 28.0966 8.41978C28.0175 8.49884 27.9103 8.54326 27.7985 8.54326H23.9468C23.835 8.54326 23.7278 8.49884 23.6487 8.41978C23.5696 8.34071 23.5252 8.23348 23.5252 8.12166V6.33074H20.6457V8.12166C20.6457 8.23348 20.6013 8.34071 20.5223 8.41978C20.4432 8.49884 20.336 8.54326 20.2241 8.54326H12.6498C12.538 8.54326 12.4307 8.49884 12.3517 8.41978C12.2726 8.34071 12.2282 8.23348 12.2282 8.12166V6.33074H7.27785Z" fill="#323C6B"/>
<path d="M6.52146 38.4613C6.3761 38.4613 6.2367 38.4035 6.13392 38.3007C6.03113 38.198 5.97339 38.0586 5.97339 37.9132V29.1365C5.97339 28.9911 6.03113 28.8517 6.13392 28.7489C6.2367 28.6461 6.3761 28.5884 6.52146 28.5884C6.66682 28.5884 6.80622 28.6461 6.90901 28.7489C7.01179 28.8517 7.06953 28.9911 7.06953 29.1365V37.9132C7.06953 37.9852 7.05536 38.0564 7.02781 38.1229C7.00027 38.1894 6.9599 38.2498 6.90901 38.3007C6.85811 38.3516 6.79769 38.392 6.7312 38.4195C6.6647 38.4471 6.59343 38.4613 6.52146 38.4613Z" fill="white"/>
<path d="M6.52146 27.5765C6.3761 27.5765 6.2367 27.5188 6.13392 27.416C6.03113 27.3132 5.97339 27.1738 5.97339 27.0285V26.2207C5.97339 26.0753 6.03113 25.9359 6.13392 25.8331C6.2367 25.7304 6.3761 25.6726 6.52146 25.6726C6.66682 25.6726 6.80622 25.7304 6.90901 25.8331C7.01179 25.9359 7.06953 26.0753 7.06953 26.2207V27.0285C7.06953 27.1004 7.05536 27.1717 7.02781 27.2382C7.00027 27.3047 6.9599 27.3651 6.90901 27.416C6.85811 27.4669 6.79769 27.5073 6.7312 27.5348C6.6647 27.5624 6.59343 27.5765 6.52146 27.5765Z" fill="white"/>
<path d="M9.42379 34.1315C9.31198 34.1315 9.20474 34.0871 9.12568 34.008C9.04662 33.9289 9.0022 33.8217 9.0022 33.7099V16.0915C9.0022 15.9797 9.04662 15.8725 9.12568 15.7934C9.20474 15.7143 9.31198 15.6699 9.42379 15.6699C9.53561 15.6699 9.64284 15.7143 9.7219 15.7934C9.80097 15.8725 9.84539 15.9797 9.84539 16.0915V33.7057C9.84594 33.7614 9.83545 33.8167 9.81451 33.8683C9.79357 33.9199 9.76261 33.9669 9.7234 34.0065C9.6842 34.0461 9.63754 34.0775 9.58611 34.099C9.53468 34.1204 9.47951 34.1315 9.42379 34.1315Z" fill="#21B3A9"/>
<path d="M15.8684 34.1315C15.7566 34.1315 15.6493 34.0871 15.5703 34.008C15.4912 33.9289 15.4468 33.8217 15.4468 33.7099V16.0915C15.4468 15.9797 15.4912 15.8725 15.5703 15.7934C15.6493 15.7143 15.7566 15.6699 15.8684 15.6699C15.9802 15.6699 16.0874 15.7143 16.1665 15.7934C16.2455 15.8725 16.29 15.9797 16.29 16.0915V33.7057C16.2905 33.7614 16.28 33.8167 16.2591 33.8683C16.2381 33.9199 16.2072 33.9669 16.168 34.0065C16.1288 34.0461 16.0821 34.0775 16.0307 34.099C15.9793 34.1204 15.9241 34.1315 15.8684 34.1315Z" fill="#21B3A9"/>
</g>
<defs>
<clipPath id="clip0">
<rect width="62.3958" height="62.3958" fill="white" transform="translate(0.479248 0.239502)"/>
</clipPath>
</defs>
</svg>
