<svg width="64" height="63" viewBox="0 0 64 63" fill="none" xmlns="http://www.w3.org/2000/svg">
<g clip-path="url(#clip0)">
<path d="M49.0568 9.99854H9.42192C7.98064 9.99854 6.81226 11.1669 6.81226 12.6082V52.243C6.81226 53.6843 7.98064 54.8527 9.42192 54.8527H49.0568C50.498 54.8527 51.6664 53.6843 51.6664 52.243V12.6082C51.6664 11.1669 50.498 9.99854 49.0568 9.99854Z" fill="#124E61"/>
<path d="M51.6639 12.6092V52.239C51.6646 52.5818 51.5977 52.9213 51.4671 53.2382C51.3365 53.555 51.1448 53.8431 50.9028 54.0858C50.6609 54.3286 50.3734 54.5213 50.057 54.6529C49.7405 54.7845 49.4012 54.8525 49.0585 54.8529H48.6959C48.7029 54.8254 48.7057 54.797 48.7043 54.7686V15.1388C48.7044 14.447 48.4301 13.7834 47.9417 13.2935C47.4534 12.8035 46.7907 12.5272 46.0989 12.5249H6.82324C6.84041 11.8478 7.12163 11.2042 7.60687 10.7315C8.0921 10.2589 8.74289 9.9947 9.42026 9.99536H49.0585C49.4012 9.99581 49.7405 10.0638 50.057 10.1954C50.3734 10.327 50.6609 10.5197 50.9028 10.7624C51.1448 11.0052 51.3365 11.2932 51.4671 11.6101C51.5977 11.927 51.6646 12.2665 51.6639 12.6092Z" fill="#285C82"/>
<path d="M13.583 44.785V20.0644L16.879 16.7659H41.5996L44.8956 20.0619V44.785L41.5996 48.0818H16.879L13.583 44.785Z" fill="#E1E6E9"/>
<path d="M44.8932 20.0627V44.785C43.6116 46.075 42.8864 46.7918 41.5964 48.0818H41.2759L42.4227 46.9351V22.2129C41.1326 20.9312 40.4159 20.2061 39.1258 18.916H14.7324L16.8825 16.7659H41.5964L44.8932 20.0627Z" fill="#D5D6DB"/>
<path d="M14.1202 7.03638H16.6059C16.9328 7.03638 17.2464 7.16625 17.4776 7.39744C17.7088 7.62862 17.8386 7.94217 17.8386 8.26912V9.99849H12.8875V8.26912C12.8875 7.94217 13.0173 7.62862 13.2485 7.39744C13.4797 7.16625 13.7932 7.03638 14.1202 7.03638Z" fill="#FCD462"/>
<path d="M17.8384 10.42H12.8872C12.7754 10.42 12.6681 10.3756 12.5891 10.2966C12.51 10.2175 12.4656 10.1103 12.4656 9.99846V8.26908C12.466 7.83046 12.6405 7.40993 12.9506 7.09978C13.2608 6.78963 13.6813 6.61519 14.1199 6.61475H16.6056C17.0442 6.61519 17.4648 6.78963 17.7749 7.09978C18.0851 7.40993 18.2595 7.83046 18.26 8.26908V9.99846C18.26 10.1103 18.2155 10.2175 18.1365 10.2966C18.0574 10.3756 17.9502 10.42 17.8384 10.42ZM13.3088 9.57686H17.4168V8.26908C17.4166 8.05402 17.331 7.84783 17.1789 7.69576C17.0269 7.54369 16.8207 7.45816 16.6056 7.45793H14.1199C13.9048 7.45816 13.6987 7.54369 13.5466 7.69576C13.3945 7.84783 13.309 8.05402 13.3088 8.26908V9.57686Z" fill="#323C6B"/>
<path d="M15.363 7.45815C15.2512 7.45815 15.144 7.41373 15.0649 7.33466C14.9858 7.2556 14.9414 7.14837 14.9414 7.03655V3.75655C14.9414 3.64474 14.9858 3.53751 15.0649 3.45844C15.144 3.37938 15.2512 3.33496 15.363 3.33496C15.4748 3.33496 15.582 3.37938 15.6611 3.45844C15.7402 3.53751 15.7846 3.64474 15.7846 3.75655V7.03655C15.7846 7.14837 15.7402 7.2556 15.6611 7.33466C15.582 7.41373 15.4748 7.45815 15.363 7.45815Z" fill="#323C6B"/>
<path d="M23.3707 7.03638H25.8564C26.1833 7.03638 26.4969 7.16625 26.7281 7.39744C26.9592 7.62862 27.0891 7.94217 27.0891 8.26912V9.99849H22.1379V8.26912C22.1379 7.94217 22.2678 7.62862 22.499 7.39744C22.7302 7.16625 23.0437 7.03638 23.3707 7.03638Z" fill="#FCD462"/>
<path d="M27.0899 10.42H22.1379C22.0261 10.42 21.9189 10.3756 21.8398 10.2966C21.7607 10.2175 21.7163 10.1103 21.7163 9.99846V8.26908C21.7168 7.83046 21.8912 7.40993 22.2013 7.09978C22.5115 6.78963 22.932 6.61519 23.3706 6.61475H25.8572C26.2958 6.61519 26.7163 6.78963 27.0265 7.09978C27.3366 7.40993 27.5111 7.83046 27.5115 8.26908V9.99846C27.5115 10.1103 27.4671 10.2175 27.388 10.2966C27.309 10.3756 27.2017 10.42 27.0899 10.42ZM22.5595 9.57686H26.6683V8.26908C26.6681 8.05402 26.5826 7.84783 26.4305 7.69576C26.2784 7.54369 26.0723 7.45816 25.8572 7.45793H23.3706C23.1556 7.45816 22.9494 7.54369 22.7973 7.69576C22.6453 7.84783 22.5597 8.05402 22.5595 8.26908V9.57686Z" fill="#323C6B"/>
<path d="M24.6137 7.45815C24.5019 7.45815 24.3947 7.41373 24.3156 7.33466C24.2366 7.2556 24.1921 7.14837 24.1921 7.03655V3.75655C24.1921 3.64474 24.2366 3.53751 24.3156 3.45844C24.3947 3.37938 24.5019 3.33496 24.6137 3.33496C24.7255 3.33496 24.8328 3.37938 24.9118 3.45844C24.9909 3.53751 25.0353 3.64474 25.0353 3.75655V7.03655C25.0353 7.14837 24.9909 7.2556 24.9118 7.33466C24.8328 7.41373 24.7255 7.45815 24.6137 7.45815Z" fill="#323C6B"/>
<path d="M32.6221 7.03638H35.1079C35.4348 7.03638 35.7484 7.16625 35.9795 7.39744C36.2107 7.62862 36.3406 7.94217 36.3406 8.26912V9.99849H31.3894V8.26912C31.3894 8.10723 31.4213 7.94693 31.4832 7.79737C31.5452 7.6478 31.636 7.51191 31.7505 7.39744C31.8649 7.28297 32.0008 7.19216 32.1504 7.13021C32.3 7.06826 32.4603 7.03638 32.6221 7.03638Z" fill="#FCD462"/>
<path d="M36.3407 10.42H31.3886C31.2768 10.42 31.1696 10.3756 31.0905 10.2966C31.0115 10.2175 30.967 10.1103 30.967 9.99846V8.26908C30.9675 7.83046 31.1419 7.40993 31.4521 7.09978C31.7622 6.78963 32.1828 6.61519 32.6214 6.61475H35.1071C35.5457 6.61519 35.9662 6.78963 36.2764 7.09978C36.5865 7.40993 36.761 7.83046 36.7614 8.26908V9.99846C36.7614 10.1101 36.7171 10.2172 36.6382 10.2963C36.5594 10.3753 36.4524 10.4198 36.3407 10.42ZM31.8111 9.57686H35.9191V8.26908C35.9189 8.05402 35.8333 7.84783 35.6813 7.69576C35.5292 7.54369 35.323 7.45816 35.1079 7.45793H32.6214C32.4063 7.45816 32.2001 7.54369 32.0481 7.69576C31.896 7.84783 31.8105 8.05402 31.8102 8.26908L31.8111 9.57686Z" fill="#323C6B"/>
<path d="M33.865 7.45815C33.7531 7.45815 33.6459 7.41373 33.5668 7.33466C33.4878 7.2556 33.4434 7.14837 33.4434 7.03655V3.75655C33.4434 3.64474 33.4878 3.53751 33.5668 3.45844C33.6459 3.37938 33.7531 3.33496 33.865 3.33496C33.9768 3.33496 34.084 3.37938 34.1631 3.45844C34.2421 3.53751 34.2865 3.64474 34.2865 3.75655V7.03655C34.2865 7.14837 34.2421 7.2556 34.1631 7.33466C34.084 7.41373 33.9768 7.45815 33.865 7.45815Z" fill="#323C6B"/>
<path d="M41.8726 7.03638H44.3584C44.5204 7.03616 44.6809 7.06788 44.8306 7.12973C44.9804 7.19158 45.1165 7.28235 45.2311 7.39684C45.3458 7.51134 45.4367 7.64731 45.4988 7.79698C45.5608 7.94665 45.5928 8.10709 45.5928 8.26912V9.9985H40.6399V8.26912C40.6399 8.10723 40.6718 7.94693 40.7337 7.79737C40.7957 7.64781 40.8865 7.51191 41.001 7.39744C41.1154 7.28297 41.2513 7.19217 41.4009 7.13021C41.5504 7.06826 41.7107 7.03638 41.8726 7.03638Z" fill="#FCD462"/>
<path d="M45.5927 10.42H40.6399C40.528 10.42 40.4208 10.3756 40.3417 10.2966C40.2627 10.2175 40.2183 10.1103 40.2183 9.99846V8.26908C40.2187 7.83046 40.3931 7.40993 40.7033 7.09978C41.0134 6.78963 41.434 6.61519 41.8726 6.61475H44.3583C44.7972 6.61475 45.2182 6.78899 45.5287 7.09919C45.8392 7.40939 46.0139 7.83017 46.0143 8.26908V9.99846C46.0143 10.1103 45.9699 10.2175 45.8908 10.2966C45.8118 10.3756 45.7045 10.42 45.5927 10.42ZM41.0631 9.57686H45.1711V8.26908C45.1709 8.05402 45.0854 7.84783 44.9333 7.69576C44.7812 7.54369 44.5751 7.45816 44.36 7.45793H41.8726C41.6575 7.45816 41.4513 7.54369 41.2993 7.69576C41.1472 7.84783 41.0617 8.05402 41.0614 8.26908L41.0631 9.57686Z" fill="#323C6B"/>
<path d="M43.1164 7.45815C43.0046 7.45815 42.8974 7.41373 42.8183 7.33466C42.7392 7.2556 42.6948 7.14837 42.6948 7.03655V3.75655C42.6948 3.64474 42.7392 3.53751 42.8183 3.45844C42.8974 3.37938 43.0046 3.33496 43.1164 3.33496C43.2282 3.33496 43.3355 3.37938 43.4145 3.45844C43.4936 3.53751 43.538 3.64474 43.538 3.75655V7.03655C43.538 7.14837 43.4936 7.2556 43.4145 7.33466C43.3355 7.41373 43.2282 7.45815 43.1164 7.45815Z" fill="#323C6B"/>
<path d="M44.3593 57.814H41.8736C41.7116 57.8142 41.5511 57.7825 41.4013 57.7206C41.2516 57.6588 41.1155 57.568 41.0008 57.4535C40.8862 57.339 40.7952 57.203 40.7332 57.0534C40.6711 56.9037 40.6392 56.7433 40.6392 56.5812V54.8519H45.592V56.5812C45.592 56.7431 45.5602 56.9034 45.4982 57.053C45.4363 57.2025 45.3454 57.3384 45.231 57.4529C45.1165 57.5674 44.9806 57.6582 44.8311 57.7201C44.6815 57.7821 44.5212 57.814 44.3593 57.814Z" fill="#FCD462"/>
<path d="M44.3583 58.2357H41.8726C41.434 58.2353 41.0134 58.0608 40.7033 57.7507C40.3931 57.4405 40.2187 57.02 40.2183 56.5814V54.852C40.2183 54.7402 40.2627 54.633 40.3417 54.5539C40.4208 54.4748 40.528 54.4304 40.6399 54.4304H45.5927C45.7045 54.4304 45.8118 54.4748 45.8908 54.5539C45.9699 54.633 46.0143 54.7402 46.0143 54.852V56.5814C46.0139 57.0203 45.8392 57.4411 45.5287 57.7513C45.2182 58.0615 44.7972 58.2357 44.3583 58.2357ZM41.0614 55.2736V56.5814C41.0617 56.7964 41.1472 57.0026 41.2993 57.1547C41.4513 57.3068 41.6575 57.3923 41.8726 57.3925H44.3583C44.5734 57.3923 44.7796 57.3068 44.9316 57.1547C45.0837 57.0026 45.1692 56.7964 45.1695 56.5814V55.2736H41.0614Z" fill="#323C6B"/>
<path d="M43.1164 61.5149C43.0046 61.5149 42.8974 61.4705 42.8183 61.3914C42.7392 61.3124 42.6948 61.2051 42.6948 61.0933V57.8142C42.6948 57.7024 42.7392 57.5951 42.8183 57.5161C42.8974 57.437 43.0046 57.3926 43.1164 57.3926C43.2282 57.3926 43.3355 57.437 43.4145 57.5161C43.4936 57.5951 43.538 57.7024 43.538 57.8142V61.0933C43.538 61.2051 43.4936 61.3124 43.4145 61.3914C43.3355 61.4705 43.2282 61.5149 43.1164 61.5149Z" fill="#323C6B"/>
<path d="M35.1078 57.814H32.6221C32.2952 57.814 31.9816 57.6841 31.7504 57.4529C31.5192 57.2217 31.3894 56.9082 31.3894 56.5812V54.8518H36.3406V56.5812C36.3406 56.7431 36.3087 56.9034 36.2467 57.053C36.1848 57.2025 36.094 57.3384 35.9795 57.4529C35.865 57.5674 35.7291 57.6582 35.5796 57.7201C35.43 57.7821 35.2697 57.814 35.1078 57.814Z" fill="#FCD462"/>
<path d="M35.1079 58.2357H32.6214C32.1828 58.2353 31.7622 58.0608 31.4521 57.7507C31.1419 57.4405 30.9675 57.02 30.967 56.5814V54.852C30.967 54.7402 31.0115 54.633 31.0905 54.5539C31.1696 54.4748 31.2768 54.4304 31.3886 54.4304H36.3398C36.4517 54.4304 36.5589 54.4748 36.6379 54.5539C36.717 54.633 36.7614 54.7402 36.7614 54.852V56.5814C36.761 57.0199 36.5867 57.4403 36.2767 57.7504C35.9667 58.0605 35.5464 58.235 35.1079 58.2357ZM31.8111 55.2736V56.5814C31.8113 56.7964 31.8968 57.0026 32.0489 57.1547C32.201 57.3068 32.4072 57.3923 32.6222 57.3925H35.1079C35.323 57.3923 35.5292 57.3068 35.6813 57.1547C35.8333 57.0026 35.9189 56.7964 35.9191 56.5814V55.2736H31.8111Z" fill="#323C6B"/>
<path d="M33.865 61.5149C33.7531 61.5149 33.6459 61.4705 33.5668 61.3914C33.4878 61.3124 33.4434 61.2051 33.4434 61.0933V57.8142C33.4434 57.7024 33.4878 57.5951 33.5668 57.5161C33.6459 57.437 33.7531 57.3926 33.865 57.3926C33.9768 57.3926 34.084 57.437 34.1631 57.5161C34.2421 57.5951 34.2865 57.7024 34.2865 57.8142V61.0933C34.2865 61.2051 34.2421 61.3124 34.1631 61.3914C34.084 61.4705 33.9768 61.5149 33.865 61.5149Z" fill="#323C6B"/>
<path d="M25.8571 57.814H23.3714C23.0444 57.814 22.7309 57.6841 22.4997 57.4529C22.2685 57.2217 22.1387 56.9082 22.1387 56.5812V54.8518H27.0898V56.5812C27.0898 56.9082 26.96 57.2217 26.7288 57.4529C26.4976 57.6841 26.184 57.814 25.8571 57.814Z" fill="#FCD462"/>
<path d="M25.8572 58.2357H23.3706C22.932 58.2353 22.5115 58.0608 22.2013 57.7507C21.8912 57.4405 21.7168 57.02 21.7163 56.5814V54.852C21.7163 54.7402 21.7607 54.633 21.8398 54.5539C21.9189 54.4748 22.0261 54.4304 22.1379 54.4304H27.0899C27.2017 54.4304 27.309 54.4748 27.388 54.5539C27.4671 54.633 27.5115 54.7402 27.5115 54.852V56.5814C27.5111 57.02 27.3366 57.4405 27.0265 57.7507C26.7163 58.0608 26.2958 58.2353 25.8572 58.2357ZM22.5595 55.2736V56.5814C22.5597 56.7964 22.6453 57.0026 22.7973 57.1547C22.9494 57.3068 23.1556 57.3923 23.3706 57.3925H25.8572C26.0723 57.3923 26.2784 57.3068 26.4305 57.1547C26.5826 57.0026 26.6681 56.7964 26.6683 56.5814V55.2736H22.5595Z" fill="#323C6B"/>
<path d="M24.6137 61.5149C24.5019 61.5149 24.3947 61.4705 24.3156 61.3914C24.2366 61.3124 24.1921 61.2051 24.1921 61.0933V57.8142C24.1921 57.7024 24.2366 57.5951 24.3156 57.5161C24.3947 57.437 24.5019 57.3926 24.6137 57.3926C24.7255 57.3926 24.8328 57.437 24.9118 57.5161C24.9909 57.5951 25.0353 57.7024 25.0353 57.8142V61.0933C25.0353 61.2051 24.9909 61.3124 24.9118 61.3914C24.8328 61.4705 24.7255 61.5149 24.6137 61.5149Z" fill="#323C6B"/>
<path d="M16.6059 57.814H14.1202C13.7932 57.814 13.4797 57.6841 13.2485 57.4529C13.0173 57.2217 12.8874 56.9082 12.8874 56.5812V54.8518H17.8386V56.5812C17.8386 56.9082 17.7087 57.2217 17.4776 57.4529C17.2464 57.6841 16.9328 57.814 16.6059 57.814Z" fill="#FCD462"/>
<path d="M16.6056 58.2357H14.1199C13.6813 58.2353 13.2608 58.0608 12.9506 57.7507C12.6405 57.4405 12.466 57.02 12.4656 56.5814V54.852C12.4656 54.7402 12.51 54.633 12.5891 54.5539C12.6681 54.4748 12.7754 54.4304 12.8872 54.4304H17.8384C17.9502 54.4304 18.0574 54.4748 18.1365 54.5539C18.2155 54.633 18.26 54.7402 18.26 54.852V56.5814C18.2595 57.02 18.0851 57.4405 17.7749 57.7507C17.4648 58.0608 17.0442 58.2353 16.6056 58.2357ZM13.3088 55.2736V56.5814C13.309 56.7964 13.3945 57.0026 13.5466 57.1547C13.6987 57.3068 13.9048 57.3923 14.1199 57.3925H16.6056C16.8207 57.3923 17.0269 57.3068 17.1789 57.1547C17.331 57.0026 17.4166 56.7964 17.4168 56.5814V55.2736H13.3088Z" fill="#323C6B"/>
<path d="M15.363 61.5149C15.2512 61.5149 15.144 61.4705 15.0649 61.3914C14.9858 61.3124 14.9414 61.2051 14.9414 61.0933V57.8142C14.9414 57.7024 14.9858 57.5951 15.0649 57.5161C15.144 57.437 15.2512 57.3926 15.363 57.3926C15.4748 57.3926 15.582 57.437 15.6611 57.5161C15.7402 57.5951 15.7846 57.7024 15.7846 57.8142V61.0933C15.7846 61.2051 15.7402 61.3124 15.6611 61.3914C15.582 61.4705 15.4748 61.5149 15.363 61.5149Z" fill="#323C6B"/>
<path d="M54.6277 17.3057V19.7915C54.6282 19.9537 54.5968 20.1144 54.5351 20.2645C54.4734 20.4145 54.3826 20.5509 54.2681 20.6659C54.1536 20.7808 54.0175 20.872 53.8677 20.9342C53.7178 20.9964 53.5572 21.0284 53.3949 21.0284H51.6656V16.073H53.3949C53.7219 16.073 54.0354 16.2029 54.2666 16.4341C54.4978 16.6652 54.6277 16.9788 54.6277 17.3057Z" fill="#FCD462"/>
<path d="M53.3957 21.4455H51.6638C51.552 21.4455 51.4447 21.4011 51.3657 21.322C51.2866 21.243 51.2422 21.1357 51.2422 21.0239V16.0727C51.2422 15.9609 51.2866 15.8537 51.3657 15.7746C51.4447 15.6955 51.552 15.6511 51.6638 15.6511H53.3931C53.8318 15.6516 54.2523 15.826 54.5624 16.1362C54.8726 16.4463 55.047 16.8668 55.0475 17.3055V19.792C55.0468 20.2301 54.8726 20.65 54.563 20.9599C54.2535 21.2698 53.8337 21.4444 53.3957 21.4455ZM52.0879 20.6023H53.3957C53.6107 20.6021 53.8169 20.5166 53.969 20.3645C54.1211 20.2124 54.2066 20.0062 54.2068 19.7912V17.3055C54.2066 17.0904 54.1211 16.8842 53.969 16.7321C53.8169 16.5801 53.6107 16.4945 53.3957 16.4943H52.0854L52.0879 20.6023Z" fill="#323C6B"/>
<path d="M57.9033 18.9701H54.6284C54.5166 18.9701 54.4093 18.9257 54.3303 18.8467C54.2512 18.7676 54.2068 18.6604 54.2068 18.5485C54.2068 18.4367 54.2512 18.3295 54.3303 18.2504C54.4093 18.1714 54.5166 18.127 54.6284 18.127H57.9033C58.0151 18.127 58.1224 18.1714 58.2014 18.2504C58.2805 18.3295 58.3249 18.4367 58.3249 18.5485C58.3249 18.6604 58.2805 18.7676 58.2014 18.8467C58.1224 18.9257 58.0151 18.9701 57.9033 18.9701Z" fill="#323C6B"/>
<path d="M54.6284 26.5562V29.0419C54.629 29.2042 54.5975 29.3649 54.5358 29.515C54.4741 29.665 54.3834 29.8014 54.2688 29.9164C54.1543 30.0313 54.0182 30.1225 53.8684 30.1847C53.7186 30.2469 53.5579 30.2789 53.3957 30.2789H51.6663V25.3235H53.3957C53.7226 25.3235 54.0362 25.4534 54.2673 25.6845C54.4985 25.9157 54.6284 26.2293 54.6284 26.5562Z" fill="#FCD462"/>
<path d="M53.3957 30.697H51.6638C51.552 30.697 51.4447 30.6526 51.3657 30.5735C51.2866 30.4944 51.2422 30.3872 51.2422 30.2754V25.3242C51.2422 25.2124 51.2866 25.1051 51.3657 25.0261C51.4447 24.947 51.552 24.9026 51.6638 24.9026H53.3931C53.8318 24.903 54.2523 25.0775 54.5624 25.3876C54.8726 25.6978 55.047 26.1183 55.0475 26.5569V29.0426C55.047 29.4808 54.8729 29.901 54.5633 30.211C54.2537 30.5211 53.8339 30.6959 53.3957 30.697ZM52.0879 29.8538H53.3957C53.6107 29.8536 53.8169 29.768 53.969 29.616C54.1211 29.4639 54.2066 29.2577 54.2068 29.0426V26.5561C54.2066 26.341 54.1211 26.1348 53.969 25.9828C53.8169 25.8307 53.6107 25.7452 53.3957 25.7449H52.0854L52.0879 29.8538Z" fill="#323C6B"/>
<path d="M57.9033 28.2214H54.6284C54.5166 28.2214 54.4093 28.1769 54.3303 28.0979C54.2512 28.0188 54.2068 27.9116 54.2068 27.7998C54.2068 27.688 54.2512 27.5807 54.3303 27.5017C54.4093 27.4226 54.5166 27.3782 54.6284 27.3782H57.9033C58.0151 27.3782 58.1224 27.4226 58.2014 27.5017C58.2805 27.5807 58.3249 27.688 58.3249 27.7998C58.3249 27.9116 58.2805 28.0188 58.2014 28.0979C58.1224 28.1769 58.0151 28.2214 57.9033 28.2214Z" fill="#323C6B"/>
<path d="M54.6284 35.8077V38.2934C54.629 38.4557 54.5975 38.6165 54.5357 38.7667C54.474 38.9168 54.3832 39.0532 54.2685 39.1681C54.1539 39.283 54.0177 39.3742 53.8678 39.4364C53.7179 39.4985 53.5571 39.5305 53.3948 39.5304H51.6654V34.575H53.3948C53.5568 34.5748 53.7172 34.6066 53.8668 34.6685C54.0165 34.7304 54.1525 34.8212 54.2671 34.9357C54.3816 35.0502 54.4725 35.1861 54.5345 35.3357C54.5965 35.4854 54.6284 35.6457 54.6284 35.8077Z" fill="#FCD462"/>
<path d="M53.3957 39.9477H51.6638C51.552 39.9477 51.4447 39.9033 51.3657 39.8242C51.2866 39.7451 51.2422 39.6379 51.2422 39.5261V34.5749C51.2422 34.4631 51.2866 34.3559 51.3657 34.2768C51.4447 34.1977 51.552 34.1533 51.6638 34.1533H53.3931C53.8318 34.1538 54.2523 34.3282 54.5624 34.6384C54.8726 34.9485 55.047 35.369 55.0475 35.8076V38.2934C55.047 38.7315 54.8729 39.1517 54.5633 39.4618C54.2537 39.7718 53.8339 39.9466 53.3957 39.9477ZM52.0879 39.1045H53.3957C53.6107 39.1043 53.8169 39.0187 53.969 38.8667C54.1211 38.7146 54.2066 38.5084 54.2068 38.2934V35.8076C54.2066 35.5926 54.1211 35.3864 53.969 35.2343C53.8169 35.0823 53.6107 34.9967 53.3957 34.9965H52.0854L52.0879 39.1045Z" fill="#323C6B"/>
<path d="M57.9033 37.4721H54.6284C54.5166 37.4721 54.4093 37.4277 54.3303 37.3486C54.2512 37.2696 54.2068 37.1623 54.2068 37.0505C54.2068 36.9387 54.2512 36.8315 54.3303 36.7524C54.4093 36.6733 54.5166 36.6289 54.6284 36.6289H57.9033C58.0151 36.6289 58.1224 36.6733 58.2014 36.7524C58.2805 36.8315 58.3249 36.9387 58.3249 37.0505C58.3249 37.1623 58.2805 37.2696 58.2014 37.3486C58.1224 37.4277 58.0151 37.4721 57.9033 37.4721Z" fill="#323C6B"/>
<path d="M54.6284 45.0582V47.5439C54.629 47.7061 54.5975 47.8669 54.5358 48.0169C54.4741 48.167 54.3834 48.3034 54.2688 48.4183C54.1543 48.5332 54.0182 48.6244 53.8684 48.6866C53.7186 48.7488 53.5579 48.7809 53.3957 48.7809H51.6663V43.8254H53.3957C53.7226 43.8254 54.0362 43.9553 54.2674 44.1865C54.4985 44.4177 54.6284 44.7312 54.6284 45.0582Z" fill="#FCD462"/>
<path d="M53.3957 49.1993H51.6638C51.552 49.1993 51.4447 49.1549 51.3657 49.0758C51.2866 48.9967 51.2422 48.8895 51.2422 48.7777V43.8256C51.2422 43.7138 51.2866 43.6066 51.3657 43.5275C51.4447 43.4485 51.552 43.4041 51.6638 43.4041H53.3931C53.8318 43.4045 54.2523 43.5789 54.5624 43.8891C54.8726 44.1992 55.047 44.6198 55.0475 45.0584V47.5424C55.0477 47.981 54.8739 48.4018 54.5642 48.7125C54.2546 49.0231 53.8343 49.1982 53.3957 49.1993ZM52.0879 48.3561H53.3957C53.6107 48.3559 53.8169 48.2703 53.969 48.1183C54.1211 47.9662 54.2066 47.76 54.2068 47.5449V45.0584C54.2066 44.8433 54.1211 44.6371 53.969 44.4851C53.8169 44.333 53.6107 44.2475 53.3957 44.2472H52.0854L52.0879 48.3561Z" fill="#323C6B"/>
<path d="M57.9033 46.7226H54.6284C54.5166 46.7226 54.4093 46.6782 54.3303 46.5991C54.2512 46.52 54.2068 46.4128 54.2068 46.301C54.2068 46.1892 54.2512 46.0819 54.3303 46.0029C54.4093 45.9238 54.5166 45.8794 54.6284 45.8794H57.9033C58.0151 45.8794 58.1224 45.9238 58.2014 46.0029C58.2805 46.0819 58.3249 46.1892 58.3249 46.301C58.3249 46.4128 58.2805 46.52 58.2014 46.5991C58.1224 46.6782 58.0151 46.7226 57.9033 46.7226Z" fill="#323C6B"/>
<path d="M3.8501 47.5439V45.0582C3.8501 44.7312 3.97997 44.4177 4.21116 44.1865C4.44234 43.9553 4.75589 43.8254 5.08284 43.8254H6.81221V48.7766H5.08284C4.75589 48.7766 4.44234 48.6467 4.21116 48.4156C3.97997 48.1844 3.8501 47.8708 3.8501 47.5439Z" fill="#FCD462"/>
<path d="M6.81218 49.1993H5.0828C4.64374 49.1988 4.22283 49.024 3.91261 48.7133C3.60239 48.4026 3.42824 47.9815 3.42847 47.5424V45.0584C3.42891 44.6198 3.60335 44.1992 3.9135 43.8891C4.22365 43.5789 4.64418 43.4045 5.0828 43.4041H6.81218C6.92399 43.4041 7.03122 43.4485 7.11029 43.5275C7.18935 43.6066 7.23377 43.7138 7.23377 43.8256V48.7777C7.23377 48.8895 7.18935 48.9967 7.11029 49.0758C7.03122 49.1549 6.92399 49.1993 6.81218 49.1993ZM5.0828 44.2472C4.86774 44.2475 4.66155 44.333 4.50948 44.4851C4.35741 44.6371 4.27188 44.8433 4.27165 45.0584V47.5424C4.27188 47.7575 4.35741 47.9637 4.50948 48.1157C4.66155 48.2678 4.86774 48.3533 5.0828 48.3536H6.39058V44.2472H5.0828Z" fill="#323C6B"/>
<path d="M3.85023 46.7226H0.566857C0.455044 46.7226 0.34781 46.6782 0.268746 46.5991C0.189681 46.52 0.145264 46.4128 0.145264 46.301C0.145264 46.1892 0.189681 46.0819 0.268746 46.0029C0.34781 45.9238 0.455044 45.8794 0.566857 45.8794H3.84685C3.95867 45.8794 4.0659 45.9238 4.14497 46.0029C4.22403 46.0819 4.26845 46.1892 4.26845 46.301C4.26845 46.4128 4.22403 46.52 4.14497 46.5991C4.0659 46.6782 3.95867 46.7226 3.84685 46.7226H3.85023Z" fill="#323C6B"/>
<path d="M3.8501 38.2936V35.8079C3.8501 35.646 3.88198 35.4857 3.94393 35.3362C4.00588 35.1866 4.09669 35.0507 4.21116 34.9362C4.32563 34.8218 4.46152 34.731 4.61109 34.669C4.76065 34.6071 4.92095 34.5752 5.08284 34.5752H6.81221V39.5264H5.08368C4.92172 39.5265 4.76133 39.4947 4.61167 39.4328C4.46201 39.3709 4.32602 39.2801 4.21146 39.1656C4.0969 39.0511 4.00602 38.9152 3.94401 38.7656C3.88201 38.616 3.8501 38.4556 3.8501 38.2936Z" fill="#FCD462"/>
<path d="M6.81218 39.9477H5.0828C4.64418 39.9472 4.22365 39.7728 3.9135 39.4627C3.60335 39.1525 3.42891 38.732 3.42847 38.2934V35.8076C3.42891 35.369 3.60335 34.9485 3.9135 34.6384C4.22365 34.3282 4.64418 34.1538 5.0828 34.1533H6.81218C6.92399 34.1533 7.03122 34.1977 7.11029 34.2768C7.18935 34.3559 7.23377 34.4631 7.23377 34.5749V39.5269C7.23355 39.6386 7.18903 39.7456 7.10999 39.8245C7.03095 39.9034 6.92384 39.9477 6.81218 39.9477ZM5.0828 34.9965C4.86774 34.9967 4.66155 35.0823 4.50948 35.2343C4.35741 35.3864 4.27188 35.5926 4.27165 35.8076V38.2934C4.27188 38.5084 4.35741 38.7146 4.50948 38.8667C4.66155 39.0187 4.86774 39.1043 5.0828 39.1045H6.39058V34.9965H5.0828Z" fill="#323C6B"/>
<path d="M3.85023 37.4721H0.566857C0.455044 37.4721 0.34781 37.4277 0.268746 37.3486C0.189681 37.2696 0.145264 37.1623 0.145264 37.0505C0.145264 36.9387 0.189681 36.8315 0.268746 36.7524C0.34781 36.6733 0.455044 36.6289 0.566857 36.6289H3.84685C3.95867 36.6289 4.0659 36.6733 4.14497 36.7524C4.22403 36.8315 4.26845 36.9387 4.26845 37.0505C4.26845 37.1623 4.22403 37.2696 4.14497 37.3486C4.0659 37.4277 3.95867 37.4721 3.84685 37.4721H3.85023Z" fill="#323C6B"/>
<path d="M3.8501 29.0419V26.5562C3.8501 26.2293 3.97997 25.9157 4.21116 25.6845C4.44234 25.4533 4.75589 25.3235 5.08283 25.3235H6.81221V30.2747H5.08283C4.75589 30.2747 4.44234 30.1448 4.21116 29.9136C3.97997 29.6824 3.8501 29.3689 3.8501 29.0419Z" fill="#FCD462"/>
<path d="M6.81218 30.697H5.0828C4.64418 30.6965 4.22365 30.5221 3.9135 30.2119C3.60335 29.9018 3.42891 29.4813 3.42847 29.0426V26.5561C3.42914 26.1176 3.60367 25.6973 3.9138 25.3873C4.22393 25.0774 4.64433 24.903 5.0828 24.9026H6.81218C6.92399 24.9026 7.03122 24.947 7.11029 25.0261C7.18935 25.1051 7.23377 25.2124 7.23377 25.3242V30.2762C7.23355 30.3879 7.18903 30.4949 7.10999 30.5738C7.03095 30.6527 6.92384 30.697 6.81218 30.697ZM5.0828 25.7458C4.86774 25.746 4.66155 25.8315 4.50948 25.9836C4.35741 26.1357 4.27188 26.3419 4.27165 26.5569V29.0426C4.27188 29.2577 4.35741 29.4639 4.50948 29.616C4.66155 29.768 4.86774 29.8536 5.0828 29.8538H6.39058V25.7458H5.0828Z" fill="#323C6B"/>
<path d="M3.85023 28.2214H0.566857C0.455044 28.2214 0.34781 28.1769 0.268746 28.0979C0.189681 28.0188 0.145264 27.9116 0.145264 27.7998C0.145264 27.688 0.189681 27.5807 0.268746 27.5017C0.34781 27.4226 0.455044 27.3782 0.566857 27.3782H3.84685C3.95867 27.3782 4.0659 27.4226 4.14497 27.5017C4.22403 27.5807 4.26845 27.688 4.26845 27.7998C4.26845 27.9116 4.22403 28.0188 4.14497 28.0979C4.0659 28.1769 3.95867 28.2214 3.84685 28.2214H3.85023Z" fill="#323C6B"/>
<path d="M3.85083 19.7914V17.3057C3.85083 16.9788 3.98071 16.6652 4.21189 16.434C4.44307 16.2029 4.75663 16.073 5.08357 16.073H6.81294V21.0242H5.08357C4.75663 21.0242 4.44307 20.8943 4.21189 20.6631C3.98071 20.4319 3.85083 20.1184 3.85083 19.7914Z" fill="#FCD462"/>
<path d="M6.81242 21.4455H5.08304C4.64442 21.4451 4.2239 21.2706 3.91375 20.9605C3.6036 20.6503 3.42916 20.2298 3.42871 19.7912V17.3055C3.42916 16.8668 3.6036 16.4463 3.91375 16.1362C4.2239 15.826 4.64442 15.6516 5.08304 15.6511H6.81242C6.92423 15.6511 7.03147 15.6955 7.11053 15.7746C7.1896 15.8537 7.23401 15.9609 7.23401 16.0727V21.0239C7.23401 21.1357 7.1896 21.243 7.11053 21.322C7.03147 21.4011 6.92423 21.4455 6.81242 21.4455ZM5.08304 16.4943C4.86798 16.4945 4.66179 16.5801 4.50972 16.7321C4.35765 16.8842 4.27212 17.0904 4.2719 17.3055V19.792C4.27212 20.0071 4.35765 20.2133 4.50972 20.3653C4.66179 20.5174 4.86798 20.6029 5.08304 20.6032H6.39083V16.4943H5.08304Z" fill="#323C6B"/>
<path d="M3.85023 18.9701H0.566857C0.455044 18.9701 0.34781 18.9257 0.268746 18.8467C0.189681 18.7676 0.145264 18.6604 0.145264 18.5485C0.145264 18.4367 0.189681 18.3295 0.268746 18.2504C0.34781 18.1714 0.455044 18.127 0.566857 18.127H3.84685C3.95867 18.127 4.0659 18.1714 4.14497 18.2504C4.22403 18.3295 4.26845 18.4367 4.26845 18.5485C4.26845 18.6604 4.22403 18.7676 4.14497 18.8467C4.0659 18.9257 3.95867 18.9701 3.84685 18.9701H3.85023Z" fill="#323C6B"/>
<path d="M18.4703 22.9921H17.7224C17.6106 22.9921 17.5033 22.9477 17.4243 22.8686C17.3452 22.7896 17.3008 22.6823 17.3008 22.5705C17.3008 22.4587 17.3452 22.3515 17.4243 22.2724C17.5033 22.1933 17.6106 22.1489 17.7224 22.1489H18.4703C18.5821 22.1489 18.6893 22.1933 18.7684 22.2724C18.8475 22.3515 18.8919 22.4587 18.8919 22.5705C18.8919 22.6823 18.8475 22.7896 18.7684 22.8686C18.6893 22.9477 18.5821 22.9921 18.4703 22.9921Z" fill="#323C6B"/>
<path d="M24.0429 22.9921H23.2942C23.1823 22.9921 23.0751 22.9477 22.996 22.8686C22.917 22.7896 22.8726 22.6823 22.8726 22.5705C22.8726 22.4587 22.917 22.3515 22.996 22.2724C23.0751 22.1933 23.1823 22.1489 23.2942 22.1489H24.0429C24.1547 22.1489 24.2619 22.1933 24.341 22.2724C24.4201 22.3515 24.4645 22.4587 24.4645 22.5705C24.4645 22.6823 24.4201 22.7896 24.341 22.8686C24.2619 22.9477 24.1547 22.9921 24.0429 22.9921Z" fill="#323C6B"/>
<path d="M29.6137 22.9921H28.865C28.7531 22.9921 28.6459 22.9477 28.5668 22.8686C28.4878 22.7896 28.4434 22.6823 28.4434 22.5705C28.4434 22.4587 28.4878 22.3515 28.5668 22.2724C28.6459 22.1933 28.7531 22.1489 28.865 22.1489H29.6137C29.7255 22.1489 29.8327 22.1933 29.9118 22.2724C29.9909 22.3515 30.0353 22.4587 30.0353 22.5705C30.0353 22.6823 29.9909 22.7896 29.9118 22.8686C29.8327 22.9477 29.7255 22.9921 29.6137 22.9921Z" fill="#323C6B"/>
<path d="M35.1847 22.9921H34.436C34.3242 22.9921 34.2169 22.9477 34.1379 22.8686C34.0588 22.7896 34.0144 22.6823 34.0144 22.5705C34.0144 22.4587 34.0588 22.3515 34.1379 22.2724C34.2169 22.1933 34.3242 22.1489 34.436 22.1489H35.1847C35.2966 22.1489 35.4038 22.1933 35.4829 22.2724C35.5619 22.3515 35.6063 22.4587 35.6063 22.5705C35.6063 22.6823 35.5619 22.7896 35.4829 22.8686C35.4038 22.9477 35.2966 22.9921 35.1847 22.9921Z" fill="#323C6B"/>
<path d="M40.7565 22.9921H40.0078C39.896 22.9921 39.7887 22.9477 39.7097 22.8686C39.6306 22.7896 39.5862 22.6823 39.5862 22.5705C39.5862 22.4587 39.6306 22.3515 39.7097 22.2724C39.7887 22.1933 39.896 22.1489 40.0078 22.1489H40.7565C40.8683 22.1489 40.9756 22.1933 41.0546 22.2724C41.1337 22.3515 41.1781 22.4587 41.1781 22.5705C41.1781 22.6823 41.1337 22.7896 41.0546 22.8686C40.9756 22.9477 40.8683 22.9921 40.7565 22.9921Z" fill="#323C6B"/>
<path d="M18.6844 22.9921H17.9609C17.8491 22.9921 17.7419 22.9477 17.6628 22.8686C17.5837 22.7896 17.5393 22.6823 17.5393 22.5705C17.5393 22.4587 17.5837 22.3515 17.6628 22.2724C17.7419 22.1933 17.8491 22.1489 17.9609 22.1489H18.6844C18.7962 22.1489 18.9034 22.1933 18.9825 22.2724C19.0615 22.3515 19.106 22.4587 19.106 22.5705C19.106 22.6823 19.0615 22.7896 18.9825 22.8686C18.9034 22.9477 18.7962 22.9921 18.6844 22.9921Z" fill="#323C6B"/>
<path d="M24.0756 22.9921H23.3513C23.2395 22.9921 23.1322 22.9477 23.0532 22.8686C22.9741 22.7896 22.9297 22.6823 22.9297 22.5705C22.9297 22.4587 22.9741 22.3515 23.0532 22.2724C23.1322 22.1933 23.2395 22.1489 23.3513 22.1489H24.0756C24.1874 22.1489 24.2946 22.1933 24.3737 22.2724C24.4528 22.3515 24.4972 22.4587 24.4972 22.5705C24.4972 22.6823 24.4528 22.7896 24.3737 22.8686C24.2946 22.9477 24.1874 22.9921 24.0756 22.9921Z" fill="#323C6B"/>
<path d="M29.4654 22.9921H28.7419C28.6301 22.9921 28.5229 22.9477 28.4438 22.8686C28.3647 22.7896 28.3203 22.6823 28.3203 22.5705C28.3203 22.4587 28.3647 22.3515 28.4438 22.2724C28.5229 22.1933 28.6301 22.1489 28.7419 22.1489H29.4654C29.5772 22.1489 29.6844 22.1933 29.7635 22.2724C29.8425 22.3515 29.887 22.4587 29.887 22.5705C29.887 22.6823 29.8425 22.7896 29.7635 22.8686C29.6844 22.9477 29.5772 22.9921 29.4654 22.9921Z" fill="#323C6B"/>
<path d="M34.856 22.9921H34.1325C34.0207 22.9921 33.9135 22.9477 33.8344 22.8686C33.7554 22.7896 33.7109 22.6823 33.7109 22.5705C33.7109 22.4587 33.7554 22.3515 33.8344 22.2724C33.9135 22.1933 34.0207 22.1489 34.1325 22.1489H34.856C34.9678 22.1489 35.075 22.1933 35.1541 22.2724C35.2331 22.3515 35.2776 22.4587 35.2776 22.5705C35.2776 22.6823 35.2331 22.7896 35.1541 22.8686C35.075 22.9477 34.9678 22.9921 34.856 22.9921Z" fill="#323C6B"/>
<path d="M40.2465 22.9921H39.5222C39.4104 22.9921 39.3031 22.9477 39.2241 22.8686C39.145 22.7896 39.1006 22.6823 39.1006 22.5705C39.1006 22.4587 39.145 22.3515 39.2241 22.2724C39.3031 22.1933 39.4104 22.1489 39.5222 22.1489H40.2456C40.3574 22.1489 40.4647 22.1933 40.5437 22.2724C40.6228 22.3515 40.6672 22.4587 40.6672 22.5705C40.6672 22.6823 40.6228 22.7896 40.5437 22.8686C40.4647 22.9477 40.3574 22.9921 40.2456 22.9921H40.2465Z" fill="#323C6B"/>
<path d="M18.6844 27.9196H17.9609C17.8491 27.9196 17.7419 27.8752 17.6628 27.7961C17.5837 27.7171 17.5393 27.6098 17.5393 27.498C17.5393 27.3862 17.5837 27.279 17.6628 27.1999C17.7419 27.1208 17.8491 27.0764 17.9609 27.0764H18.6844C18.7962 27.0764 18.9034 27.1208 18.9825 27.1999C19.0615 27.279 19.106 27.3862 19.106 27.498C19.106 27.6098 19.0615 27.7171 18.9825 27.7961C18.9034 27.8752 18.7962 27.9196 18.6844 27.9196Z" fill="#323C6B"/>
<path d="M24.0756 27.9196H23.3513C23.2395 27.9196 23.1322 27.8752 23.0532 27.7961C22.9741 27.7171 22.9297 27.6098 22.9297 27.498C22.9297 27.3862 22.9741 27.279 23.0532 27.1999C23.1322 27.1208 23.2395 27.0764 23.3513 27.0764H24.0756C24.1874 27.0764 24.2946 27.1208 24.3737 27.1999C24.4528 27.279 24.4972 27.3862 24.4972 27.498C24.4972 27.6098 24.4528 27.7171 24.3737 27.7961C24.2946 27.8752 24.1874 27.9196 24.0756 27.9196Z" fill="#323C6B"/>
<path d="M29.4654 27.9196H28.7419C28.6301 27.9196 28.5229 27.8752 28.4438 27.7961C28.3647 27.7171 28.3203 27.6098 28.3203 27.498C28.3203 27.3862 28.3647 27.279 28.4438 27.1999C28.5229 27.1208 28.6301 27.0764 28.7419 27.0764H29.4654C29.5772 27.0764 29.6844 27.1208 29.7635 27.1999C29.8425 27.279 29.887 27.3862 29.887 27.498C29.887 27.6098 29.8425 27.7171 29.7635 27.7961C29.6844 27.8752 29.5772 27.9196 29.4654 27.9196Z" fill="#323C6B"/>
<path d="M34.856 27.9196H34.1325C34.0207 27.9196 33.9135 27.8752 33.8344 27.7961C33.7554 27.7171 33.7109 27.6098 33.7109 27.498C33.7109 27.3862 33.7554 27.279 33.8344 27.1999C33.9135 27.1208 34.0207 27.0764 34.1325 27.0764H34.856C34.9678 27.0764 35.075 27.1208 35.1541 27.1999C35.2331 27.279 35.2776 27.3862 35.2776 27.498C35.2776 27.6098 35.2331 27.7171 35.1541 27.7961C35.075 27.8752 34.9678 27.9196 34.856 27.9196Z" fill="#323C6B"/>
<path d="M40.2465 27.9196H39.5222C39.4104 27.9196 39.3031 27.8752 39.2241 27.7961C39.145 27.7171 39.1006 27.6098 39.1006 27.498C39.1006 27.3862 39.145 27.279 39.2241 27.1999C39.3031 27.1208 39.4104 27.0764 39.5222 27.0764H40.2456C40.3574 27.0764 40.4647 27.1208 40.5437 27.1999C40.6228 27.279 40.6672 27.3862 40.6672 27.498C40.6672 27.6098 40.6228 27.7171 40.5437 27.7961C40.4647 27.8752 40.3574 27.9196 40.2456 27.9196H40.2465Z" fill="#323C6B"/>
<path d="M18.6844 32.8464H17.9609C17.8491 32.8464 17.7419 32.8019 17.6628 32.7229C17.5837 32.6438 17.5393 32.5366 17.5393 32.4248C17.5393 32.313 17.5837 32.2057 17.6628 32.1267C17.7419 32.0476 17.8491 32.0032 17.9609 32.0032H18.6844C18.7962 32.0032 18.9034 32.0476 18.9825 32.1267C19.0615 32.2057 19.106 32.313 19.106 32.4248C19.106 32.5366 19.0615 32.6438 18.9825 32.7229C18.9034 32.8019 18.7962 32.8464 18.6844 32.8464Z" fill="#323C6B"/>
<path d="M24.0756 32.8464H23.3513C23.2395 32.8464 23.1322 32.8019 23.0532 32.7229C22.9741 32.6438 22.9297 32.5366 22.9297 32.4248C22.9297 32.313 22.9741 32.2057 23.0532 32.1267C23.1322 32.0476 23.2395 32.0032 23.3513 32.0032H24.0756C24.1874 32.0032 24.2946 32.0476 24.3737 32.1267C24.4528 32.2057 24.4972 32.313 24.4972 32.4248C24.4972 32.5366 24.4528 32.6438 24.3737 32.7229C24.2946 32.8019 24.1874 32.8464 24.0756 32.8464Z" fill="#323C6B"/>
<path d="M29.4654 32.8464H28.7419C28.6301 32.8464 28.5229 32.8019 28.4438 32.7229C28.3647 32.6438 28.3203 32.5366 28.3203 32.4248C28.3203 32.313 28.3647 32.2057 28.4438 32.1267C28.5229 32.0476 28.6301 32.0032 28.7419 32.0032H29.4654C29.5772 32.0032 29.6844 32.0476 29.7635 32.1267C29.8425 32.2057 29.887 32.313 29.887 32.4248C29.887 32.5366 29.8425 32.6438 29.7635 32.7229C29.6844 32.8019 29.5772 32.8464 29.4654 32.8464Z" fill="#323C6B"/>
<path d="M34.856 32.8464H34.1325C34.0207 32.8464 33.9135 32.8019 33.8344 32.7229C33.7554 32.6438 33.7109 32.5366 33.7109 32.4248C33.7109 32.313 33.7554 32.2057 33.8344 32.1267C33.9135 32.0476 34.0207 32.0032 34.1325 32.0032H34.856C34.9678 32.0032 35.075 32.0476 35.1541 32.1267C35.2331 32.2057 35.2776 32.313 35.2776 32.4248C35.2776 32.5366 35.2331 32.6438 35.1541 32.7229C35.075 32.8019 34.9678 32.8464 34.856 32.8464Z" fill="#323C6B"/>
<path d="M40.2465 32.8464H39.5222C39.4104 32.8464 39.3031 32.8019 39.2241 32.7229C39.145 32.6438 39.1006 32.5366 39.1006 32.4248C39.1006 32.313 39.145 32.2057 39.2241 32.1267C39.3031 32.0476 39.4104 32.0032 39.5222 32.0032H40.2456C40.3574 32.0032 40.4647 32.0476 40.5437 32.1267C40.6228 32.2057 40.6672 32.313 40.6672 32.4248C40.6672 32.5366 40.6228 32.6438 40.5437 32.7229C40.4647 32.8019 40.3574 32.8464 40.2456 32.8464H40.2465Z" fill="#323C6B"/>
<path d="M18.6844 37.7739H17.9609C17.8491 37.7739 17.7419 37.7294 17.6628 37.6504C17.5837 37.5713 17.5393 37.4641 17.5393 37.3523C17.5393 37.2404 17.5837 37.1332 17.6628 37.0541C17.7419 36.9751 17.8491 36.9307 17.9609 36.9307H18.6844C18.7962 36.9307 18.9034 36.9751 18.9825 37.0541C19.0615 37.1332 19.106 37.2404 19.106 37.3523C19.106 37.4641 19.0615 37.5713 18.9825 37.6504C18.9034 37.7294 18.7962 37.7739 18.6844 37.7739Z" fill="#323C6B"/>
<path d="M24.0756 37.7739H23.3513C23.2395 37.7739 23.1322 37.7294 23.0532 37.6504C22.9741 37.5713 22.9297 37.4641 22.9297 37.3523C22.9297 37.2404 22.9741 37.1332 23.0532 37.0541C23.1322 36.9751 23.2395 36.9307 23.3513 36.9307H24.0756C24.1874 36.9307 24.2946 36.9751 24.3737 37.0541C24.4528 37.1332 24.4972 37.2404 24.4972 37.3523C24.4972 37.4641 24.4528 37.5713 24.3737 37.6504C24.2946 37.7294 24.1874 37.7739 24.0756 37.7739Z" fill="#323C6B"/>
<path d="M29.4654 37.7739H28.7419C28.6301 37.7739 28.5229 37.7294 28.4438 37.6504C28.3647 37.5713 28.3203 37.4641 28.3203 37.3523C28.3203 37.2404 28.3647 37.1332 28.4438 37.0541C28.5229 36.9751 28.6301 36.9307 28.7419 36.9307H29.4654C29.5772 36.9307 29.6844 36.9751 29.7635 37.0541C29.8425 37.1332 29.887 37.2404 29.887 37.3523C29.887 37.4641 29.8425 37.5713 29.7635 37.6504C29.6844 37.7294 29.5772 37.7739 29.4654 37.7739Z" fill="#323C6B"/>
<path d="M34.856 37.7739H34.1325C34.0207 37.7739 33.9135 37.7294 33.8344 37.6504C33.7554 37.5713 33.7109 37.4641 33.7109 37.3523C33.7109 37.2404 33.7554 37.1332 33.8344 37.0541C33.9135 36.9751 34.0207 36.9307 34.1325 36.9307H34.856C34.9678 36.9307 35.075 36.9751 35.1541 37.0541C35.2331 37.1332 35.2776 37.2404 35.2776 37.3523C35.2776 37.4641 35.2331 37.5713 35.1541 37.6504C35.075 37.7294 34.9678 37.7739 34.856 37.7739Z" fill="#323C6B"/>
<path d="M40.2465 37.7739H39.5222C39.4104 37.7739 39.3031 37.7294 39.2241 37.6504C39.145 37.5713 39.1006 37.4641 39.1006 37.3523C39.1006 37.2404 39.145 37.1332 39.2241 37.0541C39.3031 36.9751 39.4104 36.9307 39.5222 36.9307H40.2456C40.3574 36.9307 40.4647 36.9751 40.5437 37.0541C40.6228 37.1332 40.6672 37.2404 40.6672 37.3523C40.6672 37.4641 40.6228 37.5713 40.5437 37.6504C40.4647 37.7294 40.3574 37.7739 40.2456 37.7739H40.2465Z" fill="#323C6B"/>
<path d="M18.6844 42.7016H17.9609C17.8491 42.7016 17.7419 42.6572 17.6628 42.5781C17.5837 42.499 17.5393 42.3918 17.5393 42.28C17.5393 42.1682 17.5837 42.0609 17.6628 41.9819C17.7419 41.9028 17.8491 41.8584 17.9609 41.8584H18.6844C18.7962 41.8584 18.9034 41.9028 18.9825 41.9819C19.0615 42.0609 19.106 42.1682 19.106 42.28C19.106 42.3918 19.0615 42.499 18.9825 42.5781C18.9034 42.6572 18.7962 42.7016 18.6844 42.7016Z" fill="#323C6B"/>
<path d="M24.0756 42.7016H23.3513C23.2395 42.7016 23.1322 42.6572 23.0532 42.5781C22.9741 42.499 22.9297 42.3918 22.9297 42.28C22.9297 42.1682 22.9741 42.0609 23.0532 41.9819C23.1322 41.9028 23.2395 41.8584 23.3513 41.8584H24.0756C24.1874 41.8584 24.2946 41.9028 24.3737 41.9819C24.4528 42.0609 24.4972 42.1682 24.4972 42.28C24.4972 42.3918 24.4528 42.499 24.3737 42.5781C24.2946 42.6572 24.1874 42.7016 24.0756 42.7016Z" fill="#323C6B"/>
<path d="M29.4654 42.7016H28.7419C28.6301 42.7016 28.5229 42.6572 28.4438 42.5781C28.3647 42.499 28.3203 42.3918 28.3203 42.28C28.3203 42.1682 28.3647 42.0609 28.4438 41.9819C28.5229 41.9028 28.6301 41.8584 28.7419 41.8584H29.4654C29.5772 41.8584 29.6844 41.9028 29.7635 41.9819C29.8425 42.0609 29.887 42.1682 29.887 42.28C29.887 42.3918 29.8425 42.499 29.7635 42.5781C29.6844 42.6572 29.5772 42.7016 29.4654 42.7016Z" fill="#323C6B"/>
<path d="M34.856 42.7016H34.1325C34.0207 42.7016 33.9135 42.6572 33.8344 42.5781C33.7554 42.499 33.7109 42.3918 33.7109 42.28C33.7109 42.1682 33.7554 42.0609 33.8344 41.9819C33.9135 41.9028 34.0207 41.8584 34.1325 41.8584H34.856C34.9678 41.8584 35.075 41.9028 35.1541 41.9819C35.2331 42.0609 35.2776 42.1682 35.2776 42.28C35.2776 42.3918 35.2331 42.499 35.1541 42.5781C35.075 42.6572 34.9678 42.7016 34.856 42.7016Z" fill="#323C6B"/>
<path d="M40.2465 42.7016H39.5222C39.4104 42.7016 39.3031 42.6572 39.2241 42.5781C39.145 42.499 39.1006 42.3918 39.1006 42.28C39.1006 42.1682 39.145 42.0609 39.2241 41.9819C39.3031 41.9028 39.4104 41.8584 39.5222 41.8584H40.2456C40.3574 41.8584 40.4647 41.9028 40.5437 41.9819C40.6228 42.0609 40.6672 42.1682 40.6672 42.28C40.6672 42.3918 40.6228 42.499 40.5437 42.5781C40.4647 42.6572 40.3574 42.7016 40.2456 42.7016H40.2465Z" fill="#323C6B"/>
<path d="M49.6327 57.7684C49.5209 57.7745 49.4112 57.736 49.3278 57.6613C49.2444 57.5866 49.194 57.4818 49.1879 57.37C49.1817 57.2582 49.2203 57.1485 49.295 57.0651C49.3697 56.9817 49.4745 56.9314 49.5863 56.9252C50.7379 56.7962 51.8014 56.2472 52.5736 55.3832C53.3458 54.5192 53.7725 53.4009 53.7719 52.2422V51.3054C53.7719 51.1936 53.8163 51.0863 53.8954 51.0073C53.9744 50.9282 54.0817 50.8838 54.1935 50.8838C54.3053 50.8838 54.4125 50.9282 54.4916 51.0073C54.5707 51.0863 54.6151 51.1936 54.6151 51.3054V52.243C54.6163 53.6098 54.1134 54.929 53.2027 55.9482C52.2919 56.9673 51.0374 57.6148 49.6791 57.7667L49.6327 57.7684Z" fill="#323C6B"/>
<path d="M47.8418 57.8029H47.0517C46.9399 57.8029 46.8327 57.7585 46.7536 57.6794C46.6745 57.6004 46.6301 57.4931 46.6301 57.3813C46.6301 57.2695 46.6745 57.1623 46.7536 57.0832C46.8327 57.0041 46.9399 56.9597 47.0517 56.9597H47.8426C47.9544 56.9597 48.0617 57.0041 48.1407 57.0832C48.2198 57.1623 48.2642 57.2695 48.2642 57.3813C48.2642 57.4931 48.2198 57.6004 48.1407 57.6794C48.0617 57.7585 47.9544 57.8029 47.8426 57.8029H47.8418Z" fill="#323C6B"/>
<path d="M4.28292 14.7709C4.17111 14.7709 4.06387 14.7265 3.98481 14.6474C3.90575 14.5683 3.86133 14.4611 3.86133 14.3493V14.1916C3.86133 14.0798 3.90575 13.9726 3.98481 13.8935C4.06387 13.8144 4.17111 13.77 4.28292 13.77C4.39473 13.77 4.50197 13.8144 4.58103 13.8935C4.6601 13.9726 4.70451 14.0798 4.70451 14.1916V14.3501C4.70429 14.4618 4.65977 14.5688 4.58073 14.6477C4.50169 14.7266 4.39459 14.7709 4.28292 14.7709Z" fill="#323C6B"/>
<path d="M4.30203 12.663H4.27168C4.21642 12.6591 4.16246 12.6444 4.11288 12.6197C4.0633 12.595 4.01908 12.5608 3.98275 12.5189C3.94641 12.4771 3.91868 12.4286 3.90112 12.376C3.88357 12.3235 3.87654 12.268 3.88044 12.2127C3.98383 10.8124 4.61173 9.50266 5.63869 8.5451C6.66565 7.58754 8.01607 7.05268 9.42018 7.04736H10.3949C10.5067 7.04736 10.614 7.09178 10.693 7.17084C10.7721 7.24991 10.8165 7.35714 10.8165 7.46896C10.8165 7.58077 10.7721 7.688 10.693 7.76707C10.614 7.84613 10.5067 7.89055 10.3949 7.89055H9.42018C8.22862 7.89503 7.08267 8.34912 6.21145 9.16202C5.34024 9.97492 4.80798 11.0867 4.7211 12.2751C4.71264 12.3806 4.66485 12.479 4.58723 12.5508C4.5096 12.6226 4.40781 12.6627 4.30203 12.663Z" fill="#323C6B"/>
<path d="M49.0578 55.2734H9.42042C8.61682 55.2723 7.84646 54.9526 7.27823 54.3844C6.71 53.8161 6.39028 53.0458 6.38916 52.2422V12.6073C6.3905 11.8039 6.71032 11.0337 7.27852 10.4657C7.84673 9.89763 8.61697 9.57802 9.42042 9.5769H49.0578C49.8607 9.57891 50.63 9.89891 51.1975 10.4669C51.765 11.0348 52.0843 11.8045 52.0857 12.6073V52.2422C52.0846 53.0452 51.7653 53.815 51.1978 54.3832C50.6303 54.9513 49.8608 55.2714 49.0578 55.2734ZM9.42042 10.4201C8.84045 10.4212 8.28455 10.6521 7.87445 11.0622C7.46435 11.4723 7.23346 12.0282 7.23235 12.6082V52.2422C7.23346 52.8221 7.46435 53.378 7.87445 53.7881C8.28455 54.1982 8.84045 54.4291 9.42042 54.4302H49.0578C49.6372 54.4282 50.1922 54.197 50.6016 53.7869C51.011 53.3769 51.2414 52.8216 51.2425 52.2422V12.6073C51.2414 12.0273 51.0105 11.4715 50.6004 11.0613C50.1903 10.6512 49.6344 10.4204 49.0544 10.4192L9.42042 10.4201Z" fill="#323C6B"/>
<path d="M9.67307 44.4747C9.52771 44.4747 9.38831 44.4169 9.28553 44.3141C9.18274 44.2113 9.125 44.0719 9.125 43.9266V43.2419C9.125 43.0966 9.18274 42.9572 9.28553 42.8544C9.38831 42.7516 9.52771 42.6938 9.67307 42.6938C9.81843 42.6938 9.95783 42.7516 10.0606 42.8544C10.1634 42.9572 10.2211 43.0966 10.2211 43.2419V43.9232C10.2216 43.9955 10.2077 44.0671 10.1804 44.134C10.1531 44.2009 10.1128 44.2617 10.0618 44.3129C10.0109 44.3642 9.95031 44.4049 9.88359 44.4326C9.81688 44.4604 9.74533 44.4747 9.67307 44.4747Z" fill="white"/>
<path d="M13.2776 51.9454H12.2793C11.4421 51.9445 10.6394 51.6115 10.0474 51.0195C9.45545 50.4275 9.12247 49.6248 9.12158 48.7876V46.0051C9.12158 45.8597 9.17932 45.7203 9.28211 45.6176C9.38489 45.5148 9.5243 45.457 9.66965 45.457C9.81501 45.457 9.95441 45.5148 10.0572 45.6176C10.16 45.7203 10.2177 45.8597 10.2177 46.0051V48.7876C10.2182 49.3341 10.4354 49.8581 10.8217 50.2446C11.2081 50.6311 11.732 50.8485 12.2785 50.8492H13.2768C13.4222 50.8492 13.5616 50.907 13.6643 51.0097C13.7671 51.1125 13.8249 51.2519 13.8249 51.3973C13.8249 51.5426 13.7671 51.682 13.6643 51.7848C13.5616 51.8876 13.4222 51.9454 13.2768 51.9454H13.2776Z" fill="white"/>
<path d="M41.5994 48.5036H16.8789C16.8235 48.5037 16.7686 48.4928 16.7174 48.4717C16.6661 48.4506 16.6196 48.4196 16.5804 48.3804L13.2835 45.0844C13.2444 45.0452 13.2134 44.9986 13.1922 44.9474C13.1711 44.8962 13.1603 44.8413 13.1604 44.7859V20.0645C13.1603 20.0091 13.1711 19.9543 13.1922 19.903C13.2134 19.8518 13.2444 19.8053 13.2835 19.766L16.5804 16.47C16.6196 16.4309 16.6661 16.3999 16.7174 16.3788C16.7686 16.3576 16.8235 16.3468 16.8789 16.3469H41.5994C41.6548 16.3468 41.7097 16.3576 41.7609 16.3788C41.8121 16.3999 41.8587 16.4309 41.8979 16.47L45.1939 19.766C45.233 19.8053 45.2641 19.8518 45.2852 19.903C45.3063 19.9543 45.3171 20.0091 45.317 20.0645V44.7859C45.3171 44.8413 45.3063 44.8962 45.2852 44.9474C45.2641 44.9986 45.233 45.0452 45.1939 45.0844L41.8979 48.3804C41.8587 48.4196 41.8121 48.4506 41.7609 48.4717C41.7097 48.4928 41.6548 48.5037 41.5994 48.5036ZM17.0542 47.6604H41.4223L44.4713 44.6114V20.2433L41.4249 17.1876H17.0568L14.007 20.2365V44.6047L17.0542 47.6604Z" fill="#323C6B"/>
</g>
<defs>
<clipPath id="clip0">
<rect width="62.3958" height="62.3958" fill="white" transform="translate(0.735352 0.239502)"/>
</clipPath>
</defs>
</svg>
