<svg width="61" height="62" viewBox="0 0 61 62" fill="none" xmlns="http://www.w3.org/2000/svg">
<g clip-path="url(#clip0)">
<path d="M35.03 42.9776V39.0865C35.03 38.5728 35.2299 38.0801 35.5858 37.7169C35.9416 37.3536 36.4242 37.1496 36.9274 37.1496C37.4306 37.1496 37.9132 37.3536 38.269 37.7169C38.6249 38.0801 38.8248 38.5728 38.8248 39.0865V42.9768H56.8352V23.1963C56.2434 23.1963 55.6757 22.9563 55.2572 22.529C54.8387 22.1018 54.6036 21.5223 54.6036 20.9181C54.6036 20.3139 54.8387 19.7344 55.2572 19.3072C55.6757 18.88 56.2434 18.6399 56.8352 18.6399V12.321H1.79199V18.6399C2.38387 18.6399 2.95151 18.88 3.37003 19.3072C3.78855 19.7344 4.02367 20.3139 4.02367 20.9181C4.02367 21.5223 3.78855 22.1018 3.37003 22.529C2.95151 22.9563 2.38387 23.1963 1.79199 23.1963V42.9776H35.03Z" fill="#124E61"/>
<path d="M1.79199 38.7461V42.9777H35.03V39.0865C35.0315 38.9723 35.0428 38.8583 35.064 38.7461H1.79199Z" fill="#FCD462"/>
<path d="M38.791 38.7461C38.8122 38.8583 38.8236 38.9723 38.825 39.0865V42.9769H56.8355V38.7461H38.791Z" fill="#FCD462"/>
<path d="M54.5793 21.1961C53.9879 21.1961 53.4206 21.4359 53.0024 21.8628C52.5842 22.2898 52.3492 22.8688 52.3492 23.4726C52.3492 24.0764 52.5842 24.6554 53.0024 25.0823C53.4206 25.5093 53.9879 25.7491 54.5793 25.7491V38.8149H56.8377V23.1974C56.2463 23.1974 55.679 22.9576 55.2608 22.5306C54.8426 22.1037 54.6076 21.5247 54.6076 20.9209C54.6076 20.3171 54.8426 19.7381 55.2608 19.3112C55.679 18.8842 56.2463 18.6444 56.8377 18.6444V12.323H1.79443V14.8763H54.5793V21.1961Z" fill="#1F7C99"/>
<path d="M6.3266 43.3909C6.21926 43.3909 6.11632 43.3474 6.04042 43.2699C5.96452 43.1924 5.92188 43.0873 5.92188 42.9778V39.9344C5.92188 39.8248 5.96452 39.7197 6.04042 39.6423C6.11632 39.5648 6.21926 39.5212 6.3266 39.5212C6.43395 39.5212 6.53689 39.5648 6.61279 39.6423C6.68869 39.7197 6.73133 39.8248 6.73133 39.9344V42.9778C6.73133 43.0873 6.68869 43.1924 6.61279 43.2699C6.53689 43.3474 6.43395 43.3909 6.3266 43.3909Z" fill="#323C6B"/>
<path d="M11.5097 43.3909C11.4024 43.3909 11.2994 43.3474 11.2235 43.2699C11.1476 43.1924 11.105 43.0873 11.105 42.9778V39.9344C11.105 39.8248 11.1476 39.7197 11.2235 39.6423C11.2994 39.5648 11.4024 39.5212 11.5097 39.5212C11.617 39.5212 11.72 39.5648 11.7959 39.6423C11.8718 39.7197 11.9144 39.8248 11.9144 39.9344V42.9778C11.9144 43.0873 11.8718 43.1924 11.7959 43.2699C11.72 43.3474 11.617 43.3909 11.5097 43.3909Z" fill="#323C6B"/>
<path d="M16.6918 43.3909C16.5845 43.3909 16.4816 43.3474 16.4057 43.2699C16.3298 43.1924 16.2871 43.0873 16.2871 42.9778V39.9344C16.2871 39.8248 16.3298 39.7197 16.4057 39.6423C16.4816 39.5648 16.5845 39.5212 16.6918 39.5212C16.7992 39.5212 16.9021 39.5648 16.978 39.6423C17.0539 39.7197 17.0966 39.8248 17.0966 39.9344V42.9778C17.0966 43.0873 17.0539 43.1924 16.978 43.2699C16.9021 43.3474 16.7992 43.3909 16.6918 43.3909Z" fill="#323C6B"/>
<path d="M21.8749 43.3909C21.7676 43.3909 21.6647 43.3474 21.5888 43.2699C21.5129 43.1924 21.4702 43.0873 21.4702 42.9778V39.9344C21.4702 39.8248 21.5129 39.7197 21.5888 39.6423C21.6647 39.5648 21.7676 39.5212 21.8749 39.5212C21.9823 39.5212 22.0852 39.5648 22.1611 39.6423C22.237 39.7197 22.2797 39.8248 22.2797 39.9344V42.9778C22.2797 43.0873 22.237 43.1924 22.1611 43.2699C22.0852 43.3474 21.9823 43.3909 21.8749 43.3909Z" fill="#323C6B"/>
<path d="M27.0571 43.3909C26.9497 43.3909 26.8468 43.3474 26.7709 43.2699C26.695 43.1924 26.6523 43.0873 26.6523 42.9778V39.9344C26.6523 39.8248 26.695 39.7197 26.7709 39.6423C26.8468 39.5648 26.9497 39.5212 27.0571 39.5212C27.1644 39.5212 27.2674 39.5648 27.3433 39.6423C27.4192 39.7197 27.4618 39.8248 27.4618 39.9344V42.9778C27.4618 43.0873 27.4192 43.1924 27.3433 43.2699C27.2674 43.3474 27.1644 43.3909 27.0571 43.3909Z" fill="#323C6B"/>
<path d="M32.2402 43.3909C32.1328 43.3909 32.0299 43.3474 31.954 43.2699C31.8781 43.1924 31.8354 43.0873 31.8354 42.9778V39.9344C31.8354 39.8248 31.8781 39.7197 31.954 39.6423C32.0299 39.5648 32.1328 39.5212 32.2402 39.5212C32.3475 39.5212 32.4505 39.5648 32.5264 39.6423C32.6023 39.7197 32.6449 39.8248 32.6449 39.9344V42.9778C32.6449 43.0873 32.6023 43.1924 32.5264 43.2699C32.4505 43.3474 32.3475 43.3909 32.2402 43.3909Z" fill="#323C6B"/>
<path d="M42.6049 43.3909C42.4976 43.3909 42.3946 43.3474 42.3187 43.2699C42.2428 43.1924 42.2002 43.0873 42.2002 42.9778V39.9344C42.2002 39.8248 42.2428 39.7197 42.3187 39.6423C42.3946 39.5648 42.4976 39.5212 42.6049 39.5212C42.7123 39.5212 42.8152 39.5648 42.8911 39.6423C42.967 39.7197 43.0097 39.8248 43.0097 39.9344V42.9778C43.0097 43.0873 42.967 43.1924 42.8911 43.2699C42.8152 43.3474 42.7123 43.3909 42.6049 43.3909Z" fill="#323C6B"/>
<path d="M47.7875 43.3909C47.6802 43.3909 47.5773 43.3474 47.5014 43.2699C47.4255 43.1924 47.3828 43.0873 47.3828 42.9778V39.9344C47.3828 39.8248 47.4255 39.7197 47.5014 39.6423C47.5773 39.5648 47.6802 39.5212 47.7875 39.5212C47.8949 39.5212 47.9978 39.5648 48.0737 39.6423C48.1496 39.7197 48.1923 39.8248 48.1923 39.9344V42.9778C48.1923 43.0873 48.1496 43.1924 48.0737 43.2699C47.9978 43.3474 47.8949 43.3909 47.7875 43.3909Z" fill="#323C6B"/>
<path d="M52.9697 43.3909C52.8623 43.3909 52.7594 43.3474 52.6835 43.2699C52.6076 43.1924 52.5649 43.0873 52.5649 42.9778V39.9344C52.5649 39.8248 52.6076 39.7197 52.6835 39.6423C52.7594 39.5648 52.8623 39.5212 52.9697 39.5212C53.077 39.5212 53.18 39.5648 53.2559 39.6423C53.3318 39.7197 53.3744 39.8248 53.3744 39.9344V42.9778C53.3744 43.0873 53.3318 43.1924 53.2559 43.2699C53.18 43.3474 53.077 43.3909 52.9697 43.3909Z" fill="#323C6B"/>
<path d="M8.40967 16.7263H15.7741V23.8211H8.40967V16.7263Z" fill="#BBBBCD"/>
<path d="M21.9492 16.7263H29.3137V23.8211H21.9492V16.7263Z" fill="#BBBBCD"/>
<path d="M43.522 16.7263H50.8864V23.8211H43.522V16.7263Z" fill="#BBBBCD"/>
<path d="M8.40967 27.9246H15.7741V35.0194H8.40967V27.9246Z" fill="#BBBBCD"/>
<path d="M21.9492 27.9246H29.3137V35.0194H21.9492V27.9246Z" fill="#BBBBCD"/>
<path d="M43.522 27.9246H50.8864V35.0194H43.522V27.9246Z" fill="#BBBBCD"/>
<path d="M15.7738 16.7256V23.8237H14.0173V16.7264H8.40771V16.7256H15.7738Z" fill="#9297AB"/>
<path d="M29.3163 16.7256V23.8237H27.5597V16.7264H21.9502V16.7256H29.3163Z" fill="#9297AB"/>
<path d="M50.888 16.7256V23.8237H49.1315V16.7264H43.522V16.7256H50.888Z" fill="#9297AB"/>
<path d="M15.7738 27.9221V35.0202H14.0173V27.9229H8.40771V27.9221H15.7738Z" fill="#9297AB"/>
<path d="M29.3163 27.9221V35.0202H27.5597V27.9229H21.9502V27.9221H29.3163Z" fill="#9297AB"/>
<path d="M50.888 27.9221V35.0202H49.1315V27.9229H43.522V27.9221H50.888Z" fill="#9297AB"/>
<path d="M59.5978 45.87H52.9692C52.8618 45.87 52.7589 45.8265 52.683 45.749C52.6071 45.6715 52.5645 45.5664 52.5645 45.4568C52.5645 45.3473 52.6071 45.2422 52.683 45.1647C52.7589 45.0872 52.8618 45.0437 52.9692 45.0437H59.1931V41.9036C59.1931 41.7941 59.2358 41.689 59.3117 41.6115C59.3876 41.534 59.4905 41.4905 59.5978 41.4905C59.7052 41.4905 59.8081 41.534 59.884 41.6115C59.9599 41.689 60.0026 41.7941 60.0026 41.9036V45.4568C60.0026 45.5664 59.9599 45.6715 59.884 45.749C59.8081 45.8265 59.7052 45.87 59.5978 45.87Z" fill="#323C6B"/>
<path d="M59.5981 40.2509C59.4907 40.2509 59.3878 40.2074 59.3119 40.1299C59.236 40.0525 59.1934 39.9474 59.1934 39.8378V39.356C59.1934 39.2465 59.236 39.1414 59.3119 39.0639C59.3878 38.9864 59.4907 38.9429 59.5981 38.9429C59.7054 38.9429 59.8084 38.9864 59.8843 39.0639C59.9602 39.1414 60.0028 39.2465 60.0028 39.356V39.8378C60.0028 39.9474 59.9602 40.0525 59.8843 40.1299C59.8084 40.2074 59.7054 40.2509 59.5981 40.2509Z" fill="#323C6B"/>
<path d="M35.7868 10.2282H27.3886C27.2813 10.2282 27.1783 10.1846 27.1024 10.1072C27.0265 10.0297 26.9839 9.92459 26.9839 9.81502C26.9839 9.70544 27.0265 9.60035 27.1024 9.52287C27.1783 9.44538 27.2813 9.40186 27.3886 9.40186H35.7868C35.8941 9.40186 35.9971 9.44538 36.073 9.52287C36.1489 9.60035 36.1915 9.70544 36.1915 9.81502C36.1915 9.92459 36.1489 10.0297 36.073 10.1072C35.9971 10.1846 35.8941 10.2282 35.7868 10.2282Z" fill="#323C6B"/>
<path d="M25.1961 10.2282H24.3535C24.2461 10.2282 24.1432 10.1846 24.0673 10.1072C23.9914 10.0297 23.9487 9.92459 23.9487 9.81502C23.9487 9.70544 23.9914 9.60035 24.0673 9.52287C24.1432 9.44538 24.2461 9.40186 24.3535 9.40186H25.1969C25.3043 9.40186 25.4072 9.44538 25.4831 9.52287C25.559 9.60035 25.6016 9.70544 25.6016 9.81502C25.6016 9.92459 25.559 10.0297 25.4831 10.1072C25.4072 10.1846 25.3043 10.2282 25.1969 10.2282H25.1961Z" fill="#323C6B"/>
<path d="M56.8353 43.3911H38.8248C38.7175 43.3911 38.6146 43.3476 38.5387 43.2701C38.4628 43.1926 38.4201 43.0875 38.4201 42.978V39.0876C38.411 38.6898 38.2498 38.3113 37.971 38.0332C37.6921 37.7551 37.3177 37.5994 36.9279 37.5994C36.538 37.5994 36.1636 37.7551 35.8848 38.0332C35.6059 38.3113 35.4447 38.6898 35.4356 39.0876V42.978C35.4356 43.0875 35.393 43.1926 35.3171 43.2701C35.2412 43.3476 35.1383 43.3911 35.0309 43.3911H1.79208C1.68474 43.3911 1.58179 43.3476 1.50589 43.2701C1.42999 43.1926 1.38735 43.0875 1.38735 42.978V23.1966C1.38734 23.088 1.4292 22.9838 1.50388 22.9065C1.57856 22.8292 1.68006 22.785 1.78641 22.7834C2.26643 22.775 2.72416 22.5752 3.06167 22.2266C3.39917 21.8781 3.58964 21.4085 3.59232 20.9184C3.59381 20.6745 3.54813 20.4328 3.45791 20.2069C3.36769 19.9811 3.2347 19.7757 3.06656 19.6024C2.89841 19.4292 2.69842 19.2915 2.47806 19.1973C2.25769 19.1031 2.02127 19.0542 1.78236 19.0534C1.67601 19.0519 1.57451 19.0077 1.49983 18.9304C1.42515 18.8531 1.38329 18.7488 1.3833 18.6403V12.3214C1.3833 12.2118 1.42594 12.1067 1.50184 12.0292C1.57774 11.9517 1.68069 11.9082 1.78803 11.9082H56.8313C56.9386 11.9082 57.0416 11.9517 57.1175 12.0292C57.1934 12.1067 57.236 12.2118 57.236 12.3214V18.6403C57.236 18.7488 57.1941 18.8531 57.1195 18.9304C57.0448 19.0077 56.9433 19.0519 56.8369 19.0534C56.5984 19.0547 56.3624 19.104 56.1425 19.1985C55.9226 19.2929 55.7231 19.4307 55.5554 19.6039C55.3876 19.7771 55.255 19.9823 55.165 20.2079C55.0751 20.4334 55.0295 20.6749 55.031 20.9184C55.0337 21.4085 55.2242 21.8781 55.5617 22.2266C55.8992 22.5752 56.3569 22.775 56.8369 22.7834C56.9433 22.785 57.0448 22.8292 57.1195 22.9065C57.1941 22.9838 57.236 23.088 57.236 23.1966V42.978C57.236 43.0868 57.1939 43.1913 57.1189 43.2687C57.0439 43.346 56.942 43.39 56.8353 43.3911ZM39.2296 42.5648H56.4306V23.5726C55.8161 23.4652 55.2583 23.1403 54.8551 22.655C54.4519 22.1696 54.229 21.5548 54.2256 20.9184C54.221 20.2796 54.441 19.6604 54.8456 19.173C55.2502 18.6857 55.8125 18.3627 56.4306 18.2626V12.7345H2.19681V18.2626C2.81485 18.3627 3.37725 18.6857 3.78184 19.173C4.18644 19.6604 4.4064 20.2796 4.40178 20.9184C4.39835 21.5548 4.17547 22.1696 3.77226 22.655C3.36905 23.1403 2.81127 23.4652 2.19681 23.5726V42.5648H34.6254V39.0876C34.6254 38.4644 34.8679 37.8666 35.2996 37.4259C35.7314 36.9852 36.3169 36.7376 36.9275 36.7376C37.538 36.7376 38.1236 36.9852 38.5553 37.4259C38.987 37.8666 39.2296 38.4644 39.2296 39.0876V42.5648Z" fill="#323C6B"/>
<path d="M15.7747 24.2344H8.40864C8.3013 24.2344 8.19835 24.1908 8.12245 24.1134C8.04655 24.0359 8.00391 23.9308 8.00391 23.8212V16.7264C8.00391 16.6168 8.04655 16.5117 8.12245 16.4342C8.19835 16.3568 8.3013 16.3132 8.40864 16.3132H15.7747C15.8821 16.3132 15.985 16.3568 16.0609 16.4342C16.1368 16.5117 16.1795 16.6168 16.1795 16.7264V23.8212C16.1795 23.9308 16.1368 24.0359 16.0609 24.1134C15.985 24.1908 15.8821 24.2344 15.7747 24.2344ZM8.81337 23.408H15.37V17.1396H8.81337V23.408Z" fill="#323C6B"/>
<path d="M29.3138 24.2344H21.9477C21.8404 24.2344 21.7374 24.1908 21.6615 24.1134C21.5856 24.0359 21.543 23.9308 21.543 23.8212V16.7264C21.543 16.6168 21.5856 16.5117 21.6615 16.4342C21.7374 16.3568 21.8404 16.3132 21.9477 16.3132H29.3138C29.4211 16.3132 29.5241 16.3568 29.6 16.4342C29.6759 16.5117 29.7185 16.6168 29.7185 16.7264V23.8212C29.7185 23.9308 29.6759 24.0359 29.6 24.1134C29.5241 24.1908 29.4211 24.2344 29.3138 24.2344ZM22.3524 23.408H28.9091V17.1396H22.3524V23.408Z" fill="#323C6B"/>
<path d="M50.8865 24.2344H43.5205C43.4131 24.2344 43.3102 24.1908 43.2343 24.1134C43.1584 24.0359 43.1157 23.9308 43.1157 23.8212V16.7264C43.1157 16.6168 43.1584 16.5117 43.2343 16.4342C43.3102 16.3568 43.4131 16.3132 43.5205 16.3132H50.8865C50.9939 16.3132 51.0968 16.3568 51.1727 16.4342C51.2486 16.5117 51.2913 16.6168 51.2913 16.7264V23.8212C51.2913 23.9308 51.2486 24.0359 51.1727 24.1134C51.0968 24.1908 50.9939 24.2344 50.8865 24.2344ZM43.9252 23.408H50.4818V17.1396H43.9252V23.408Z" fill="#323C6B"/>
<path d="M15.7747 35.4328H8.40864C8.3013 35.4328 8.19835 35.3892 8.12245 35.3117C8.04655 35.2343 8.00391 35.1292 8.00391 35.0196V27.9215C8.00391 27.8119 8.04655 27.7068 8.12245 27.6293C8.19835 27.5518 8.3013 27.5083 8.40864 27.5083H15.7747C15.8821 27.5083 15.985 27.5518 16.0609 27.6293C16.1368 27.7068 16.1795 27.8119 16.1795 27.9215V35.0196C16.1795 35.1292 16.1368 35.2343 16.0609 35.3117C15.985 35.3892 15.8821 35.4328 15.7747 35.4328ZM8.81337 34.6064H15.37V28.3346H8.81337V34.6064Z" fill="#323C6B"/>
<path d="M29.3138 35.4328H21.9477C21.8404 35.4328 21.7374 35.3892 21.6615 35.3117C21.5856 35.2343 21.543 35.1292 21.543 35.0196V27.9215C21.543 27.8119 21.5856 27.7068 21.6615 27.6293C21.7374 27.5518 21.8404 27.5083 21.9477 27.5083H29.3138C29.4211 27.5083 29.5241 27.5518 29.6 27.6293C29.6759 27.7068 29.7185 27.8119 29.7185 27.9215V35.0196C29.7185 35.1292 29.6759 35.2343 29.6 35.3117C29.5241 35.3892 29.4211 35.4328 29.3138 35.4328ZM22.3524 34.6064H28.9091V28.3346H22.3524V34.6064Z" fill="#323C6B"/>
<path d="M50.8865 35.4328H43.5205C43.4131 35.4328 43.3102 35.3892 43.2343 35.3117C43.1584 35.2343 43.1157 35.1292 43.1157 35.0196V27.9215C43.1157 27.8119 43.1584 27.7068 43.2343 27.6293C43.3102 27.5518 43.4131 27.5083 43.5205 27.5083H50.8865C50.9939 27.5083 51.0968 27.5518 51.1727 27.6293C51.2486 27.7068 51.2913 27.8119 51.2913 27.9215V35.0196C51.2913 35.1292 51.2486 35.2343 51.1727 35.3117C51.0968 35.3892 50.9939 35.4328 50.8865 35.4328ZM43.9252 34.6064H50.4818V28.3346H43.9252V34.6064Z" fill="#323C6B"/>
<path d="M4.40359 37.362C4.26405 37.362 4.13022 37.3054 4.03155 37.2047C3.93287 37.104 3.87744 36.9673 3.87744 36.8249V29.8838C3.87744 29.8133 3.89105 29.7434 3.91749 29.6782C3.94393 29.6131 3.98269 29.5539 4.03155 29.504C4.0804 29.4541 4.13841 29.4146 4.20224 29.3876C4.26608 29.3606 4.3345 29.3467 4.40359 29.3467C4.47269 29.3467 4.5411 29.3606 4.60494 29.3876C4.66878 29.4146 4.72678 29.4541 4.77563 29.504C4.82449 29.5539 4.86325 29.6131 4.88969 29.6782C4.91613 29.7434 4.92974 29.8133 4.92974 29.8838V36.8249C4.92974 36.9673 4.87431 37.104 4.77563 37.2047C4.67696 37.3054 4.54313 37.362 4.40359 37.362Z" fill="white"/>
<path d="M4.40359 28.1865C4.26405 28.1865 4.13022 28.1299 4.03155 28.0292C3.93287 27.9284 3.87744 27.7918 3.87744 27.6494V26.7883C3.87744 26.7178 3.89105 26.648 3.91749 26.5828C3.94393 26.5176 3.98269 26.4584 4.03155 26.4085C4.0804 26.3587 4.13841 26.3191 4.20224 26.2921C4.26608 26.2651 4.3345 26.2512 4.40359 26.2512C4.47269 26.2512 4.5411 26.2651 4.60494 26.2921C4.66878 26.3191 4.72678 26.3587 4.77563 26.4085C4.82449 26.4584 4.86325 26.5176 4.88969 26.5828C4.91613 26.648 4.92974 26.7178 4.92974 26.7883V27.6494C4.92974 27.7918 4.87431 27.9284 4.77563 28.0292C4.67696 28.1299 4.54313 28.1865 4.40359 28.1865Z" fill="white"/>
</g>
<defs>
<clipPath id="clip0">
<rect width="59.9" height="61.1479" fill="white" transform="translate(0.487305 0.735352)"/>
</clipPath>
</defs>
</svg>
