<svg width="59" height="59" viewBox="0 0 59 59" fill="none" xmlns="http://www.w3.org/2000/svg">
<g clip-path="url(#clip0)">
<path d="M27.6346 50.0671V53.6549H22.2529V50.0671H24.9527H27.6346Z" fill="#FFCE54"/>
<path d="M41.0976 53.6549H27.6345V50.0671H30.3343H33.0251H35.716H38.4068H41.0976V53.6549Z" fill="#FFCE54"/>
<path d="M48.2731 50.0671V53.6549C48.2731 55.6282 46.6586 57.2427 44.6853 57.2427H14.1893C12.2161 57.2427 10.6016 55.6282 10.6016 53.6549V50.0671C10.6016 52.0404 12.2161 53.6549 14.1893 53.6549H22.2528H27.6345H41.0975H44.6853C46.6586 53.6549 48.2731 52.0404 48.2731 50.0671Z" fill="#1F7C99"/>
<path d="M44.8025 1.98315H14.3065C12.3332 1.98315 10.7188 3.59765 10.7188 5.57092V9.15868V50.4179C10.7188 52.3912 12.3332 54.0057 14.3065 54.0057H22.37V50.4179H25.0698H27.7516H30.4514H33.1423H35.8331H38.5239H41.2147V54.0057H44.8025C46.7758 54.0057 48.3902 52.3912 48.3902 50.4179V9.15868V5.57092C48.3902 3.59765 46.7758 1.98315 44.8025 1.98315Z" fill="#124E61"/>
<path d="M44.6855 54.5509H14.1895C11.7167 54.5509 9.70483 52.539 9.70483 50.0662V5.22005C9.70483 2.74719 11.7167 0.735352 14.1895 0.735352H44.6855C47.1584 0.735352 49.1702 2.74719 49.1702 5.22005V50.0662C49.1702 52.539 47.1584 54.5509 44.6855 54.5509ZM14.1895 2.52923C12.706 2.52923 11.4987 3.73651 11.4987 5.22005V50.0662C11.4987 51.5497 12.706 52.757 14.1895 52.757H44.6855C46.169 52.757 47.3763 51.5497 47.3763 50.0662V5.22005C47.3763 3.73651 46.169 2.52923 44.6855 2.52923H14.1895Z" fill="black"/>
<path d="M44.7125 6.11688C44.2164 6.11688 43.811 5.71595 43.811 5.21994C43.811 4.72393 44.2075 4.323 44.7026 4.323H44.7125C45.2076 4.323 45.6094 4.72393 45.6094 5.21994C45.6094 5.71595 45.2076 6.11688 44.7125 6.11688Z" fill="black"/>
<path d="M14.2164 6.11688C13.7204 6.11688 13.3149 5.71595 13.3149 5.21994C13.3149 4.72393 13.7114 4.323 14.2065 4.323H14.2164C14.7115 4.323 15.1133 4.72393 15.1133 5.21994C15.1133 5.71595 14.7115 6.11688 14.2164 6.11688Z" fill="black"/>
<path d="M44.7125 51.0077C44.2164 51.0077 43.811 50.6068 43.811 50.1108C43.811 49.6148 44.2075 49.2139 44.7026 49.2139H44.7125C45.2076 49.2139 45.6094 49.6148 45.6094 50.1108C45.6094 50.6068 45.2076 51.0077 44.7125 51.0077Z" fill="black"/>
<path d="M14.2164 51.0077C13.7204 51.0077 13.3149 50.6068 13.3149 50.1108C13.3149 49.6148 13.7114 49.2139 14.2065 49.2139H14.2164C14.7115 49.2139 15.1133 49.6148 15.1133 50.1108C15.1133 50.6068 14.7115 51.0077 14.2164 51.0077Z" fill="black"/>
<path d="M22.2592 54.551C21.7632 54.551 21.3623 54.1501 21.3623 53.6541V50.0681C21.3623 49.5721 21.7632 49.1711 22.2592 49.1711C22.7553 49.1711 23.1562 49.5721 23.1562 50.0681V53.6541C23.1562 54.1501 22.7553 54.551 22.2592 54.551Z" fill="black"/>
<path d="M41.0977 50.965H22.2592C21.7632 50.965 21.3623 50.5641 21.3623 50.0681C21.3623 49.5721 21.7632 49.1711 22.2592 49.1711H41.0977C41.5937 49.1711 41.9946 49.5721 41.9946 50.0681C41.9946 50.5641 41.5937 50.965 41.0977 50.965Z" fill="black"/>
<path d="M41.0976 54.551C40.6016 54.551 40.2007 54.1501 40.2007 53.6541V50.0681C40.2007 49.5721 40.6016 49.1711 41.0976 49.1711C41.5936 49.1711 41.9946 49.5721 41.9946 50.0681V53.6541C41.9946 54.1501 41.5936 54.551 41.0976 54.551Z" fill="black"/>
<path d="M27.6381 54.551C27.1421 54.551 26.7412 54.1501 26.7412 53.6541V50.0681C26.7412 49.5721 27.1421 49.1711 27.6381 49.1711C28.1342 49.1711 28.5351 49.5721 28.5351 50.0681V53.6541C28.5351 54.1501 28.1342 54.551 27.6381 54.551Z" fill="black"/>
<path d="M24.9519 51.862C24.4559 51.862 24.0549 51.461 24.0549 50.965V50.0681C24.0549 49.5721 24.4559 49.1711 24.9519 49.1711C25.4479 49.1711 25.8488 49.5721 25.8488 50.0681V50.965C25.8488 51.461 25.4479 51.862 24.9519 51.862Z" fill="black"/>
<path d="M30.3335 51.862C29.8375 51.862 29.4365 51.461 29.4365 50.965V50.0681C29.4365 49.5721 29.8375 49.1711 30.3335 49.1711C30.8295 49.1711 31.2304 49.5721 31.2304 50.0681V50.965C31.2304 51.461 30.8295 51.862 30.3335 51.862Z" fill="black"/>
<path d="M33.0244 51.862C32.5284 51.862 32.1274 51.461 32.1274 50.965V50.0681C32.1274 49.5721 32.5284 49.1711 33.0244 49.1711C33.5204 49.1711 33.9213 49.5721 33.9213 50.0681V50.965C33.9213 51.461 33.5204 51.862 33.0244 51.862Z" fill="black"/>
<path d="M35.715 51.862C35.219 51.862 34.8181 51.461 34.8181 50.965V50.0681C34.8181 49.5721 35.219 49.1711 35.715 49.1711C36.2111 49.1711 36.612 49.5721 36.612 50.0681V50.965C36.612 51.461 36.2111 51.862 35.715 51.862Z" fill="black"/>
<path d="M38.406 51.862C37.91 51.862 37.509 51.461 37.509 50.965V50.0681C37.509 49.5721 37.91 49.1711 38.406 49.1711C38.902 49.1711 39.3029 49.5721 39.3029 50.0681V50.965C39.3029 51.461 38.902 51.862 38.406 51.862Z" fill="black"/>
<path d="M44.6855 58.1396H14.1895C11.7167 58.1396 9.70483 56.1278 9.70483 53.6549V8.80881C9.70483 8.3128 10.1058 7.91187 10.6018 7.91187C11.0978 7.91187 11.4987 8.3128 11.4987 8.80881V53.6549C11.4987 55.1385 12.706 56.3457 14.1895 56.3457H44.6855C46.169 56.3457 47.3763 55.1385 47.3763 53.6549V8.80881C47.3763 8.3128 47.7773 7.91187 48.2733 7.91187C48.7693 7.91187 49.1702 8.3128 49.1702 8.80881V53.6549C49.1702 56.1278 47.1584 58.1396 44.6855 58.1396Z" fill="black"/>
<path d="M23.1553 24.064C22.6593 24.064 22.2584 23.6631 22.2584 23.1671C22.2584 22.1778 21.4538 21.3732 20.4645 21.3732C19.4751 21.3732 18.6706 22.1778 18.6706 23.1671C18.6706 23.6631 18.2697 24.064 17.7736 24.064C17.2776 24.064 16.8767 23.6631 16.8767 23.1671C16.8767 21.1885 18.4858 19.5793 20.4645 19.5793C22.4431 19.5793 24.0522 21.1885 24.0522 23.1671C24.0522 23.6631 23.6513 24.064 23.1553 24.064Z" fill="#4AB8B8"/>
<path d="M20.4645 33.932C18.4858 33.932 16.8767 32.3229 16.8767 30.3442C16.8767 29.8482 17.2776 29.4473 17.7736 29.4473C18.2697 29.4473 18.6706 29.8482 18.6706 30.3442C18.6706 31.3335 19.4751 32.1381 20.4645 32.1381C21.4538 32.1381 22.2584 31.3335 22.2584 30.3442C22.2584 29.8482 22.6593 29.4473 23.1553 29.4473C23.6513 29.4473 24.0522 29.8482 24.0522 30.3442C24.0522 32.3229 22.4431 33.932 20.4645 33.932Z" fill="#4AB8B8"/>
<path d="M23.1553 31.2412C22.6593 31.2412 22.2584 30.8403 22.2584 30.3443C22.2584 29.2599 20.704 27.8481 19.4545 26.7126C18.0714 25.456 16.8767 24.3707 16.8767 23.167C16.8767 22.671 17.2776 22.27 17.7736 22.27C18.2697 22.27 18.6706 22.671 18.6706 23.167C18.6706 23.576 19.9173 24.7088 20.6618 25.3851C22.2503 26.8292 24.0522 28.467 24.0522 30.3443C24.0522 30.8394 23.6513 31.2412 23.1553 31.2412Z" fill="#4AB8B8"/>
<path d="M32.1292 24.064C31.6332 24.064 31.2322 23.6631 31.2322 23.1671C31.2322 22.1778 30.4277 21.3732 29.4383 21.3732C28.449 21.3732 27.6445 22.1778 27.6445 23.1671C27.6445 23.6631 27.2435 24.064 26.7475 24.064C26.2515 24.064 25.8506 23.6631 25.8506 23.1671C25.8506 21.1885 27.4597 19.5793 29.4383 19.5793C31.417 19.5793 33.0261 21.1885 33.0261 23.1671C33.0261 23.6631 32.6252 24.064 32.1292 24.064Z" fill="#4AB8B8"/>
<path d="M29.4383 33.932C27.4597 33.932 25.8506 32.3229 25.8506 30.3442C25.8506 29.8482 26.2515 29.4473 26.7475 29.4473C27.2435 29.4473 27.6445 29.8482 27.6445 30.3442C27.6445 31.3335 28.449 32.1381 29.4383 32.1381C30.4277 32.1381 31.2322 31.3335 31.2322 30.3442C31.2322 29.8482 31.6332 29.4473 32.1292 29.4473C32.6252 29.4473 33.0261 29.8482 33.0261 30.3442C33.0261 32.3229 31.417 33.932 29.4383 33.932Z" fill="#4AB8B8"/>
<path d="M32.1292 31.2412C31.6332 31.2412 31.2322 30.8403 31.2322 30.3443C31.2322 29.2599 29.6778 27.8481 28.4284 26.7126C27.0453 25.456 25.8506 24.3707 25.8506 23.167C25.8506 22.671 26.2515 22.27 26.7475 22.27C27.2435 22.27 27.6445 22.671 27.6445 23.167C27.6445 23.576 28.8912 24.7088 29.6357 25.3851C31.2242 26.8292 33.0261 28.467 33.0261 30.3443C33.0261 30.8394 32.6252 31.2412 32.1292 31.2412Z" fill="#4AB8B8"/>
<path d="M41.0985 24.064C40.6025 24.064 40.2016 23.6631 40.2016 23.1671C40.2016 22.1778 39.397 21.3732 38.4077 21.3732C37.9117 21.3732 37.5107 20.9723 37.5107 20.4763C37.5107 19.9803 37.9117 19.5793 38.4077 19.5793C40.3863 19.5793 41.9954 21.1885 41.9954 23.1671C41.9954 23.6631 41.5945 24.064 41.0985 24.064Z" fill="#4AB8B8"/>
<path d="M38.4077 33.932C37.9117 33.932 37.5107 33.531 37.5107 33.035C37.5107 32.539 37.9117 32.1381 38.4077 32.1381C39.397 32.1381 40.2016 31.3335 40.2016 30.3442C40.2016 29.8482 40.6025 29.4473 41.0985 29.4473C41.5945 29.4473 41.9954 29.8482 41.9954 30.3442C41.9954 32.3229 40.3863 33.932 38.4077 33.932Z" fill="#4AB8B8"/>
<path d="M41.0986 31.2412C40.6026 31.2412 40.2017 30.8403 40.2017 30.3443V23.167C40.2017 22.671 40.6026 22.27 41.0986 22.27C41.5946 22.27 41.9955 22.671 41.9955 23.167V30.3443C41.9955 30.8394 41.5946 31.2412 41.0986 31.2412Z" fill="#4AB8B8"/>
<path d="M38.4078 33.9321H35.717C35.221 33.9321 34.8201 33.5311 34.8201 33.0351C34.8201 32.5391 35.221 32.1382 35.717 32.1382H38.4078C38.9038 32.1382 39.3048 32.5391 39.3048 33.0351C39.3048 33.5311 38.9038 33.9321 38.4078 33.9321Z" fill="#4AB8B8"/>
<path d="M38.4078 21.3732H35.717C35.221 21.3732 34.8201 20.9723 34.8201 20.4763C34.8201 19.9803 35.221 19.5793 35.717 19.5793H38.4078C38.9038 19.5793 39.3048 19.9803 39.3048 20.4763C39.3048 20.9723 38.9038 21.3732 38.4078 21.3732Z" fill="#4AB8B8"/>
<path d="M35.717 33.9322C35.221 33.9322 34.8201 33.5313 34.8201 33.0352V20.4763C34.8201 19.9803 35.221 19.5793 35.717 19.5793C36.213 19.5793 36.6139 19.9803 36.6139 20.4763V33.0352C36.6139 33.5304 36.213 33.9322 35.717 33.9322Z" fill="#4AB8B8"/>
</g>
<defs>
<clipPath id="clip0">
<rect width="57.4042" height="57.4042" fill="white" transform="translate(0.735352 0.735352)"/>
</clipPath>
</defs>
</svg>
