<svg width="62" height="63" viewBox="0 0 62 63" fill="none" xmlns="http://www.w3.org/2000/svg">
<path d="M8.25485 53.2895C8.14528 53.2895 8.04019 53.2451 7.9627 53.166C7.88522 53.087 7.84169 52.9797 7.84169 52.8679V10.4286H2.96638C2.85681 10.4286 2.75172 10.3842 2.67423 10.3052C2.59675 10.2261 2.55322 10.1189 2.55322 10.007C2.55322 9.89523 2.59675 9.788 2.67423 9.70893C2.75172 9.62987 2.85681 9.58545 2.96638 9.58545H8.25485C8.36443 9.58545 8.46952 9.62987 8.547 9.70893C8.62449 9.788 8.66801 9.89523 8.66801 10.007V52.8679C8.66801 52.9797 8.62449 53.087 8.547 53.166C8.46952 53.2451 8.36443 53.2895 8.25485 53.2895Z" fill="#323C6B"/>
<path d="M8.25146 13.271H59.1563V46.9066H8.25146V13.271Z" fill="#124E61"/>
<path d="M59.1562 13.2751V46.9099H56.5119V15.7035H8.25464V13.2751H59.1562Z" fill="#1F7C99"/>
<path d="M54.6007 43.227H54.0462C53.9366 43.227 53.8316 43.1826 53.7541 43.1035C53.6766 43.0244 53.6331 42.9172 53.6331 42.8054C53.6331 42.6936 53.6766 42.5863 53.7541 42.5073C53.8316 42.4282 53.9366 42.3838 54.0462 42.3838H54.6007C54.7103 42.3838 54.8153 42.4282 54.8928 42.5073C54.9703 42.5863 55.0138 42.6936 55.0138 42.8054C55.0138 42.9172 54.9703 43.0244 54.8928 43.1035C54.8153 43.1826 54.7103 43.227 54.6007 43.227Z" fill="#323C6B"/>
<path d="M12.5888 43.227H12.0335C11.9239 43.227 11.8189 43.1826 11.7414 43.1035C11.6639 43.0244 11.6204 42.9172 11.6204 42.8054C11.6204 42.6936 11.6639 42.5863 11.7414 42.5073C11.8189 42.4282 11.9239 42.3838 12.0335 42.3838H12.5888C12.6984 42.3838 12.8035 42.4282 12.881 42.5073C12.9584 42.5863 13.002 42.6936 13.002 42.8054C13.002 42.9172 12.9584 43.0244 12.881 43.1035C12.8035 43.1826 12.6984 43.227 12.5888 43.227Z" fill="#323C6B"/>
<path d="M54.6007 17.7939H54.0462C53.9366 17.7939 53.8316 17.7495 53.7541 17.6704C53.6766 17.5913 53.6331 17.4841 53.6331 17.3723C53.6331 17.2605 53.6766 17.1532 53.7541 17.0742C53.8316 16.9951 53.9366 16.9507 54.0462 16.9507H54.6007C54.7103 16.9507 54.8153 16.9951 54.8928 17.0742C54.9703 17.1532 55.0138 17.2605 55.0138 17.3723C55.0138 17.4841 54.9703 17.5913 54.8928 17.6704C54.8153 17.7495 54.7103 17.7939 54.6007 17.7939Z" fill="#323C6B"/>
<path d="M12.5888 17.7939H12.0335C11.9239 17.7939 11.8189 17.7495 11.7414 17.6704C11.6639 17.5913 11.6204 17.4841 11.6204 17.3723C11.6204 17.2605 11.6639 17.1532 11.7414 17.0742C11.8189 16.9951 11.9239 16.9507 12.0335 16.9507H12.5888C12.6984 16.9507 12.8035 16.9951 12.881 17.0742C12.9584 17.1532 13.002 17.2605 13.002 17.3723C13.002 17.4841 12.9584 17.5913 12.881 17.6704C12.8035 17.7495 12.6984 17.7939 12.5888 17.7939Z" fill="#323C6B"/>
<path d="M5.22607 17.4229H8.25124V21.96H5.22607V17.4229Z" fill="#FCD462"/>
<path d="M8.25463 22.3816H5.22615C5.11657 22.3816 5.01148 22.3372 4.934 22.2581C4.85652 22.179 4.81299 22.0718 4.81299 21.96V17.4228C4.81299 17.311 4.85652 17.2038 4.934 17.1247C5.01148 17.0456 5.11657 17.0012 5.22615 17.0012H8.25463C8.3642 17.0012 8.46929 17.0456 8.54678 17.1247C8.62426 17.2038 8.66779 17.311 8.66779 17.4228V21.96C8.66779 22.0718 8.62426 22.179 8.54678 22.2581C8.46929 22.3372 8.3642 22.3816 8.25463 22.3816ZM5.64262 21.5384H7.84146V17.8444H5.63931L5.64262 21.5384Z" fill="#323C6B"/>
<path d="M5.22607 32.6086H8.25124V36.7664H5.22607V32.6086Z" fill="#FCD462"/>
<path d="M8.25463 37.188H5.22615C5.11657 37.188 5.01148 37.1435 4.934 37.0645C4.85652 36.9854 4.81299 36.8782 4.81299 36.7664V32.6086C4.81299 32.4968 4.85652 32.3896 4.934 32.3105C5.01148 32.2314 5.11657 32.187 5.22615 32.187H8.25463C8.3642 32.187 8.46929 32.2314 8.54678 32.3105C8.62426 32.3896 8.66779 32.4968 8.66779 32.6086V36.7664C8.66779 36.8782 8.62426 36.9854 8.54678 37.0645C8.46929 37.1435 8.3642 37.188 8.25463 37.188ZM5.64262 36.3448H7.84146V33.0302H5.63931L5.64262 36.3448Z" fill="#323C6B"/>
<path d="M5.22607 39.6104H8.25124V43.7681H5.22607V39.6104Z" fill="#FCD462"/>
<path d="M8.25463 44.1897H5.22615C5.11657 44.1897 5.01148 44.1452 4.934 44.0662C4.85652 43.9871 4.81299 43.8799 4.81299 43.7681V39.6103C4.81299 39.4985 4.85652 39.3913 4.934 39.3122C5.01148 39.2331 5.11657 39.1887 5.22615 39.1887H8.25463C8.3642 39.1887 8.46929 39.2331 8.54678 39.3122C8.62426 39.3913 8.66779 39.4985 8.66779 39.6103V43.7681C8.66779 43.8799 8.62426 43.9871 8.54678 44.0662C8.46929 44.1452 8.3642 44.1897 8.25463 44.1897ZM5.64262 43.3465H7.84146V40.0319H5.63931L5.64262 43.3465Z" fill="#323C6B"/>
<path d="M21.8906 39.8643C27.1812 39.8643 31.4702 35.4879 31.4702 30.0893C31.4702 24.6907 27.1812 20.3142 21.8906 20.3142C16.6 20.3142 12.311 24.6907 12.311 30.0893C12.311 35.4879 16.6 39.8643 21.8906 39.8643Z" fill="#E1E6E9"/>
<path d="M21.889 40.2866C19.9127 40.2856 17.9811 39.6867 16.3383 38.5656C14.6955 37.4445 13.4154 35.8516 12.6598 33.9882C11.9041 32.1248 11.7069 30.0746 12.093 28.0969C12.4791 26.1191 13.4312 24.3026 14.8289 22.8769C16.2266 21.4512 18.0073 20.4804 19.9456 20.0873C21.884 19.6941 23.8931 19.8962 25.7189 20.6681C27.5447 21.4399 29.1052 22.7468 30.2032 24.4236C31.3012 26.1003 31.8873 28.0716 31.8875 30.0883C31.8849 32.7929 30.8305 35.386 28.9559 37.2981C27.0812 39.2102 24.5396 40.285 21.889 40.2866ZM21.889 20.7356C20.076 20.7366 18.3041 21.2861 16.7971 22.3147C15.2902 23.3432 14.116 24.8046 13.423 26.5141C12.7299 28.2236 12.5492 30.1043 12.9036 31.9186C13.258 33.7329 14.1317 35.3992 15.4141 36.7068C16.6965 38.0145 18.3301 38.9047 20.1083 39.2651C21.8866 39.6254 23.7296 39.4396 25.4044 38.7312C27.0792 38.0228 28.5105 36.8236 29.5174 35.2852C30.5243 33.7467 31.0615 31.9382 31.0612 30.0883C31.0581 27.6076 30.0906 25.2295 28.3709 23.476C26.6513 21.7226 24.3201 20.737 21.889 20.7356Z" fill="#323C6B"/>
<path d="M45.2566 46.9072H49.2263V49.9941H45.2566V46.9072Z" fill="#FCD462"/>
<path d="M49.2255 50.4151H45.2591C45.1495 50.4151 45.0444 50.3707 44.967 50.2916C44.8895 50.2125 44.8459 50.1053 44.8459 49.9935V46.9074C44.8459 46.7956 44.8895 46.6884 44.967 46.6093C45.0444 46.5303 45.1495 46.4858 45.2591 46.4858H49.2255C49.335 46.4858 49.4401 46.5303 49.5176 46.6093C49.5951 46.6884 49.6386 46.7956 49.6386 46.9074V49.9943C49.6384 50.106 49.5948 50.213 49.5173 50.2919C49.4399 50.3708 49.3349 50.4151 49.2255 50.4151ZM45.6723 49.5719H48.8123V47.329H45.6723V49.5719Z" fill="#323C6B"/>
<path d="M41.2871 46.9072H45.2568V49.9941H41.2871V46.9072Z" fill="#FCD462"/>
<path d="M45.2567 50.4151H41.2904C41.1808 50.4151 41.0757 50.3707 40.9982 50.2916C40.9207 50.2125 40.8772 50.1053 40.8772 49.9935V46.9074C40.8772 46.7956 40.9207 46.6884 40.9982 46.6093C41.0757 46.5303 41.1808 46.4858 41.2904 46.4858H45.2567C45.3663 46.4858 45.4714 46.5303 45.5489 46.6093C45.6263 46.6884 45.6699 46.7956 45.6699 46.9074V49.9943C45.6697 50.106 45.626 50.213 45.5486 50.2919C45.4711 50.3708 45.3661 50.4151 45.2567 50.4151ZM41.7035 49.5719H44.8435V47.329H41.7035V49.5719Z" fill="#323C6B"/>
<path d="M31.719 46.9072H35.6887V49.9941H31.719V46.9072Z" fill="#FCD462"/>
<path d="M35.6888 50.4151H31.7225C31.6129 50.4151 31.5078 50.3707 31.4303 50.2916C31.3529 50.2125 31.3093 50.1053 31.3093 49.9935V46.9074C31.3093 46.7956 31.3529 46.6884 31.4303 46.6093C31.5078 46.5303 31.6129 46.4858 31.7225 46.4858H35.6888C35.7984 46.4858 35.9035 46.5303 35.981 46.6093C36.0585 46.6884 36.102 46.7956 36.102 46.9074V49.9943C36.1018 50.106 36.0582 50.213 35.9807 50.2919C35.9032 50.3708 35.7983 50.4151 35.6888 50.4151ZM32.1356 49.5719H35.2757V47.329H32.1356V49.5719Z" fill="#323C6B"/>
<path d="M49.2263 46.9072H53.196V49.9941H49.2263V46.9072Z" fill="#FCD462"/>
<path d="M53.1959 50.4151H49.2296C49.12 50.4151 49.0149 50.3707 48.9374 50.2916C48.8599 50.2125 48.8164 50.1053 48.8164 49.9935V46.9074C48.8164 46.7956 48.8599 46.6884 48.9374 46.6093C49.0149 46.5303 49.12 46.4858 49.2296 46.4858H53.1959C53.2502 46.4858 53.3039 46.4967 53.354 46.5179C53.4042 46.5391 53.4497 46.5702 53.4881 46.6093C53.5264 46.6485 53.5569 46.6949 53.5776 46.7461C53.5984 46.7972 53.6091 46.8521 53.6091 46.9074V49.9943C53.6089 50.106 53.5652 50.213 53.4878 50.2919C53.4103 50.3708 53.3054 50.4151 53.1959 50.4151ZM49.6427 49.5719H52.7828V47.329H49.6427V49.5719Z" fill="#323C6B"/>
<path d="M26.4817 49.8586H17.1517C17.0421 49.8586 16.937 49.8142 16.8595 49.7351C16.7821 49.656 16.7385 49.5488 16.7385 49.437C16.7385 49.3252 16.7821 49.2179 16.8595 49.1389C16.937 49.0598 17.0421 49.0154 17.1517 49.0154H26.4817C26.5913 49.0154 26.6964 49.0598 26.7739 49.1389C26.8513 49.2179 26.8949 49.3252 26.8949 49.437C26.8949 49.5488 26.8513 49.656 26.7739 49.7351C26.6964 49.8142 26.5913 49.8586 26.4817 49.8586Z" fill="#323C6B"/>
<path d="M14.948 49.8586H14.1217C14.0121 49.8586 13.907 49.8142 13.8295 49.7351C13.752 49.656 13.7085 49.5488 13.7085 49.437C13.7085 49.3252 13.752 49.2179 13.8295 49.1389C13.907 49.0598 14.0121 49.0154 14.1217 49.0154H14.948C15.0576 49.0154 15.1626 49.0598 15.2401 49.1389C15.3176 49.2179 15.3611 49.3252 15.3611 49.437C15.3611 49.5488 15.3176 49.656 15.2401 49.7351C15.1626 49.8142 15.0576 49.8586 14.948 49.8586Z" fill="#323C6B"/>
<path d="M45.2278 11.1637H36.482C36.3724 11.1637 36.2673 11.1193 36.1899 11.0403C36.1124 10.9612 36.0688 10.854 36.0688 10.7421C36.0688 10.6303 36.1124 10.5231 36.1899 10.444C36.2673 10.365 36.3724 10.3206 36.482 10.3206H45.2278C45.3374 10.3206 45.4425 10.365 45.52 10.444C45.5975 10.5231 45.641 10.6303 45.641 10.7421C45.641 10.854 45.5975 10.9612 45.52 11.0403C45.4425 11.1193 45.3374 11.1637 45.2278 11.1637Z" fill="#323C6B"/>
<path d="M48.6874 11.1637H47.8099C47.7003 11.1637 47.5952 11.1193 47.5177 11.0403C47.4403 10.9612 47.3967 10.854 47.3967 10.7421C47.3967 10.6303 47.4403 10.5231 47.5177 10.444C47.5952 10.365 47.7003 10.3206 47.8099 10.3206H48.6883C48.7978 10.3206 48.9029 10.365 48.9804 10.444C49.0579 10.5231 49.1014 10.6303 49.1014 10.7421C49.1014 10.854 49.0579 10.9612 48.9804 11.0403C48.9029 11.1193 48.7978 11.1637 48.6883 11.1637H48.6874Z" fill="#323C6B"/>
<path d="M20.8381 28.3919C20.6398 27.9531 20.5404 27.4745 20.5472 26.9914C20.5472 24.4551 22.3593 23.1389 24.6193 23.4795L24.6706 23.4863C24.8996 23.5322 25.1155 23.6303 25.3021 23.7733C25.4887 23.9163 25.6413 24.1005 25.7484 24.3121C25.8555 24.5237 25.9144 24.7573 25.9206 24.9953C25.9269 25.2334 25.8803 25.4698 25.7844 25.687C25.1668 26.8507 24.2698 27.8354 23.1774 28.5488" fill="#9297AB"/>
<path d="M23.1772 28.9704C23.0874 28.9704 23.0002 28.9406 22.9285 28.8855C22.8569 28.8304 22.8047 28.753 22.78 28.665C22.7553 28.577 22.7593 28.4832 22.7914 28.3978C22.8236 28.3123 22.8821 28.2398 22.9582 28.1913C23.9854 27.5182 24.8299 26.592 25.414 25.4982C25.4853 25.3481 25.5209 25.183 25.5179 25.0163C25.5149 24.8495 25.4733 24.6859 25.3967 24.5386C25.3196 24.3773 25.2075 24.2361 25.0689 24.1256C24.9303 24.0151 24.7688 23.9384 24.5968 23.9012C24.1321 23.8051 23.6526 23.8128 23.1911 23.9239C22.7296 24.0349 22.2972 24.2467 21.9236 24.5445C21.597 24.855 21.3413 25.235 21.1746 25.6576C21.008 26.0801 20.9345 26.535 20.9593 26.9898C20.9529 27.4112 21.0393 27.8287 21.2122 28.2115C21.2586 28.3128 21.2637 28.4288 21.2264 28.534C21.189 28.6391 21.1123 28.7248 21.013 28.7723C20.9137 28.8197 20.8001 28.8249 20.697 28.7868C20.594 28.7487 20.51 28.6704 20.4635 28.569C20.2374 28.069 20.1245 27.5235 20.133 26.9729C20.1078 26.3991 20.2069 25.8267 20.4231 25.2963C20.6393 24.766 20.9674 24.2908 21.384 23.9045C21.84 23.5279 22.371 23.2573 22.94 23.1116C23.5091 22.966 24.1024 22.9488 24.6786 23.0613C24.9892 23.113 25.2834 23.2393 25.5367 23.4299C25.79 23.6205 25.9952 23.8699 26.1354 24.1575C26.2701 24.422 26.3419 24.7152 26.345 25.0133C26.348 25.3114 26.2821 25.6061 26.1527 25.8734C25.5023 27.1081 24.5534 28.1527 23.3961 28.908C23.3304 28.9496 23.2545 28.9712 23.1772 28.9704Z" fill="#323C6B"/>
<path d="M19.9826 30.6052C19.5125 30.6621 19.0359 30.6108 18.5878 30.4551C16.2229 29.6735 15.5577 27.504 16.5732 25.4179L16.5947 25.3699C16.7083 25.1617 16.8665 24.9824 17.0576 24.8454C17.2486 24.7083 17.4676 24.6172 17.698 24.5787C17.9285 24.5401 18.1645 24.5553 18.3884 24.6229C18.6123 24.6906 18.8183 24.809 18.991 24.9694C19.8848 25.9282 20.5254 27.103 20.8527 28.3834" fill="#9297AB"/>
<path d="M19.6184 31.0486C19.2183 31.0506 18.8208 30.9824 18.4433 30.8471C17.9009 30.6943 17.398 30.4215 16.9706 30.048C16.5432 29.6744 16.2016 29.2094 15.9702 28.686C15.7611 28.127 15.6736 27.5284 15.7135 26.9315C15.7535 26.3346 15.92 25.7537 16.2015 25.2289C16.346 24.9435 16.555 24.6973 16.8112 24.5107C17.0674 24.324 17.3634 24.2023 17.6749 24.1556C17.9627 24.107 18.2577 24.1282 18.536 24.2174C18.8143 24.3066 19.0682 24.4613 19.2771 24.6691C20.2257 25.6818 20.9046 26.9253 21.2495 28.2813C21.2626 28.335 21.2652 28.3909 21.2571 28.4457C21.249 28.5004 21.2304 28.5531 21.2024 28.6005C21.1744 28.6479 21.1375 28.6893 21.0939 28.7222C21.0502 28.7551 21.0006 28.7789 20.9479 28.7922C20.8952 28.8056 20.8405 28.8082 20.7868 28.8C20.7331 28.7917 20.6816 28.7728 20.6351 28.7442C20.5886 28.7156 20.5481 28.678 20.5158 28.6334C20.4836 28.5888 20.4603 28.5382 20.4472 28.4845C20.1377 27.2796 19.5355 26.1738 18.6962 25.2694C18.5789 25.1535 18.4363 25.0677 18.2801 25.019C18.124 24.9704 17.9587 24.9602 17.798 24.9895C17.6237 25.0143 17.4573 25.0794 17.3114 25.1798C17.1654 25.2802 17.0439 25.4132 16.956 25.5687C16.722 25.9898 16.5806 26.4577 16.5415 26.9401C16.5024 27.4224 16.5666 27.9077 16.7295 28.3622C16.9182 28.7755 17.1937 29.1413 17.5364 29.4338C17.8791 29.7262 18.2807 29.9382 18.7127 30.0545C19.1034 30.1918 19.5195 30.2374 19.9299 30.1877C20.037 30.1773 20.1438 30.2099 20.2277 30.2786C20.3115 30.3473 20.3659 30.4466 20.3791 30.5555C20.3923 30.6644 20.3634 30.7743 20.2985 30.8618C20.2336 30.9493 20.1378 31.0076 20.0315 31.0242C19.8944 31.0409 19.7565 31.049 19.6184 31.0486Z" fill="#323C6B"/>
<path d="M21.7801 32.1185C21.6877 32.5922 21.4926 33.0388 21.2091 33.4255C19.7498 35.4786 17.5245 35.455 15.8917 33.8243L15.8537 33.7881C15.6955 33.6135 15.5779 33.4049 15.5096 33.1776C15.4414 32.9503 15.4242 32.7102 15.4595 32.4752C15.4948 32.2402 15.5815 32.0163 15.7133 31.8203C15.845 31.6242 16.0184 31.461 16.2206 31.3428C17.3904 30.7716 18.6832 30.5128 19.9778 30.5907" fill="#9297AB"/>
<path d="M18.4697 35.4325C17.383 35.3989 16.353 34.9297 15.6032 34.1264C15.3815 33.898 15.2163 33.6191 15.1214 33.3126C15.0264 33.0062 15.0043 32.681 15.057 32.3641C15.1002 32.0694 15.2109 31.7891 15.3802 31.5462C15.5495 31.3033 15.7725 31.1046 16.0312 30.9661C17.2684 30.358 18.6376 30.0833 20.0083 30.1685C20.0624 30.1723 20.1153 30.187 20.1639 30.2117C20.2125 30.2365 20.2558 30.2707 20.2914 30.3125C20.327 30.3543 20.3542 30.4029 20.3714 30.4554C20.3886 30.508 20.3955 30.5635 20.3917 30.6187C20.3799 30.7286 20.3279 30.83 20.2461 30.9025C20.1643 30.975 20.0587 31.0134 19.9504 31.01C18.7314 30.9377 17.5142 31.1802 16.4113 31.7149C16.2676 31.7937 16.144 31.9059 16.0505 32.0424C15.9571 32.1789 15.8964 32.3359 15.8734 32.5007C15.8428 32.6775 15.8521 32.8591 15.9006 33.0317C15.9492 33.2042 16.0357 33.3632 16.1535 33.4965C16.4739 33.8531 16.8662 34.1345 17.3034 34.3216C17.7406 34.5086 18.2124 34.5968 18.6862 34.58C19.1295 34.5245 19.5555 34.3702 19.9339 34.1281C20.3123 33.8859 20.6339 33.5618 20.8759 33.1787C21.1223 32.8411 21.2917 32.4516 21.3717 32.0387C21.3924 31.9289 21.455 31.832 21.5458 31.7693C21.6365 31.7066 21.7479 31.6832 21.8555 31.7043C21.9631 31.7255 22.0581 31.7894 22.1196 31.8819C22.181 31.9745 22.2039 32.0882 22.1832 32.198C22.078 32.7383 21.8546 33.2473 21.5295 33.6871C21.2197 34.1664 20.8101 34.57 20.3299 34.8694C19.8497 35.1687 19.3108 35.3564 18.7514 35.419C18.6589 35.4283 18.5647 35.4325 18.4697 35.4325Z" fill="#323C6B"/>
<path d="M23.7465 30.8413C24.1595 31.0772 24.5156 31.4045 24.7885 31.7992C26.2511 33.8498 25.5421 36.0025 23.5168 37.0826L23.4713 37.1079C23.2596 37.208 23.0285 37.258 22.7952 37.2542C22.5619 37.2504 22.3325 37.1929 22.124 37.086C21.9156 36.9791 21.7335 36.8255 21.5913 36.6367C21.4491 36.4479 21.3506 36.2288 21.303 35.9957C21.1323 34.6839 21.2906 33.3493 21.7633 32.1171" fill="#9297AB"/>
<path d="M22.8153 37.6728C22.4962 37.6722 22.1819 37.5933 21.899 37.4426C21.6377 37.3096 21.4109 37.1156 21.2369 36.8763C21.0629 36.6371 20.9466 36.3594 20.8974 36.0657C20.7129 34.6775 20.8796 33.2641 21.3817 31.9602C21.4228 31.8565 21.5026 31.7736 21.6035 31.7299C21.7045 31.6862 21.8183 31.6851 21.92 31.7271C22.0217 31.769 22.1029 31.8504 22.1458 31.9535C22.1886 32.0565 22.1896 32.1727 22.1485 32.2764C21.7047 33.437 21.5549 34.693 21.713 35.9283C21.7419 36.0923 21.8082 36.247 21.9065 36.38C22.0048 36.513 22.1325 36.6205 22.2791 36.6939C22.4344 36.7783 22.6065 36.8254 22.7823 36.8317C22.9582 36.838 23.1331 36.8032 23.2938 36.7301C23.7257 36.53 24.1097 36.2363 24.4192 35.8696C24.7287 35.5028 24.9562 35.0717 25.0861 34.6061C25.1707 34.1583 25.1577 33.6969 25.0478 33.2547C24.938 32.8126 24.7341 32.4006 24.4506 32.0479C24.2128 31.703 23.9022 31.4169 23.5417 31.2106C23.4471 31.1558 23.3774 31.0652 23.3479 30.9583C23.3184 30.8515 23.3314 30.737 23.3841 30.6399C23.4367 30.5427 23.5248 30.4707 23.6292 30.4394C23.7336 30.4082 23.8458 30.4202 23.9416 30.4728C24.4129 30.7422 24.8182 31.117 25.1274 31.569C25.4785 32.0179 25.7283 32.5402 25.8592 33.0988C25.99 33.6574 25.9986 34.2386 25.8843 34.8009C25.7316 35.3782 25.4578 35.9147 25.0819 36.3733C24.7059 36.8319 24.2368 37.2016 23.7069 37.457C23.4299 37.5977 23.1248 37.6716 22.8153 37.6728Z" fill="#323C6B"/>
<path d="M23.1641 28.5384C23.5116 28.2106 23.9266 27.9663 24.3788 27.8234C26.742 27.0376 28.5294 28.3909 28.9103 30.6903L28.9202 30.7417C28.9481 30.978 28.9233 31.2178 28.8477 31.443C28.7721 31.6682 28.6476 31.8731 28.4836 32.0423C28.3195 32.2116 28.1201 32.3409 27.9003 32.4205C27.6804 32.5002 27.4458 32.5281 27.2139 32.5023C25.9393 32.2623 24.7452 31.6963 23.7433 30.8572" fill="#9297AB"/>
<path d="M27.4255 32.9401C27.3339 32.9402 27.2424 32.9331 27.1519 32.919C25.8012 32.6691 24.5356 32.0705 23.4756 31.1803C23.4341 31.1447 23.3998 31.1011 23.3747 31.052C23.3497 31.0029 23.3344 30.9492 23.3297 30.894C23.3249 30.8389 23.3309 30.7833 23.3472 30.7305C23.3636 30.6777 23.3899 30.6287 23.4248 30.5863C23.4597 30.5439 23.5024 30.5089 23.5506 30.4833C23.5987 30.4578 23.6513 30.4421 23.7054 30.4373C23.7594 30.4325 23.8139 30.4386 23.8656 30.4553C23.9174 30.4719 23.9654 30.4988 24.007 30.5344C24.9519 31.3235 26.0764 31.8571 27.2767 32.0859C27.439 32.1093 27.6043 32.0933 27.7594 32.0393C27.9145 31.9852 28.0548 31.8946 28.1691 31.7748C28.2957 31.6502 28.3927 31.4978 28.4528 31.3291C28.5129 31.1605 28.5346 30.9802 28.5162 30.8017C28.4629 30.3197 28.3073 29.8554 28.0603 29.4409C27.8133 29.0265 27.4808 28.672 27.0858 28.402C26.6953 28.181 26.2619 28.0504 25.8164 28.0194C25.3708 27.9883 24.9241 28.0577 24.5077 28.2224C24.1129 28.3463 23.7503 28.5589 23.4467 28.8447C23.4074 28.8841 23.3608 28.9151 23.3095 28.9359C23.2583 28.9566 23.2035 28.9667 23.1484 28.9655C23.0933 28.9644 23.039 28.952 22.9887 28.929C22.9383 28.9061 22.893 28.8731 22.8554 28.8321C22.8177 28.791 22.7885 28.7427 22.7694 28.6899C22.7503 28.6371 22.7418 28.581 22.7443 28.5248C22.7468 28.4686 22.7603 28.4135 22.784 28.3628C22.8077 28.312 22.8412 28.2666 22.8823 28.2292C23.2783 27.8551 23.752 27.5772 24.2681 27.4163C24.7949 27.2141 25.3589 27.1329 25.92 27.1787C26.481 27.2244 27.0253 27.396 27.5139 27.6811C28.0055 28.0077 28.4216 28.4395 28.7332 28.9467C29.0449 29.4538 29.2446 30.0241 29.3186 30.6179C29.3664 30.9355 29.3393 31.2602 29.2398 31.565C29.1402 31.8698 28.9709 32.1461 28.7459 32.3709C28.397 32.7315 27.9221 32.9362 27.4255 32.9401Z" fill="#323C6B"/>
<path d="M21.9021 32.123C22.9974 32.123 23.8853 31.217 23.8853 30.0993C23.8853 28.9817 22.9974 28.0757 21.9021 28.0757C20.8068 28.0757 19.9189 28.9817 19.9189 30.0993C19.9189 31.217 20.8068 32.123 21.9021 32.123Z" fill="#BBBBCD"/>
<path d="M21.9022 32.5445C21.4282 32.5445 20.9649 32.4011 20.5709 32.1324C20.1768 31.8638 19.8696 31.4819 19.6883 31.0351C19.5069 30.5882 19.4594 30.0966 19.5519 29.6223C19.6444 29.1479 19.8726 28.7122 20.2077 28.3702C20.5429 28.0283 20.9699 27.7954 21.4347 27.701C21.8995 27.6067 22.3814 27.6551 22.8192 27.8402C23.2571 28.0253 23.6314 28.3387 23.8947 28.7408C24.158 29.1429 24.2985 29.6157 24.2985 30.0993C24.2985 30.7478 24.0461 31.3698 23.5967 31.8283C23.1473 32.2869 22.5377 32.5445 21.9022 32.5445ZM21.9022 28.4972C21.5917 28.4972 21.2881 28.5912 21.0299 28.7672C20.7718 28.9433 20.5705 29.1935 20.4517 29.4862C20.3329 29.779 20.3018 30.1011 20.3624 30.4118C20.4229 30.7226 20.5725 31.0081 20.792 31.2321C21.0116 31.4562 21.2913 31.6088 21.5959 31.6706C21.9005 31.7324 22.2161 31.7007 22.503 31.5794C22.7899 31.4581 23.0351 31.2528 23.2076 30.9894C23.3801 30.7259 23.4722 30.4162 23.4722 30.0993C23.4722 29.6744 23.3068 29.2669 23.0124 28.9665C22.7179 28.666 22.3186 28.4972 21.9022 28.4972Z" fill="#323C6B"/>
<path d="M45.4592 39.8643C50.7498 39.8643 55.0388 35.4879 55.0388 30.0893C55.0388 24.6907 50.7498 20.3142 45.4592 20.3142C40.1686 20.3142 35.8796 24.6907 35.8796 30.0893C35.8796 35.4879 40.1686 39.8643 45.4592 39.8643Z" fill="#E1E6E9"/>
<path d="M45.4591 40.2866C43.4826 40.2866 41.5505 39.6885 39.9071 38.5681C38.2637 37.4476 36.9828 35.855 36.2264 33.9917C35.47 32.1284 35.272 30.0781 35.6575 28.1C36.0431 26.1219 36.9948 24.3049 38.3923 22.8787C39.7899 21.4525 41.5705 20.4812 43.509 20.0877C45.4475 19.6941 47.4568 19.8959 49.2829 20.6676C51.109 21.4393 52.6699 22.7462 53.7681 24.4231C54.8663 26.0999 55.4525 28.0714 55.4527 30.0883C55.4501 32.7921 54.3964 35.3844 52.5228 37.2963C50.6492 39.2083 48.1089 40.2837 45.4591 40.2866ZM45.4591 20.7356C43.646 20.7356 41.8735 21.2843 40.3659 22.3122C38.8583 23.3402 37.6834 24.8012 36.9896 26.5106C36.2958 28.22 36.1143 30.1009 36.4682 31.9155C36.822 33.7301 37.6953 35.3969 38.9775 36.705C40.2597 38.0132 41.8933 38.904 43.6717 39.2647C45.4501 39.6255 47.2934 39.44 48.9684 38.7317C50.6435 38.0234 52.0751 36.8242 53.0822 35.2857C54.0893 33.7472 54.6267 31.9384 54.6264 30.0883C54.6233 27.6085 53.6564 25.2311 51.9379 23.4778C50.2193 21.7245 47.8893 20.7383 45.4591 20.7356Z" fill="#323C6B"/>
<path d="M44.4064 28.3919C44.2082 27.9531 44.1088 27.4745 44.1156 26.9914C44.1156 24.4551 45.9277 23.1389 48.1877 23.4795L48.2389 23.4863C48.4679 23.5322 48.6838 23.6303 48.8705 23.7733C49.0571 23.9163 49.2097 24.1005 49.3168 24.3121C49.4239 24.5237 49.4828 24.7573 49.489 24.9953C49.4952 25.2334 49.4487 25.4698 49.3528 25.687C48.7352 26.8507 47.8382 27.8354 46.7457 28.5488" fill="#9297AB"/>
<path d="M46.7449 28.9704C46.6552 28.9704 46.5679 28.9406 46.4963 28.8855C46.4246 28.8304 46.3725 28.753 46.3478 28.665C46.323 28.577 46.327 28.4832 46.3592 28.3978C46.3913 28.3123 46.4499 28.2398 46.5259 28.1913C47.5533 27.5181 48.3981 26.592 48.9826 25.4982C49.0539 25.3481 49.0895 25.183 49.0865 25.0163C49.0834 24.8495 49.0419 24.6859 48.9652 24.5386C48.8882 24.3773 48.7761 24.2361 48.6375 24.1256C48.4989 24.0151 48.3374 23.9384 48.1654 23.9012C47.7007 23.8051 47.2211 23.8128 46.7597 23.9239C46.2982 24.0349 45.8658 24.2467 45.4922 24.5445C45.1656 24.855 44.9099 25.235 44.7432 25.6576C44.5766 26.0801 44.5031 26.535 44.5279 26.9898C44.52 27.4108 44.6047 27.8283 44.7758 28.2115C44.8053 28.262 44.8242 28.3183 44.8312 28.3767C44.8381 28.435 44.8331 28.4942 44.8163 28.5505C44.7995 28.6068 44.7713 28.6588 44.7336 28.7033C44.696 28.7478 44.6496 28.7837 44.5975 28.8089C44.5453 28.834 44.4887 28.8477 44.431 28.8491C44.3734 28.8505 44.3162 28.8396 44.2629 28.8171C44.2097 28.7946 44.1616 28.761 44.1219 28.7184C44.0821 28.6758 44.0516 28.6252 44.0321 28.5699C43.8053 28.0698 43.6923 27.5239 43.7016 26.9729C43.6764 26.3991 43.7755 25.8267 43.9917 25.2963C44.2079 24.766 44.536 24.2908 44.9526 23.9045C45.4086 23.5279 45.9396 23.2573 46.5086 23.1116C47.0777 22.966 47.671 22.9488 48.2472 23.0613C48.5578 23.113 48.852 23.2393 49.1053 23.4299C49.3586 23.6205 49.5638 23.8699 49.704 24.1575C49.8387 24.422 49.9105 24.7152 49.9135 25.0133C49.9166 25.3114 49.8507 25.6061 49.7213 25.8734C49.0708 27.1083 48.1216 28.153 46.9639 28.908C46.8982 28.9496 46.8222 28.9712 46.7449 28.9704Z" fill="#323C6B"/>
<path d="M43.5512 30.6052C43.0811 30.6621 42.6045 30.6108 42.1564 30.4551C39.7915 29.6735 39.1263 27.504 40.1418 25.4179L40.1633 25.3699C40.2769 25.1617 40.4351 24.9824 40.6262 24.8454C40.8172 24.7083 41.0362 24.6172 41.2666 24.5787C41.4971 24.5401 41.7331 24.5553 41.957 24.6229C42.1809 24.6906 42.3869 24.809 42.5596 24.9694C43.4534 25.9282 44.094 27.103 44.4214 28.3834" fill="#9297AB"/>
<path d="M43.1877 31.0486C42.7878 31.0517 42.3904 30.9847 42.0127 30.8505C41.4701 30.6977 40.9672 30.4247 40.5397 30.051C40.1123 29.6774 39.7708 29.2122 39.5395 28.6885C39.33 28.1297 39.2421 27.531 39.2821 26.934C39.3221 26.337 39.4888 25.7561 39.7709 25.2315C39.9154 24.9457 40.1246 24.6992 40.3811 24.5124C40.6376 24.3256 40.934 24.2039 41.2459 24.1573C41.5337 24.1087 41.8287 24.1299 42.107 24.2191C42.3853 24.3083 42.6392 24.463 42.8481 24.6708C43.7967 25.6835 44.4756 26.927 44.8205 28.283C44.8336 28.3367 44.8362 28.3926 44.8281 28.4474C44.82 28.5021 44.8014 28.5548 44.7734 28.6022C44.7454 28.6496 44.7085 28.691 44.6649 28.7239C44.6212 28.7568 44.5716 28.7806 44.5189 28.7939C44.4662 28.8073 44.4115 28.8099 44.3578 28.8017C44.3041 28.7934 44.2526 28.7745 44.2061 28.7459C44.1596 28.7173 44.1191 28.6797 44.0868 28.6351C44.0546 28.5905 44.0313 28.5399 44.0182 28.4862C43.7087 27.2813 43.1065 26.1755 42.2672 25.2711C42.1499 25.1552 42.0073 25.0693 41.8512 25.0207C41.695 24.972 41.5297 24.9619 41.369 24.9912C41.1947 25.016 41.0283 25.0811 40.8823 25.1815C40.7364 25.2819 40.6149 25.4149 40.527 25.5704C40.2929 25.9914 40.1513 26.4593 40.1121 26.9417C40.0728 27.424 40.1369 27.9093 40.2997 28.3639C40.4885 28.7771 40.764 29.1428 41.1067 29.4353C41.4494 29.7277 41.851 29.9397 42.2829 30.0562C42.6736 30.1934 43.0897 30.239 43.5001 30.1894C43.5547 30.1809 43.6104 30.1836 43.664 30.1975C43.7175 30.2113 43.7678 30.236 43.8119 30.27C43.8559 30.304 43.8928 30.3467 43.9204 30.3955C43.948 30.4444 43.9658 30.4983 43.9726 30.5543C43.9794 30.6102 43.9751 30.667 43.96 30.7212C43.9449 30.7755 43.9194 30.8261 43.8848 30.87C43.8502 30.914 43.8073 30.9504 43.7587 30.9772C43.7101 31.004 43.6567 31.0205 43.6017 31.0259C43.4643 31.042 43.326 31.0496 43.1877 31.0486Z" fill="#323C6B"/>
<path d="M45.3494 32.1185C45.257 32.5922 45.0619 33.0388 44.7784 33.4255C43.3191 35.4786 41.0938 35.455 39.461 33.8243L39.423 33.7881C39.2648 33.6135 39.1472 33.4049 39.0789 33.1776C39.0107 32.9503 38.9936 32.7102 39.0288 32.4752C39.0641 32.2402 39.1508 32.0163 39.2826 31.8203C39.4144 31.6242 39.5878 31.461 39.7899 31.3428C40.9597 30.7716 42.2526 30.5128 43.5472 30.5907" fill="#9297AB"/>
<path d="M42.038 35.4323C40.9513 35.3987 39.9214 34.9294 39.1715 34.1262C38.9499 33.8978 38.7847 33.6189 38.6897 33.3124C38.5947 33.006 38.5727 32.6808 38.6253 32.3639C38.6685 32.0692 38.7793 31.7889 38.9486 31.546C39.1178 31.3031 39.3409 31.1044 39.5995 30.9659C40.8361 30.3569 42.2053 30.0822 43.5758 30.1683C43.63 30.1721 43.6829 30.1868 43.7314 30.2115C43.78 30.2363 43.8234 30.2705 43.859 30.3123C43.8946 30.3541 43.9218 30.4027 43.939 30.4552C43.9562 30.5078 43.963 30.5633 43.9592 30.6185C43.948 30.7286 43.8961 30.8302 43.8142 30.9027C43.7322 30.9752 43.6263 31.0132 43.518 31.0089C42.2992 30.9374 41.0823 31.1801 39.9797 31.7147C39.8359 31.7935 39.7123 31.9057 39.6189 32.0422C39.5255 32.1787 39.4648 32.3357 39.4417 32.5005C39.4111 32.6773 39.4205 32.8589 39.469 33.0315C39.5175 33.204 39.604 33.363 39.7218 33.4963C40.0423 33.8528 40.4346 34.1343 40.8718 34.3213C41.309 34.5083 41.7807 34.5965 42.2545 34.5798C42.6979 34.5243 43.1238 34.37 43.5023 34.1278C43.8807 33.8857 44.2023 33.5616 44.4443 33.1784C44.6905 32.8407 44.8598 32.4513 44.9401 32.0385C44.9609 31.9287 45.0236 31.8318 45.1144 31.7692C45.2052 31.7066 45.3167 31.6833 45.4243 31.7046C45.5319 31.7258 45.6268 31.7898 45.6882 31.8825C45.7496 31.9751 45.7723 32.0889 45.7515 32.1987C45.646 32.7388 45.4226 33.2478 45.0979 33.6877C44.788 34.167 44.3784 34.5707 43.8983 34.87C43.4181 35.1694 42.8791 35.357 42.3198 35.4196C42.2281 35.4281 42.1339 35.4323 42.038 35.4323Z" fill="#323C6B"/>
<path d="M47.3158 30.8413C47.7289 31.0772 48.0849 31.4045 48.3578 31.7992C49.8204 33.8498 49.1114 36.0025 47.0861 37.0826L47.0407 37.1079C46.829 37.208 46.5978 37.258 46.3646 37.2542C46.1313 37.2504 45.9018 37.1929 45.6934 37.086C45.4849 36.9791 45.3028 36.8255 45.1606 36.6367C45.0185 36.4479 44.9199 36.2288 44.8724 35.9957C44.7016 34.6839 44.86 33.3493 45.3326 32.1171" fill="#9297AB"/>
<path d="M46.3839 37.6727C46.0648 37.6721 45.7506 37.5934 45.4675 37.4434C45.2062 37.3102 44.9793 37.1162 44.8052 36.877C44.6311 36.6378 44.5146 36.3601 44.4652 36.0664C44.2813 34.6781 44.4482 33.2649 44.9502 31.9609C44.9913 31.8572 45.0711 31.7743 45.1721 31.7306C45.273 31.6869 45.3869 31.6859 45.4886 31.7278C45.5902 31.7697 45.6714 31.8512 45.7143 31.9542C45.7571 32.0572 45.7581 32.1734 45.717 32.2771C45.2734 33.438 45.1233 34.6942 45.2807 35.9298C45.3097 36.094 45.3762 36.2489 45.4748 36.3819C45.5735 36.515 45.7015 36.6224 45.8484 36.6954C46.0037 36.7796 46.1757 36.8265 46.3514 36.8326C46.527 36.8387 46.7018 36.8039 46.8623 36.7309C47.2939 36.5306 47.6778 36.237 47.9872 35.8704C48.2967 35.5038 48.5244 35.073 48.6546 34.6077C48.74 34.1601 48.7279 33.6989 48.619 33.2566C48.5102 32.8144 48.3074 32.402 48.025 32.0486C47.787 31.7038 47.4764 31.4177 47.116 31.2114C47.0214 31.1566 46.9518 31.0659 46.9222 30.959C46.8927 30.8522 46.9057 30.7378 46.9584 30.6406C47.011 30.5435 47.0991 30.4715 47.2035 30.4402C47.3079 30.4089 47.4202 30.4209 47.5159 30.4736C47.9872 30.743 48.3926 31.1177 48.7017 31.5697C49.0529 32.0187 49.3027 32.5412 49.4334 33.1C49.5641 33.6588 49.5724 34.2401 49.4578 34.8025C49.305 35.3804 49.0308 35.9174 48.6543 36.3764C48.2777 36.8353 47.8078 37.2051 47.2771 37.4602C46.9993 37.6002 46.6937 37.6729 46.3839 37.6727Z" fill="#323C6B"/>
<path d="M46.7334 28.5384C47.0809 28.2106 47.496 27.9663 47.9481 27.8234C50.3114 27.0376 52.0987 28.3909 52.4796 30.6903L52.4895 30.7417C52.5174 30.978 52.4926 31.2178 52.417 31.443C52.3414 31.6682 52.217 31.8731 52.0529 32.0423C51.8889 32.2116 51.6895 32.3409 51.4696 32.4205C51.2498 32.5002 51.0151 32.5281 50.7832 32.5023C49.5086 32.2623 48.3145 31.6963 47.3126 30.8572" fill="#9297AB"/>
<path d="M50.9939 32.9399C50.9024 32.94 50.8109 32.933 50.7204 32.9188C49.37 32.6688 48.1047 32.0702 47.0449 31.1802C47.0034 31.1446 46.9691 31.101 46.944 31.0519C46.919 31.0027 46.9037 30.9491 46.899 30.8939C46.8942 30.8387 46.9002 30.7832 46.9165 30.7304C46.9329 30.6776 46.9592 30.6286 46.9941 30.5861C47.029 30.5437 47.0717 30.5088 47.1199 30.4832C47.168 30.4576 47.2206 30.442 47.2747 30.4372C47.3287 30.4324 47.3832 30.4385 47.4349 30.4551C47.4867 30.4718 47.5347 30.4987 47.5763 30.5343C48.521 31.3232 49.6452 31.8568 50.8452 32.0858C51.0071 32.1078 51.1718 32.0909 51.3262 32.0365C51.4806 31.982 51.6203 31.8915 51.7343 31.7721C51.8606 31.6475 51.9574 31.4952 52.0174 31.3268C52.0774 31.1583 52.099 30.9781 52.0806 30.7999C52.0278 30.3186 51.873 29.8547 51.6269 29.4406C51.3807 29.0265 51.0491 28.672 50.6552 28.4019C50.2646 28.1809 49.8312 28.0503 49.3857 28.0192C48.9401 27.9882 48.4934 28.0575 48.077 28.2223C47.6822 28.3458 47.3197 28.5582 47.016 28.8437C46.9768 28.8833 46.9302 28.9145 46.879 28.9354C46.8277 28.9563 46.7729 28.9666 46.7177 28.9655C46.6626 28.9645 46.6082 28.9522 46.5577 28.9293C46.5073 28.9065 46.4619 28.8735 46.4241 28.8325C46.3864 28.7914 46.357 28.7431 46.3379 28.6902C46.3188 28.6374 46.3102 28.5813 46.3127 28.525C46.3152 28.4688 46.3287 28.4136 46.3524 28.3627C46.3761 28.3119 46.4096 28.2664 46.4508 28.229C46.8469 27.8545 47.3209 27.5763 47.8374 27.4153C48.3642 27.2131 48.9282 27.1319 49.4893 27.1777C50.0503 27.2235 50.5946 27.395 51.0832 27.6801C51.5748 28.0067 51.9909 28.4385 52.3025 28.9457C52.6142 29.4528 52.8139 30.0231 52.8879 30.6169C52.9356 30.9343 52.9087 31.2588 52.8093 31.5634C52.7098 31.8681 52.5408 32.1443 52.3161 32.3691C51.9669 32.7306 51.4914 32.9359 50.9939 32.9399Z" fill="#323C6B"/>
<path d="M45.4707 32.123C46.566 32.123 47.4539 31.217 47.4539 30.0993C47.4539 28.9817 46.566 28.0757 45.4707 28.0757C44.3754 28.0757 43.4875 28.9817 43.4875 30.0993C43.4875 31.217 44.3754 32.123 45.4707 32.123Z" fill="#BBBBCD"/>
<path d="M45.4708 32.5445C44.9969 32.5445 44.5335 32.4011 44.1395 32.1324C43.7454 31.8638 43.4382 31.4819 43.2569 31.0351C43.0755 30.5882 43.028 30.0966 43.1205 29.6223C43.213 29.1479 43.4412 28.7122 43.7763 28.3702C44.1115 28.0283 44.5385 27.7954 45.0033 27.701C45.4681 27.6067 45.95 27.6551 46.3878 27.8402C46.8257 28.0253 47.2 28.3387 47.4633 28.7408C47.7266 29.1429 47.8671 29.6157 47.8671 30.0993C47.8671 30.7478 47.6147 31.3698 47.1653 31.8283C46.7159 32.2869 46.1064 32.5445 45.4708 32.5445ZM45.4708 28.4972C45.1603 28.4972 44.8567 28.5912 44.5986 28.7672C44.3404 28.9433 44.1391 29.1935 44.0203 29.4862C43.9015 29.779 43.8704 30.1011 43.931 30.4118C43.9915 30.7226 44.1411 31.0081 44.3606 31.2321C44.5802 31.4562 44.86 31.6088 45.1645 31.6706C45.4691 31.7324 45.7847 31.7007 46.0716 31.5794C46.3585 31.4581 46.6037 31.2528 46.7762 30.9894C46.9487 30.7259 47.0408 30.4162 47.0408 30.0993C47.0408 29.6744 46.8754 29.2669 46.581 28.9665C46.2865 28.666 45.8872 28.4972 45.4708 28.4972Z" fill="#323C6B"/>
<path d="M59.1562 47.3291H8.25471C8.14514 47.3291 8.04005 47.2847 7.96257 47.2056C7.88508 47.1266 7.84155 47.0193 7.84155 46.9075V13.2719C7.84155 13.1601 7.88508 13.0529 7.96257 12.9738C8.04005 12.8948 8.14514 12.8503 8.25471 12.8503H59.1562C59.2658 12.8503 59.3709 12.8948 59.4484 12.9738C59.5259 13.0529 59.5694 13.1601 59.5694 13.2719V46.9075C59.5694 47.0193 59.5259 47.1266 59.4484 47.2056C59.3709 47.2847 59.2658 47.3291 59.1562 47.3291ZM8.66788 46.4859H58.7431V13.6935H8.66788V46.4859Z" fill="#323C6B"/>
<path d="M10.6099 31.2687C10.4674 31.2687 10.3308 31.211 10.2301 31.1082C10.1293 31.0054 10.0728 30.866 10.0728 30.7206V22.2424C10.0728 22.097 10.1293 21.9576 10.2301 21.8549C10.3308 21.7521 10.4674 21.6943 10.6099 21.6943C10.7523 21.6943 10.8889 21.7521 10.9897 21.8549C11.0904 21.9576 11.147 22.097 11.147 22.2424V30.7215C11.1468 30.8667 11.0901 31.0059 10.9894 31.1085C10.8887 31.2111 10.7522 31.2687 10.6099 31.2687Z" fill="white"/>
<path d="M10.6099 34.0227C10.4674 34.0227 10.3308 33.965 10.2301 33.8622C10.1293 33.7594 10.0728 33.62 10.0728 33.4746V32.7234C10.0728 32.578 10.1293 32.4386 10.2301 32.3358C10.3308 32.233 10.4674 32.1753 10.6099 32.1753C10.7523 32.1753 10.8889 32.233 10.9897 32.3358C11.0904 32.4386 11.147 32.578 11.147 32.7234V33.4746C11.147 33.5466 11.1331 33.6179 11.1061 33.6844C11.0791 33.7509 11.0395 33.8113 10.9897 33.8622C10.9398 33.9131 10.8806 33.9535 10.8154 33.981C10.7502 34.0085 10.6804 34.0227 10.6099 34.0227Z" fill="white"/>
</svg>
